<svg width="161" height="162" viewBox="0 0 161 162" fill="none" xmlns="http://www.w3.org/2000/svg">
<path d="M146.672 147.941H13.6158C8.87512 147.941 5.03125 144.074 5.03125 139.304V22.6965C5.03125 17.9263 8.8745 14.0586 13.6158 14.0586H146.672C151.413 14.0586 155.257 17.9257 155.257 22.6965V139.304C155.256 144.074 151.413 147.941 146.672 147.941Z" fill="#F9CFCF"/>
<path d="M5.03125 22.6965V49.4733H155.256V22.6965C155.256 17.9257 151.413 14.0586 146.672 14.0586H13.6158C8.8745 14.0586 5.03125 17.9257 5.03125 22.6965Z" fill="#4671C6"/>
<path d="M29.3327 39.6983H18.7652C17.4156 39.6983 16.3213 38.5972 16.3213 37.2391V26.6066C16.3213 25.2486 17.4156 24.1475 18.7652 24.1475H29.3321C30.6817 24.1475 31.776 25.2486 31.776 26.6066V37.2391C31.7767 38.5972 30.6824 39.6983 29.3327 39.6983Z" fill="#A4C9FF"/>
<path d="M41.5965 24.1475H52.1634C53.513 24.1475 54.6073 25.2486 54.6073 26.6066V37.2391C54.6073 38.5972 53.513 39.6983 52.1634 39.6983H41.5965C40.2469 39.6983 39.1526 38.5972 39.1526 37.2391V26.6066C39.1532 25.2486 40.2469 24.1475 41.5965 24.1475Z" fill="#A4C9FF"/>
<path d="M146.672 149.207H13.6152C8.18899 149.207 3.77344 144.764 3.77344 139.304V22.6965C3.77344 17.2359 8.18899 12.7936 13.6152 12.7936H146.672C152.098 12.7936 156.513 17.2366 156.513 22.6965V139.304C156.514 144.764 152.099 149.207 146.672 149.207ZM13.6152 15.3242C9.57573 15.3242 6.28906 18.6313 6.28906 22.6965V139.304C6.28906 143.369 9.57573 146.676 13.6152 146.676H146.672C150.712 146.676 153.998 143.369 153.998 139.304V22.6965C153.998 18.6319 150.711 15.3248 146.672 15.3248H13.6152V15.3242Z" fill="#3A2C60"/>
<path d="M155.256 50.7383H5.03125C4.33694 50.7383 3.77344 50.1713 3.77344 49.4727V22.6965C3.77344 17.2359 8.18899 12.7936 13.6152 12.7936H146.672C152.098 12.7936 156.513 17.2366 156.513 22.6965V49.4727C156.514 50.1719 155.951 50.7383 155.256 50.7383ZM6.28906 48.207H153.998V22.6965C153.998 18.6319 150.712 15.3248 146.672 15.3248H13.6152C9.57573 15.3242 6.28906 18.6313 6.28906 22.6965V48.207Z" fill="#3A2C60"/>
<path d="M29.3327 40.9639H18.7652C16.7238 40.9639 15.0635 39.2933 15.0635 37.2391V26.6066C15.0635 24.5525 16.7238 22.8819 18.7652 22.8819H29.3321C31.3735 22.8819 33.0338 24.5532 33.0338 26.6066V37.2391C33.0345 39.2933 31.3735 40.9639 29.3327 40.9639ZM18.7652 25.4131C18.1112 25.4131 17.5791 25.9485 17.5791 26.6066V37.2391C17.5791 37.8973 18.1112 38.4326 18.7652 38.4326H29.3321C29.9862 38.4326 30.5182 37.8973 30.5182 37.2391V26.6066C30.5182 25.9485 29.9862 25.4131 29.3321 25.4131H18.7652Z" fill="#3A2C60"/>
<path d="M52.164 40.9639H41.5965C39.5551 40.9639 37.8948 39.2933 37.8948 37.2391V26.6066C37.8948 24.5525 39.5551 22.8819 41.5965 22.8819H52.164C54.2055 22.8819 55.8658 24.5532 55.8658 26.6066V37.2391C55.8658 39.2933 54.2048 40.9639 52.164 40.9639ZM41.5965 25.4131C40.9425 25.4131 40.4104 25.9485 40.4104 26.6066V37.2391C40.4104 37.8973 40.9425 38.4326 41.5965 38.4326H52.164C52.8181 38.4326 53.3501 37.8973 53.3501 37.2391V26.6066C53.3501 25.9485 52.8181 25.4131 52.164 25.4131H41.5965Z" fill="#3A2C60"/>
<path d="M129.154 94.7436V58.6411C129.154 56.1487 127.133 54.1282 124.641 54.1282L36.641 54.1282C34.1486 54.1282 32.1282 56.1487 32.1282 58.6411V94.7436C32.1282 97.236 34.1486 99.2564 36.641 99.2564H124.641C127.133 99.2564 129.154 97.236 129.154 94.7436Z" fill="#E0E0E0"/>
<path d="M124.641 100.385H36.641C35.1449 100.385 33.7101 99.7903 32.6522 98.7324C31.5943 97.6745 31 96.2397 31 94.7436V58.641C31 57.1449 31.5943 55.7101 32.6522 54.6522C33.7101 53.5943 35.1449 53 36.641 53H124.641C126.137 53 127.572 53.5943 128.63 54.6522C129.688 55.7101 130.282 57.1449 130.282 58.641V94.7436C130.282 96.2397 129.688 97.6745 128.63 98.7324C127.572 99.7903 126.137 100.385 124.641 100.385ZM36.641 55.2564C35.7434 55.2564 34.8825 55.613 34.2477 56.2477C33.613 56.8825 33.2564 57.7434 33.2564 58.641V94.7436C33.2564 95.6412 33.613 96.5021 34.2477 97.1369C34.8825 97.7716 35.7434 98.1282 36.641 98.1282H124.641C125.539 98.1282 126.4 97.7716 127.034 97.1369C127.669 96.5021 128.026 95.6412 128.026 94.7436V58.641C128.026 57.7434 127.669 56.8825 127.034 56.2477C126.4 55.613 125.539 55.2564 124.641 55.2564H36.641Z" fill="#3A2C60"/>
<path d="M59.205 74.4359C62.9436 74.4359 65.9743 71.4052 65.9743 67.6667C65.9743 63.9281 62.9436 60.8975 59.205 60.8975C55.4665 60.8975 52.4358 63.9281 52.4358 67.6667C52.4358 71.4052 55.4665 74.4359 59.205 74.4359Z" fill="#E0C8A4"/>
<path d="M59.2051 75.5641C57.6431 75.5641 56.1162 75.1009 54.8175 74.2331C53.5187 73.3654 52.5065 72.1319 51.9088 70.6889C51.311 69.2458 51.1546 67.6579 51.4594 66.1259C51.7641 64.594 52.5162 63.1868 53.6207 62.0823C54.7252 60.9779 56.1324 60.2257 57.6643 59.921C59.1963 59.6163 60.7842 59.7726 62.2273 60.3704C63.6703 60.9681 64.9038 61.9804 65.7715 63.2791C66.6393 64.5778 67.1025 66.1047 67.1025 67.6667C67.1025 69.7612 66.2704 71.7699 64.7894 73.251C63.3083 74.732 61.2996 75.5641 59.2051 75.5641ZM59.2051 62.0256C58.0894 62.0256 56.9987 62.3565 56.0711 62.9763C55.1434 63.5962 54.4204 64.4772 53.9934 65.5079C53.5665 66.5387 53.4548 67.6729 53.6724 68.7672C53.8901 69.8614 54.4273 70.8666 55.2162 71.6555C56.0052 72.4444 57.0103 72.9816 58.1045 73.1993C59.1988 73.417 60.333 73.3052 61.3638 72.8783C62.3945 72.4513 63.2756 71.7283 63.8954 70.8007C64.5152 69.873 64.8461 68.7824 64.8461 67.6667C64.8461 66.1706 64.2518 64.7358 63.1939 63.6779C62.136 62.62 60.7011 62.0256 59.2051 62.0256Z" fill="#3A2C60"/>
<path d="M54.6924 74.4359H63.718C66.1118 74.4359 68.4075 75.3868 70.1001 77.0795C71.7928 78.7721 72.7437 81.0678 72.7437 83.4616V92.4872H45.6667V83.4616C45.6667 81.0678 46.6177 78.7721 48.3103 77.0795C50.0029 75.3868 52.2986 74.4359 54.6924 74.4359Z" fill="#0079A8"/>
<path d="M72.7437 93.6154H45.6668C45.3676 93.6154 45.0806 93.4965 44.869 93.2849C44.6574 93.0733 44.5386 92.7864 44.5386 92.4872V83.4615C44.5416 80.7695 45.6123 78.1885 47.5159 76.285C49.4194 74.3814 52.0004 73.3107 54.6924 73.3077H63.7181C66.411 73.3077 68.9937 74.3775 70.8979 76.2817C72.8021 78.1859 73.8719 80.7686 73.8719 83.4615V92.4872C73.8719 92.7864 73.753 93.0733 73.5415 93.2849C73.3299 93.4965 73.0429 93.6154 72.7437 93.6154ZM46.795 91.359H71.6155V83.4615C71.6155 81.367 70.7834 79.3582 69.3024 77.8772C67.8213 76.3961 65.8126 75.5641 63.7181 75.5641H54.6924C52.5988 75.5671 50.5918 76.4001 49.1114 77.8805C47.631 79.3609 46.798 81.3679 46.795 83.4615V91.359Z" fill="#3A2C60"/>
<path d="M104.333 63.1539H84.0256V69.9231H104.333V63.1539Z" fill="#B7C0D7"/>
<path d="M104.333 71.0513H84.0257C83.7264 71.0513 83.4395 70.9324 83.2279 70.7208C83.0163 70.5092 82.8975 70.2223 82.8975 69.9231V63.1538C82.8975 62.8546 83.0163 62.5677 83.2279 62.3561C83.4395 62.1445 83.7264 62.0256 84.0257 62.0256H104.333C104.633 62.0256 104.92 62.1445 105.131 62.3561C105.343 62.5677 105.462 62.8546 105.462 63.1538V69.9231C105.462 70.2223 105.343 70.5092 105.131 70.7208C104.92 70.9324 104.633 71.0513 104.333 71.0513ZM85.1539 68.7949H103.205V64.282H85.1539V68.7949Z" fill="#3A2C60"/>
<path d="M115.615 77.8205H84.0257C83.7264 77.8205 83.4395 77.7016 83.2279 77.49C83.0163 77.2785 82.8975 76.9915 82.8975 76.6923C82.8975 76.3931 83.0163 76.1061 83.2279 75.8945C83.4395 75.683 83.7264 75.5641 84.0257 75.5641H115.615C115.915 75.5641 116.202 75.683 116.413 75.8945C116.625 76.1061 116.744 76.3931 116.744 76.6923C116.744 76.9915 116.625 77.2785 116.413 77.49C116.202 77.7016 115.915 77.8205 115.615 77.8205Z" fill="#3A2C60"/>
<path d="M115.615 84.5897H84.0257C83.7264 84.5897 83.4395 84.4709 83.2279 84.2593C83.0163 84.0477 82.8975 83.7607 82.8975 83.4615C82.8975 83.1623 83.0163 82.8753 83.2279 82.6638C83.4395 82.4522 83.7264 82.3333 84.0257 82.3333H115.615C115.915 82.3333 116.202 82.4522 116.413 82.6638C116.625 82.8753 116.744 83.1623 116.744 83.4615C116.744 83.7607 116.625 84.0477 116.413 84.2593C116.202 84.4709 115.915 84.5897 115.615 84.5897Z" fill="#3A2C60"/>
<path d="M115.615 91.3589H84.0257C83.7264 91.3589 83.4395 91.2401 83.2279 91.0285C83.0163 90.8169 82.8975 90.53 82.8975 90.2307C82.8975 89.9315 83.0163 89.6446 83.2279 89.433C83.4395 89.2214 83.7264 89.1025 84.0257 89.1025H115.615C115.915 89.1025 116.202 89.2214 116.413 89.433C116.625 89.6446 116.744 89.9315 116.744 90.2307C116.744 90.53 116.625 90.8169 116.413 91.0285C116.202 91.2401 115.915 91.3589 115.615 91.3589Z" fill="#3A2C60"/>
<path d="M80.6409 139.872C86.8718 139.872 91.923 134.821 91.923 128.59C91.923 122.359 86.8718 117.308 80.6409 117.308C74.41 117.308 69.3589 122.359 69.3589 128.59C69.3589 134.821 74.41 139.872 80.6409 139.872Z" fill="#F9AC2F"/>
<path d="M80.641 141C78.1865 141 75.7871 140.272 73.7462 138.908C71.7053 137.545 70.1147 135.607 69.1754 133.339C68.2361 131.071 67.9903 128.576 68.4692 126.169C68.948 123.761 70.13 121.55 71.8656 119.814C73.6012 118.079 75.8125 116.897 78.2199 116.418C80.6272 115.939 83.1225 116.185 85.3902 117.124C87.6579 118.063 89.5961 119.654 90.9597 121.695C92.3234 123.736 93.0512 126.135 93.0512 128.59C93.0471 131.88 91.7382 135.034 89.4117 137.36C87.0853 139.687 83.9311 140.996 80.641 141ZM80.641 118.436C78.6327 118.436 76.6696 119.031 74.9998 120.147C73.33 121.263 72.0286 122.849 71.26 124.704C70.4915 126.559 70.2904 128.601 70.6822 130.571C71.074 132.54 72.0411 134.35 73.4611 135.77C74.8812 137.19 76.6904 138.157 78.6601 138.548C80.6297 138.94 82.6713 138.739 84.5267 137.971C86.3821 137.202 87.9679 135.901 89.0836 134.231C90.1993 132.561 90.7948 130.598 90.7948 128.59C90.7918 125.898 89.7211 123.317 87.8175 121.413C85.914 119.51 83.333 118.439 80.641 118.436Z" fill="#3A2C60"/>
<path d="M81.7692 134.231H77.2564C76.9572 134.231 76.6702 134.112 76.4586 133.9C76.247 133.689 76.1282 133.402 76.1282 133.103C76.1282 132.803 76.247 132.516 76.4586 132.305C76.6702 132.093 76.9572 131.974 77.2564 131.974H81.7692C82.0684 131.974 82.3554 131.856 82.567 131.644C82.7785 131.432 82.8974 131.145 82.8974 130.846C82.8974 130.547 82.7785 130.26 82.567 130.048C82.3554 129.837 82.0684 129.718 81.7692 129.718H79.5128C79.0683 129.718 78.6282 129.63 78.2176 129.46C77.8069 129.29 77.4338 129.041 77.1195 128.727C76.8052 128.412 76.5559 128.039 76.3858 127.629C76.2157 127.218 76.1282 126.778 76.1282 126.333C76.1282 125.889 76.2157 125.449 76.3858 125.038C76.5559 124.627 76.8052 124.254 77.1195 123.94C77.4338 123.626 77.8069 123.376 78.2176 123.206C78.6282 123.036 79.0683 122.949 79.5128 122.949H84.0256C84.3248 122.949 84.6118 123.068 84.8234 123.279C85.035 123.491 85.1538 123.778 85.1538 124.077C85.1538 124.376 85.035 124.663 84.8234 124.875C84.6118 125.086 84.3248 125.205 84.0256 125.205H79.5128C79.2136 125.205 78.9266 125.324 78.715 125.536C78.5035 125.747 78.3846 126.034 78.3846 126.333C78.3846 126.633 78.5035 126.92 78.715 127.131C78.9266 127.343 79.2136 127.462 79.5128 127.462H81.7692C82.6669 127.462 83.5277 127.818 84.1625 128.453C84.7972 129.088 85.1538 129.949 85.1538 130.846C85.1538 131.744 84.7972 132.605 84.1625 133.239C83.5277 133.874 82.6669 134.231 81.7692 134.231Z" fill="#3A2C60"/>
<path d="M80.6409 125.205C80.3417 125.205 80.0547 125.086 79.8431 124.875C79.6316 124.663 79.5127 124.376 79.5127 124.077V121.82C79.5127 121.521 79.6316 121.234 79.8431 121.023C80.0547 120.811 80.3417 120.692 80.6409 120.692C80.9401 120.692 81.2271 120.811 81.4387 121.023C81.6502 121.234 81.7691 121.521 81.7691 121.82V124.077C81.7691 124.376 81.6502 124.663 81.4387 124.875C81.2271 125.086 80.9401 125.205 80.6409 125.205Z" fill="#3A2C60"/>
<path d="M80.6409 136.487C80.3417 136.487 80.0547 136.368 79.8431 136.157C79.6316 135.945 79.5127 135.658 79.5127 135.359V133.103C79.5127 132.803 79.6316 132.516 79.8431 132.305C80.0547 132.093 80.3417 131.974 80.6409 131.974C80.9401 131.974 81.2271 132.093 81.4387 132.305C81.6502 132.516 81.7691 132.803 81.7691 133.103V135.359C81.7691 135.658 81.6502 135.945 81.4387 136.157C81.2271 136.368 80.9401 136.487 80.6409 136.487Z" fill="#3A2C60"/>
<path d="M59.2052 139.872H36.6411L47.9232 117.308L59.2052 139.872Z" fill="#D32E5E"/>
<path d="M59.2051 141H36.641C36.4489 141 36.26 140.951 36.0923 140.857C35.9246 140.763 35.7835 140.628 35.6825 140.465C35.5815 140.302 35.5239 140.115 35.5151 139.923C35.5063 139.731 35.5467 139.54 35.6323 139.369L46.9144 116.804C47.0191 116.63 47.1671 116.486 47.344 116.386C47.521 116.286 47.7208 116.233 47.9241 116.233C48.1274 116.233 48.3273 116.286 48.5042 116.386C48.6812 116.486 48.8292 116.63 48.9339 116.804L60.2159 139.369C60.3017 139.541 60.342 139.732 60.3331 139.924C60.3243 140.116 60.2664 140.303 60.1652 140.466C60.0639 140.629 59.9225 140.764 59.7545 140.858C59.5865 140.951 59.3973 141 59.2051 141ZM38.4664 138.744H57.3796L47.923 119.83L38.4664 138.744Z" fill="#3A2C60"/>
<path d="M55.8205 134.231H40.0257C39.7264 134.231 39.4395 134.112 39.2279 133.9C39.0163 133.689 38.8975 133.402 38.8975 133.103C38.8975 132.803 39.0163 132.516 39.2279 132.305C39.4395 132.093 39.7264 131.974 40.0257 131.974H55.8205C56.1198 131.974 56.4067 132.093 56.6183 132.305C56.8299 132.516 56.9487 132.803 56.9487 133.103C56.9487 133.402 56.8299 133.689 56.6183 133.9C56.4067 134.112 56.1198 134.231 55.8205 134.231Z" fill="#3A2C60"/>
<path d="M52.4358 127.461H43.4102C43.111 127.461 42.824 127.343 42.6124 127.131C42.4008 126.919 42.282 126.633 42.282 126.333C42.282 126.034 42.4008 125.747 42.6124 125.536C42.824 125.324 43.111 125.205 43.4102 125.205H52.4358C52.735 125.205 53.022 125.324 53.2336 125.536C53.4452 125.747 53.564 126.034 53.564 126.333C53.564 126.633 53.4452 126.919 53.2336 127.131C53.022 127.343 52.735 127.461 52.4358 127.461Z" fill="#3A2C60"/>
<path d="M102.077 119.564V133.103C102.077 133.701 102.315 134.275 102.738 134.698C103.161 135.121 103.735 135.359 104.333 135.359H108.846V139.872L115.615 135.359H122.385C122.983 135.359 123.557 135.121 123.98 134.698C124.403 134.275 124.641 133.701 124.641 133.103V119.564C124.641 118.966 124.403 118.392 123.98 117.969C123.557 117.545 122.983 117.308 122.385 117.308H104.333C103.735 117.308 103.161 117.545 102.738 117.969C102.315 118.392 102.077 118.966 102.077 119.564Z" fill="#BED38E"/>
<path d="M108.846 141C108.66 141 108.477 140.954 108.314 140.867C108.134 140.77 107.983 140.627 107.878 140.452C107.773 140.276 107.718 140.076 107.718 139.872V136.487H104.333C103.436 136.487 102.575 136.131 101.94 135.496C101.305 134.861 100.949 134 100.949 133.103V119.564C100.949 118.666 101.305 117.806 101.94 117.171C102.575 116.536 103.436 116.179 104.333 116.179H122.385C123.282 116.179 124.143 116.536 124.778 117.171C125.413 117.806 125.769 118.666 125.769 119.564V133.103C125.769 134 125.413 134.861 124.778 135.496C124.143 136.131 123.282 136.487 122.385 136.487H115.958L109.473 140.81C109.288 140.934 109.069 141 108.846 141ZM104.333 118.436C104.034 118.436 103.747 118.555 103.536 118.766C103.324 118.978 103.205 119.265 103.205 119.564V133.103C103.205 133.402 103.324 133.689 103.536 133.9C103.747 134.112 104.034 134.231 104.333 134.231H108.846C109.145 134.231 109.432 134.35 109.644 134.561C109.856 134.773 109.974 135.06 109.974 135.359V137.764L114.99 134.42C115.175 134.297 115.393 134.231 115.615 134.231H122.385C122.684 134.231 122.971 134.112 123.182 133.9C123.394 133.689 123.513 133.402 123.513 133.103V119.564C123.513 119.265 123.394 118.978 123.182 118.766C122.971 118.555 122.684 118.436 122.385 118.436H104.333Z" fill="#3A2C60"/>
<path d="M80.6409 118.436C80.3417 118.436 80.0547 118.317 79.8431 118.105C79.6316 117.894 79.5127 117.607 79.5127 117.308V99.2564C79.5127 98.9572 79.6316 98.6702 79.8431 98.4586C80.0547 98.247 80.3417 98.1282 80.6409 98.1282C80.9401 98.1282 81.2271 98.247 81.4387 98.4586C81.6502 98.6702 81.7691 98.9572 81.7691 99.2564V117.308C81.7691 117.607 81.6502 117.894 81.4387 118.105C81.2271 118.317 80.9401 118.436 80.6409 118.436Z" fill="#3A2C60"/>
<path d="M113.359 118.436C113.06 118.436 112.773 118.317 112.561 118.105C112.35 117.894 112.231 117.607 112.231 117.308V109.41H49.0513V117.308C49.0513 117.607 48.9325 117.894 48.7209 118.105C48.5093 118.317 48.2223 118.436 47.9231 118.436C47.6239 118.436 47.3369 118.317 47.1254 118.105C46.9138 117.894 46.7949 117.607 46.7949 117.308V108.282C46.7949 107.983 46.9138 107.696 47.1254 107.484C47.3369 107.273 47.6239 107.154 47.9231 107.154H113.359C113.658 107.154 113.945 107.273 114.157 107.484C114.368 107.696 114.487 107.983 114.487 108.282V117.308C114.487 117.607 114.368 117.894 114.157 118.105C113.945 118.317 113.658 118.436 113.359 118.436Z" fill="#3A2C60"/>
</svg>
