<svg width="162" height="162" viewBox="0 0 162 162" fill="none" xmlns="http://www.w3.org/2000/svg">
<path d="M145.697 29.7295V142.976C145.697 144.341 145.155 145.65 144.189 146.615C143.224 147.581 141.915 148.123 140.549 148.123H14.4344C13.0692 148.123 11.7599 147.581 10.7946 146.615C9.82921 145.65 9.28688 144.341 9.28688 142.976V29.7295L145.697 29.7295Z" fill="#C2C2C2"/>
<path d="M140.549 149.41H14.4344C12.7279 149.41 11.0913 148.732 9.8846 147.525C8.67791 146.319 8 144.682 8 142.976V29.7295C8 29.3882 8.13558 29.0609 8.37692 28.8195C8.61826 28.5782 8.94558 28.4426 9.28689 28.4426H145.697C146.038 28.4426 146.366 28.5782 146.607 28.8195C146.848 29.0609 146.984 29.3882 146.984 29.7295V142.976C146.984 144.682 146.306 146.319 145.099 147.525C143.892 148.732 142.256 149.41 140.549 149.41V149.41ZM10.5738 31.0164V142.976C10.5738 143.999 10.9805 144.981 11.7045 145.705C12.4285 146.429 13.4105 146.836 14.4344 146.836H140.549C141.573 146.836 142.555 146.429 143.279 145.705C144.003 144.981 144.41 143.999 144.41 142.976V31.0164H10.5738Z" fill="#3A2C60"/>
<path d="M153.418 29.7295V142.976C153.418 144.341 152.876 145.65 151.911 146.615C150.945 147.581 149.636 148.123 148.271 148.123H22.1558C20.7905 148.123 19.4812 147.581 18.5159 146.615C17.5505 145.65 17.0082 144.341 17.0082 142.976V29.7295L153.418 29.7295Z" fill="#E0E0E0"/>
<path d="M148.271 149.41H22.1558C20.4492 149.41 18.8126 148.732 17.6059 147.525C16.3992 146.319 15.7213 144.682 15.7213 142.976V29.7295C15.7213 29.3882 15.8569 29.0609 16.0982 28.8195C16.3396 28.5782 16.6669 28.4426 17.0082 28.4426H153.418C153.76 28.4426 154.087 28.5782 154.328 28.8195C154.57 29.0609 154.705 29.3882 154.705 29.7295V142.976C154.705 144.682 154.027 146.319 152.82 147.525C151.614 148.732 149.977 149.41 148.271 149.41V149.41ZM18.2951 31.0164V142.976C18.2951 143.999 18.7018 144.981 19.4259 145.705C20.1499 146.429 21.1318 146.836 22.1558 146.836H148.271C149.295 146.836 150.277 146.429 151.001 145.705C151.725 144.981 152.131 143.999 152.131 142.976V31.0164H18.2951Z" fill="#3A2C60"/>
<path d="M53.041 29.7295H17.0082V148.123H53.041V29.7295Z" fill="#4671C6"/>
<path d="M53.041 149.41H17.0082C16.6669 149.41 16.3396 149.274 16.0982 149.033C15.8569 148.792 15.7213 148.464 15.7213 148.123V29.7295C15.7213 29.3882 15.8569 29.0609 16.0982 28.8195C16.3396 28.5782 16.6669 28.4426 17.0082 28.4426H53.041C53.3823 28.4426 53.7097 28.5782 53.951 28.8195C54.1923 29.0609 54.3279 29.3882 54.3279 29.7295V148.123C54.3279 148.464 54.1923 148.792 53.951 149.033C53.7097 149.274 53.3823 149.41 53.041 149.41ZM18.2951 146.836H51.7542V31.0164H18.2951V146.836Z" fill="#3A2C60"/>
<path d="M14.4344 14.2869H140.549C141.915 14.2869 143.224 14.8292 144.189 15.7946C145.155 16.7599 145.697 18.0692 145.697 19.4344V29.7295H9.28689V19.4344C9.28689 18.0692 9.82922 16.7599 10.7946 15.7946C11.7599 14.8292 13.0692 14.2869 14.4344 14.2869V14.2869Z" fill="#C2C2C2"/>
<path d="M145.697 31.0164H9.28689C8.94558 31.0164 8.61826 30.8808 8.37692 30.6395C8.13558 30.3982 8 30.0708 8 29.7295V19.4344C8 17.7279 8.67791 16.0913 9.8846 14.8846C11.0913 13.6779 12.7279 13 14.4344 13H140.549C142.256 13 143.892 13.6779 145.099 14.8846C146.306 16.0913 146.984 17.7279 146.984 19.4344V29.7295C146.984 30.0708 146.848 30.3982 146.607 30.6395C146.366 30.8808 146.038 31.0164 145.697 31.0164ZM10.5738 28.4426H144.41V19.4344C144.41 18.4105 144.003 17.4285 143.279 16.7045C142.555 15.9805 141.573 15.5738 140.549 15.5738H14.4344C13.4105 15.5738 12.4285 15.9805 11.7045 16.7045C10.9805 17.4285 10.5738 18.4105 10.5738 19.4344V28.4426Z" fill="#3A2C60"/>
<path d="M148.271 144.262C147.929 144.262 147.602 144.127 147.361 143.886C147.119 143.644 146.984 143.317 146.984 142.976V34.8771C146.984 34.5358 147.119 34.2084 147.361 33.9671C147.602 33.7258 147.929 33.5902 148.271 33.5902C148.612 33.5902 148.939 33.7258 149.181 33.9671C149.422 34.2084 149.558 34.5358 149.558 34.8771V142.976C149.558 143.317 149.422 143.644 149.181 143.886C148.939 144.127 148.612 144.262 148.271 144.262Z" fill="#C2C2C2"/>
<path d="M22.1558 14.2869H148.271C149.636 14.2869 150.945 14.8292 151.911 15.7946C152.876 16.7599 153.418 18.0692 153.418 19.4344V29.7295H17.0082V19.4344C17.0082 18.0692 17.5505 16.7599 18.5159 15.7946C19.4812 14.8292 20.7905 14.2869 22.1558 14.2869Z" fill="#E0E0E0"/>
<path d="M153.418 31.0164H17.0082C16.6669 31.0164 16.3396 30.8808 16.0982 30.6395C15.8569 30.3982 15.7213 30.0708 15.7213 29.7295V19.4344C15.7213 17.7279 16.3992 16.0913 17.6059 14.8846C18.8126 13.6779 20.4492 13 22.1558 13H148.271C149.977 13 151.614 13.6779 152.82 14.8846C154.027 16.0913 154.705 17.7279 154.705 19.4344V29.7295C154.705 30.0708 154.57 30.3982 154.328 30.6395C154.087 30.8808 153.76 31.0164 153.418 31.0164ZM18.2951 28.4426H152.131V19.4344C152.131 18.4105 151.725 17.4285 151.001 16.7045C150.277 15.9805 149.295 15.5738 148.271 15.5738H22.1558C21.1318 15.5738 20.1499 15.9805 19.4259 16.7045C18.7018 17.4285 18.2951 18.4105 18.2951 19.4344V28.4426Z" fill="#3A2C60"/>
<path d="M132.828 23.2951H127.68C127.339 23.2951 127.012 23.1595 126.771 22.9182C126.529 22.6768 126.394 22.3495 126.394 22.0082C126.394 21.6669 126.529 21.3396 126.771 21.0982C127.012 20.8569 127.339 20.7213 127.68 20.7213H132.828C133.169 20.7213 133.497 20.8569 133.738 21.0982C133.979 21.3396 134.115 21.6669 134.115 22.0082C134.115 22.3495 133.979 22.6768 133.738 22.9182C133.497 23.1595 133.169 23.2951 132.828 23.2951Z" fill="#3A2C60"/>
<path d="M145.697 25.8689C145.528 25.8692 145.36 25.8362 145.204 25.7717C145.048 25.7072 144.906 25.6125 144.786 25.4931L139.638 20.3456C139.397 20.1039 139.261 19.7762 139.261 19.4344C139.261 19.0927 139.397 18.765 139.638 18.5233C139.88 18.2817 140.208 18.1459 140.549 18.1459C140.891 18.1459 141.219 18.2817 141.46 18.5233L146.608 23.6709C146.788 23.8509 146.911 24.0804 146.961 24.3303C147.011 24.5802 146.986 24.8393 146.888 25.0748C146.79 25.3102 146.625 25.5114 146.413 25.6527C146.201 25.7941 145.952 25.8693 145.697 25.8689V25.8689Z" fill="#3A2C60"/>
<path d="M140.549 25.8689C140.294 25.8693 140.045 25.7941 139.833 25.6527C139.621 25.5114 139.456 25.3102 139.358 25.0748C139.261 24.8393 139.235 24.5802 139.285 24.3303C139.335 24.0804 139.458 23.8509 139.638 23.6709L144.786 18.5233C145.027 18.2817 145.355 18.1459 145.697 18.1459C146.039 18.1459 146.366 18.2817 146.608 18.5233C146.85 18.765 146.985 19.0927 146.985 19.4344C146.985 19.7762 146.85 20.1039 146.608 20.3456L141.46 25.4931C141.341 25.6125 141.199 25.7072 141.042 25.7717C140.886 25.8362 140.718 25.8692 140.549 25.8689Z" fill="#3A2C60"/>
<path d="M119.959 74.7706H63.3361C62.9948 74.7706 62.6675 74.635 62.4262 74.3937C62.1848 74.1523 62.0492 73.825 62.0492 73.4837V42.5984C62.0492 42.2571 62.1848 41.9298 62.4262 41.6884C62.6675 41.4471 62.9948 41.3115 63.3361 41.3115C63.6774 41.3115 64.0048 41.4471 64.2461 41.6884C64.4874 41.9298 64.623 42.2571 64.623 42.5984V72.1968H119.959C120.3 72.1968 120.628 72.3324 120.869 72.5737C121.11 72.8151 121.246 73.1424 121.246 73.4837C121.246 73.825 121.11 74.1523 120.869 74.3937C120.628 74.635 120.3 74.7706 119.959 74.7706Z" fill="#3A2C60"/>
<path d="M63.3361 73.4837L83.9263 55.4673L94.2214 63.1886L114.812 42.5984V73.4837H63.3361Z" fill="#6BDDDD"/>
<path d="M114.812 74.7706H63.3361C63.0745 74.7703 62.8192 74.6902 62.6043 74.5412C62.3893 74.3921 62.2249 74.181 62.1329 73.9361C62.0409 73.6912 62.0258 73.4241 62.0894 73.1704C62.1531 72.9167 62.2926 72.6884 62.4894 72.5159L83.0796 54.4995C83.3015 54.3053 83.5834 54.1932 83.8781 54.1819C84.1728 54.1707 84.4624 54.261 84.6984 54.4378L94.1004 61.4899L113.9 41.6873C114.08 41.5068 114.31 41.3839 114.56 41.3341C114.81 41.2842 115.069 41.3097 115.304 41.4073C115.54 41.5049 115.741 41.6702 115.882 41.8822C116.024 42.0943 116.099 42.3435 116.098 42.5984V73.4837C116.098 73.825 115.963 74.1523 115.722 74.3936C115.48 74.635 115.153 74.7706 114.812 74.7706ZM66.7618 72.1968H113.525V45.7049L95.1325 64.0997C94.9133 64.3189 94.6223 64.4515 94.313 64.4733C94.0038 64.495 93.6971 64.4044 93.4493 64.2181L83.9881 57.1248L66.7618 72.1968Z" fill="#3A2C60"/>
<path d="M84.6135 124.959H64.0233V132.68H84.6135V124.959Z" fill="#B7C0D7"/>
<path d="M84.6135 133.967H64.0233C63.682 133.967 63.3547 133.832 63.1134 133.59C62.872 133.349 62.7365 133.022 62.7365 132.68V124.959C62.7365 124.618 62.872 124.291 63.1134 124.049C63.3547 123.808 63.682 123.672 64.0233 123.672H84.6135C84.9548 123.672 85.2822 123.808 85.5235 124.049C85.7648 124.291 85.9004 124.618 85.9004 124.959V132.68C85.9004 133.022 85.7648 133.349 85.5235 133.59C85.2822 133.832 84.9548 133.967 84.6135 133.967ZM65.3102 131.394H83.3266V126.246H65.3102V131.394Z" fill="#3A2C60"/>
<path d="M112.925 124.959H92.3348V132.68H112.925V124.959Z" fill="#B7C0D7"/>
<path d="M112.925 133.967H92.3348C91.9935 133.967 91.6662 133.832 91.4249 133.59C91.1835 133.349 91.0479 133.022 91.0479 132.68V124.959C91.0479 124.618 91.1835 124.291 91.4249 124.049C91.6662 123.808 91.9935 123.672 92.3348 123.672H112.925C113.266 123.672 113.594 123.808 113.835 124.049C114.076 124.291 114.212 124.618 114.212 124.959V132.68C114.212 133.022 114.076 133.349 113.835 133.59C113.594 133.832 113.266 133.967 112.925 133.967ZM93.6217 131.394H111.638V126.246H93.6217V131.394Z" fill="#3A2C60"/>
<path d="M141.237 124.959H120.646V132.68H141.237V124.959Z" fill="#B7C0D7"/>
<path d="M141.237 133.967H120.646C120.305 133.967 119.978 133.832 119.736 133.59C119.495 133.349 119.359 133.022 119.359 132.68V124.959C119.359 124.618 119.495 124.291 119.736 124.049C119.978 123.808 120.305 123.672 120.646 123.672H141.237C141.578 123.672 141.905 123.808 142.147 124.049C142.388 124.291 142.523 124.618 142.523 124.959V132.68C142.523 133.022 142.388 133.349 142.147 133.59C141.905 133.832 141.578 133.967 141.237 133.967ZM121.933 131.394H139.95V126.246H121.933V131.394Z" fill="#3A2C60"/>
<path d="M73.6312 86.3525C71.086 86.3525 68.5979 87.1073 66.4817 88.5213C64.3654 89.9354 62.716 91.9452 61.7419 94.2967C60.7679 96.6482 60.5131 99.2357 61.0096 101.732C61.5062 104.228 62.7318 106.521 64.5316 108.321C66.3313 110.121 68.6243 111.346 71.1206 111.843C73.617 112.34 76.2045 112.085 78.5559 111.111C80.9074 110.137 82.9173 108.487 84.3313 106.371C85.7454 104.255 86.5001 101.767 86.5001 99.2214C86.5001 95.8084 85.1443 92.5351 82.7309 90.1217C80.3175 87.7084 77.0443 86.3525 73.6312 86.3525V86.3525ZM73.6312 104.369C72.6131 104.369 71.6179 104.067 70.7714 103.501C69.9249 102.936 69.2651 102.132 68.8755 101.191C68.4859 100.251 68.384 99.2157 68.5826 98.2172C68.7812 97.2186 69.2715 96.3014 69.9914 95.5815C70.7113 94.8616 71.6285 94.3714 72.627 94.1728C73.6255 93.9741 74.6605 94.0761 75.6011 94.4657C76.5417 94.8553 77.3456 95.5151 77.9113 96.3616C78.4769 97.2081 78.7788 98.2033 78.7788 99.2214C78.7788 100.587 78.2364 101.896 77.2711 102.861C76.3057 103.827 74.9964 104.369 73.6312 104.369Z" fill="#B7C0D7"/>
<path d="M73.6312 113.377C70.8315 113.377 68.0946 112.547 65.7667 110.992C63.4388 109.436 61.6244 107.225 60.553 104.639C59.4816 102.052 59.2013 99.2057 59.7475 96.4598C60.2937 93.7138 61.6419 91.1915 63.6216 89.2118C65.6013 87.2321 68.1236 85.8839 70.8696 85.3377C73.6155 84.7915 76.4618 85.0718 79.0484 86.1432C81.635 87.2146 83.8458 89.029 85.4013 91.3569C86.9568 93.6848 87.787 96.4217 87.787 99.2214C87.7822 102.974 86.2893 106.572 83.6356 109.226C80.9819 111.879 77.3841 113.372 73.6312 113.377ZM73.6312 87.6395C71.3405 87.6395 69.1013 88.3187 67.1966 89.5914C65.292 90.864 63.8075 92.6729 62.9309 94.7892C62.0543 96.9055 61.8249 99.2343 62.2718 101.481C62.7187 103.728 63.8218 105.791 65.4415 107.411C67.0613 109.031 69.125 110.134 71.3717 110.581C73.6184 111.028 75.9471 110.798 78.0635 109.922C80.1798 109.045 81.9886 107.561 83.2613 105.656C84.5339 103.751 85.2132 101.512 85.2132 99.2214C85.2098 96.1507 83.9885 93.2068 81.8172 91.0355C79.6459 88.8642 76.7019 87.6429 73.6312 87.6395ZM73.6312 105.656C72.3586 105.656 71.1146 105.278 70.0564 104.571C68.9983 103.864 68.1736 102.86 67.6866 101.684C67.1996 100.508 67.0722 99.2143 67.3204 97.9661C67.5687 96.718 68.1815 95.5715 69.0814 94.6716C69.9813 93.7717 71.1278 93.1589 72.3759 92.9106C73.6241 92.6624 74.9178 92.7898 76.0936 93.2768C77.2693 93.7638 78.2742 94.5885 78.9813 95.6466C79.6883 96.7048 80.0657 97.9488 80.0657 99.2214C80.0657 100.928 79.3877 102.565 78.1811 103.771C76.9744 104.978 75.3377 105.656 73.6312 105.656V105.656ZM73.6312 95.3608C72.8677 95.3608 72.1212 95.5872 71.4864 96.0114C70.8515 96.4356 70.3566 97.0386 70.0644 97.744C69.7722 98.4495 69.6958 99.2257 69.8447 99.9746C69.9937 100.724 70.3614 101.411 70.9013 101.951C71.4413 102.491 72.1292 102.859 72.878 103.008C73.6269 103.157 74.4032 103.08 75.1086 102.788C75.8141 102.496 76.417 102.001 76.8412 101.366C77.2655 100.731 77.4919 99.985 77.4919 99.2214C77.4919 98.1975 77.0851 97.2155 76.3611 96.4915C75.6371 95.7675 74.6551 95.3608 73.6312 95.3608Z" fill="#3A2C60"/>
<path d="M107.09 86.3525C104.545 86.3525 102.057 87.1073 99.9407 88.5213C97.8244 89.9354 96.175 91.9452 95.201 94.2967C94.227 96.6482 93.9721 99.2357 94.4687 101.732C94.9652 104.228 96.1909 106.521 97.9906 108.321C99.7904 110.121 102.083 111.346 104.58 111.843C107.076 112.34 109.664 112.085 112.015 111.111C114.366 110.137 116.376 108.487 117.79 106.371C119.204 104.255 119.959 101.767 119.959 99.2214C119.959 95.8084 118.603 92.5351 116.19 90.1217C113.777 87.7084 110.503 86.3525 107.09 86.3525ZM107.09 104.369C106.072 104.369 105.077 104.067 104.23 103.501C103.384 102.936 102.724 102.132 102.335 101.191C101.945 100.251 101.843 99.2157 102.042 98.2172C102.24 97.2186 102.731 96.3014 103.45 95.5815C104.17 94.8616 105.088 94.3714 106.086 94.1728C107.085 93.9741 108.12 94.0761 109.06 94.4657C110.001 94.8553 110.805 95.5151 111.37 96.3616C111.936 97.2081 112.238 98.2033 112.238 99.2214C112.238 100.587 111.696 101.896 110.73 102.861C109.765 103.827 108.455 104.369 107.09 104.369Z" fill="#B7C0D7"/>
<path d="M107.09 113.377C104.291 113.377 101.554 112.547 99.2258 110.992C96.8979 109.436 95.0835 107.225 94.0121 104.639C92.9407 102.052 92.6603 99.2057 93.2065 96.4598C93.7527 93.7138 95.1009 91.1915 97.0807 89.2118C99.0604 87.2321 101.583 85.8839 104.329 85.3377C107.075 84.7915 109.921 85.0718 112.507 86.1432C115.094 87.2146 117.305 89.029 118.86 91.3569C120.416 93.6848 121.246 96.4217 121.246 99.2214C121.241 102.974 119.748 106.572 117.095 109.226C114.441 111.879 110.843 113.372 107.09 113.377ZM107.09 87.6395C104.8 87.6395 102.56 88.3187 100.656 89.5914C98.751 90.864 97.2665 92.6729 96.3899 94.7892C95.5133 96.9055 95.284 99.2343 95.7308 101.481C96.1777 103.728 97.2808 105.791 98.9006 107.411C100.52 109.031 102.584 110.134 104.831 110.581C107.077 111.028 109.406 110.798 111.523 109.922C113.639 109.045 115.448 107.561 116.72 105.656C117.993 103.751 118.672 101.512 118.672 99.2214C118.669 96.1507 117.448 93.2068 115.276 91.0355C113.105 88.8642 110.161 87.6429 107.09 87.6395ZM107.09 105.656C105.818 105.656 104.574 105.278 103.515 104.571C102.457 103.864 101.633 102.86 101.146 101.684C100.659 100.508 100.531 99.2143 100.779 97.9661C101.028 96.718 101.641 95.5715 102.54 94.6716C103.44 93.7717 104.587 93.1589 105.835 92.9106C107.083 92.6624 108.377 92.7898 109.553 93.2768C110.728 93.7638 111.733 94.5885 112.44 95.6466C113.147 96.7048 113.525 97.9488 113.525 99.2214C113.525 100.928 112.847 102.565 111.64 103.771C110.433 104.978 108.797 105.656 107.09 105.656ZM107.09 95.3608C106.327 95.3608 105.58 95.5872 104.945 96.0114C104.311 96.4356 103.816 97.0386 103.523 97.744C103.231 98.4495 103.155 99.2257 103.304 99.9746C103.453 100.724 103.82 101.411 104.36 101.951C104.9 102.491 105.588 102.859 106.337 103.008C107.086 103.157 107.862 103.08 108.568 102.788C109.273 102.496 109.876 102.001 110.3 101.366C110.725 100.731 110.951 99.985 110.951 99.2214C110.951 98.1975 110.544 97.2155 109.82 96.4915C109.096 95.7675 108.114 95.3608 107.09 95.3608Z" fill="#3A2C60"/>
<path d="M73.6312 86.3525V94.0739C74.9964 94.0739 76.3057 94.6162 77.2711 95.5815C78.2364 96.5469 78.7788 97.8562 78.7788 99.2214H86.5001C86.5001 95.8084 85.1443 92.5351 82.7309 90.1217C80.3175 87.7084 77.0443 86.3525 73.6312 86.3525V86.3525Z" fill="#FA759E"/>
<path d="M86.5001 100.508H78.7788C78.4375 100.508 78.1101 100.373 77.8688 100.131C77.6275 99.8901 77.4919 99.5627 77.4919 99.2214C77.4919 98.1975 77.0851 97.2155 76.3611 96.4915C75.6371 95.7675 74.6551 95.3608 73.6312 95.3608C73.2899 95.3608 72.9626 95.2252 72.7212 94.9838C72.4799 94.7425 72.3443 94.4152 72.3443 94.0739V86.3526C72.3443 86.0113 72.4799 85.6839 72.7212 85.4426C72.9626 85.2013 73.2899 85.0657 73.6312 85.0657C77.3841 85.0704 80.9819 86.5634 83.6356 89.2171C86.2893 91.8707 87.7822 95.4686 87.787 99.2214C87.787 99.5627 87.6514 99.8901 87.4101 100.131C87.1687 100.373 86.8414 100.508 86.5001 100.508ZM79.937 97.9345H85.1437C84.8472 95.3247 83.6746 92.8926 81.8173 91.0353C79.9601 89.178 77.5279 88.0054 74.9181 87.7089V92.9157C76.1535 93.1704 77.2873 93.7814 78.1793 94.6734C79.0712 95.5653 79.6823 96.6991 79.937 97.9345V97.9345Z" fill="#3A2C60"/>
<path d="M112.238 99.2214C112.238 100.239 111.936 101.234 111.37 102.081C110.804 102.927 110 103.587 109.06 103.976C108.12 104.366 107.085 104.468 106.086 104.269C105.088 104.07 104.171 103.58 103.451 102.861L97.9894 108.322C99.4859 109.818 101.328 110.922 103.353 111.536C105.378 112.151 107.524 112.256 109.599 111.843C111.675 111.43 113.616 110.512 115.252 109.169C116.888 107.827 118.167 106.101 118.977 104.146C119.787 102.191 120.102 100.067 119.895 97.9609C119.688 95.8549 118.964 93.8326 117.789 92.073C116.613 90.3134 115.022 88.8708 113.156 87.873C111.29 86.8752 109.206 86.3529 107.09 86.3525V94.0739C108.455 94.0739 109.765 94.6162 110.73 95.5815C111.695 96.5469 112.238 97.8562 112.238 99.2214Z" fill="#0089EF"/>
<path d="M107.09 113.377C105.231 113.383 103.388 113.019 101.67 112.307C99.9517 111.596 98.3919 110.55 97.0809 109.231C96.8396 108.99 96.7041 108.662 96.7041 108.321C96.7041 107.98 96.8396 107.652 97.0809 107.411L102.54 101.952C102.659 101.832 102.801 101.737 102.958 101.672C103.114 101.607 103.282 101.574 103.451 101.574V101.574C103.62 101.574 103.788 101.607 103.944 101.672C104.101 101.737 104.243 101.832 104.362 101.952C104.811 102.401 105.364 102.732 105.972 102.916C106.579 103.1 107.223 103.132 107.845 103.008C108.468 102.884 109.05 102.608 109.541 102.205C110.032 101.802 110.415 101.284 110.658 100.698C110.901 100.111 110.995 99.4738 110.933 98.842C110.871 98.2102 110.653 97.6036 110.301 97.0758C109.948 96.548 109.47 96.1154 108.91 95.8162C108.35 95.5171 107.725 95.3606 107.09 95.3608C106.749 95.3608 106.422 95.2252 106.18 94.9838C105.939 94.7425 105.803 94.4152 105.803 94.0739V86.3526C105.803 86.0113 105.939 85.6839 106.18 85.4426C106.422 85.2013 106.749 85.0657 107.09 85.0657C110.845 85.0657 114.445 86.5571 117.1 89.2118C119.755 91.8665 121.246 95.4671 121.246 99.2214C121.246 102.976 119.755 106.576 117.1 109.231C114.445 111.886 110.845 113.377 107.09 113.377V113.377ZM99.8606 108.271C101.264 109.391 102.908 110.169 104.663 110.545C106.419 110.92 108.238 110.882 109.976 110.434C111.715 109.986 113.325 109.14 114.681 107.963C116.036 106.786 117.099 105.309 117.786 103.651C118.473 101.992 118.765 100.197 118.639 98.4057C118.513 96.6149 117.972 94.8779 117.06 93.3318C116.147 91.7858 114.888 90.473 113.381 89.4972C111.874 88.5213 110.161 87.9091 108.377 87.7089V92.9157C109.306 93.1063 110.181 93.4999 110.94 94.0682C111.699 94.6364 112.323 95.3654 112.767 96.203C113.212 97.0405 113.465 97.9659 113.51 98.9129C113.556 99.8599 113.391 100.805 113.028 101.681C112.665 102.557 112.113 103.342 111.412 103.98C110.71 104.618 109.876 105.092 108.97 105.37C108.063 105.648 107.107 105.723 106.168 105.588C105.23 105.453 104.333 105.112 103.541 104.59L99.8606 108.271Z" fill="#3A2C60"/>
<path d="M140.549 88.9263H130.254C129.913 88.9263 129.586 88.7907 129.344 88.5494C129.103 88.3081 128.967 87.9807 128.967 87.6394C128.967 87.2981 129.103 86.9708 129.344 86.7295C129.586 86.4881 129.913 86.3525 130.254 86.3525H140.549C140.891 86.3525 141.218 86.4881 141.459 86.7295C141.701 86.9708 141.836 87.2981 141.836 87.6394C141.836 87.9807 141.701 88.3081 141.459 88.5494C141.218 88.7907 140.891 88.9263 140.549 88.9263Z" fill="#3A2C60"/>
<path d="M140.549 96.6476H130.254C129.913 96.6476 129.586 96.512 129.344 96.2707C129.103 96.0294 128.967 95.702 128.967 95.3607C128.967 95.0194 129.103 94.6921 129.344 94.4508C129.586 94.2094 129.913 94.0739 130.254 94.0739H140.549C140.891 94.0739 141.218 94.2094 141.459 94.4508C141.701 94.6921 141.836 95.0194 141.836 95.3607C141.836 95.702 141.701 96.0294 141.459 96.2707C141.218 96.512 140.891 96.6476 140.549 96.6476Z" fill="#3A2C60"/>
<path d="M140.549 104.369H130.254C129.913 104.369 129.586 104.233 129.344 103.992C129.103 103.751 128.967 103.423 128.967 103.082C128.967 102.741 129.103 102.413 129.344 102.172C129.586 101.931 129.913 101.795 130.254 101.795H140.549C140.891 101.795 141.218 101.931 141.459 102.172C141.701 102.413 141.836 102.741 141.836 103.082C141.836 103.423 141.701 103.751 141.459 103.992C141.218 104.233 140.891 104.369 140.549 104.369Z" fill="#3A2C60"/>
<path d="M140.549 112.09H130.254C129.913 112.09 129.586 111.955 129.344 111.713C129.103 111.472 128.967 111.145 128.967 110.803C128.967 110.462 129.103 110.135 129.344 109.893C129.586 109.652 129.913 109.517 130.254 109.517H140.549C140.891 109.517 141.218 109.652 141.459 109.893C141.701 110.135 141.836 110.462 141.836 110.803C141.836 111.145 141.701 111.472 141.459 111.713C141.218 111.955 140.891 112.09 140.549 112.09Z" fill="#3A2C60"/>
<path d="M31.164 65.7624C33.2961 65.7624 35.0246 64.0339 35.0246 61.9017C35.0246 59.7695 33.2961 58.041 31.164 58.041C29.0318 58.041 27.3033 59.7695 27.3033 61.9017C27.3033 64.0339 29.0318 65.7624 31.164 65.7624Z" fill="#A4C9FF"/>
<path d="M31.164 67.0492C30.1459 67.0492 29.1507 66.7474 28.3041 66.1817C27.4576 65.6161 26.7979 64.8122 26.4083 63.8716C26.0186 62.931 25.9167 61.896 26.1153 60.8975C26.3139 59.8989 26.8042 58.9817 27.5241 58.2618C28.244 57.5419 29.1612 57.0517 30.1597 56.8531C31.1583 56.6544 32.1933 56.7564 33.1338 57.146C34.0744 57.5356 34.8784 58.1954 35.444 59.0419C36.0096 59.8884 36.3115 60.8836 36.3115 61.9017C36.3115 63.2669 35.7692 64.5762 34.8038 65.5416C33.8385 66.5069 32.5292 67.0492 31.164 67.0492ZM31.164 59.3279C30.6549 59.3279 30.1573 59.4789 29.7341 59.7617C29.3108 60.0445 28.9809 60.4465 28.7861 60.9168C28.5913 61.3871 28.5403 61.9046 28.6396 62.4038C28.739 62.9031 28.9841 63.3617 29.344 63.7216C29.704 64.0816 30.1626 64.3267 30.6618 64.426C31.1611 64.5253 31.6786 64.4744 32.1489 64.2796C32.6192 64.0848 33.0212 63.7549 33.304 63.3316C33.5868 62.9084 33.7377 62.4107 33.7377 61.9017C33.7377 61.2191 33.4666 60.5644 32.9839 60.0818C32.5012 59.5991 31.8466 59.3279 31.164 59.3279Z" fill="#3A2C60"/>
<path d="M31.164 81.205C33.2961 81.205 35.0246 79.4765 35.0246 77.3443C35.0246 75.2121 33.2961 73.4837 31.164 73.4837C29.0318 73.4837 27.3033 75.2121 27.3033 77.3443C27.3033 79.4765 29.0318 81.205 31.164 81.205Z" fill="#A4C9FF"/>
<path d="M31.164 82.4919C30.1459 82.4919 29.1507 82.19 28.3041 81.6244C27.4576 81.0587 26.7979 80.2548 26.4083 79.3142C26.0186 78.3736 25.9167 77.3386 26.1153 76.3401C26.3139 75.3416 26.8042 74.4244 27.5241 73.7045C28.244 72.9846 29.1612 72.4943 30.1597 72.2957C31.1583 72.0971 32.1933 72.199 33.1338 72.5886C34.0744 72.9782 34.8784 73.638 35.444 74.4845C36.0096 75.331 36.3115 76.3262 36.3115 77.3443C36.3115 78.7095 35.7692 80.0188 34.8038 80.9842C33.8385 81.9495 32.5292 82.4919 31.164 82.4919ZM31.164 74.7706C30.6549 74.7706 30.1573 74.9215 29.7341 75.2043C29.3108 75.4871 28.9809 75.8891 28.7861 76.3594C28.5913 76.8297 28.5403 77.3472 28.6396 77.8465C28.739 78.3457 28.9841 78.8043 29.344 79.1643C29.704 79.5242 30.1626 79.7693 30.6618 79.8687C31.1611 79.968 31.6786 79.917 32.1489 79.7222C32.6192 79.5274 33.0212 79.1975 33.304 78.7742C33.5868 78.351 33.7377 77.8534 33.7377 77.3443C33.7377 76.6617 33.4666 76.0071 32.9839 75.5244C32.5012 75.0417 31.8466 74.7706 31.164 74.7706Z" fill="#3A2C60"/>
<path d="M31.164 50.3197C33.2961 50.3197 35.0246 48.5912 35.0246 46.459C35.0246 44.3269 33.2961 42.5984 31.164 42.5984C29.0318 42.5984 27.3033 44.3269 27.3033 46.459C27.3033 48.5912 29.0318 50.3197 31.164 50.3197Z" fill="#A4C9FF"/>
<path d="M31.164 51.6066C30.1459 51.6066 29.1507 51.3047 28.3041 50.7391C27.4576 50.1735 26.7979 49.3695 26.4083 48.429C26.0186 47.4884 25.9167 46.4534 26.1153 45.4548C26.3139 44.4563 26.8042 43.5391 27.5241 42.8192C28.244 42.0993 29.1612 41.6091 30.1597 41.4104C31.1583 41.2118 32.1933 41.3138 33.1338 41.7034C34.0744 42.093 34.8784 42.7527 35.444 43.5992C36.0096 44.4458 36.3115 45.441 36.3115 46.4591C36.3115 47.8243 35.7692 49.1336 34.8038 50.0989C33.8385 51.0643 32.5292 51.6066 31.164 51.6066ZM31.164 43.8853C30.6549 43.8853 30.1573 44.0362 29.7341 44.3191C29.3108 44.6019 28.9809 45.0038 28.7861 45.4741C28.5913 45.9444 28.5403 46.4619 28.6396 46.9612C28.739 47.4605 28.9841 47.9191 29.344 48.279C29.704 48.639 30.1626 48.8841 30.6618 48.9834C31.1611 49.0827 31.6786 49.0317 32.1489 48.8369C32.6192 48.6421 33.0212 48.3122 33.304 47.889C33.5868 47.4657 33.7377 46.9681 33.7377 46.4591C33.7377 45.7765 33.4666 45.1218 32.9839 44.6391C32.5012 44.1565 31.8466 43.8853 31.164 43.8853Z" fill="#3A2C60"/>
</svg>
