<svg width="162" height="162" viewBox="0 0 162 162" fill="none" xmlns="http://www.w3.org/2000/svg">
<path d="M143.938 117.812V75.0625L120.188 56.0625H65.5625V51.3125H53.6875V127.312H65.5625H148.688V117.812H143.938Z" fill="#D4FBFF"/>
<path d="M148.688 117.812H65.5625V121.375H148.688V117.812Z" fill="#D4FBFF"/>
<path d="M148.688 123.75H65.5625V128.5H148.688V123.75Z" fill="#4671C6" fill-opacity="0.35"/>
<path d="M145.125 111.875H66.75V117.972H145.125V111.875Z" fill="#4671C6" fill-opacity="0.35"/>
<path d="M142.724 89.9158L117.226 69.125H66.75V63.2231H117.28L142.724 84.0139V89.9158Z" fill="#4671C6" fill-opacity="0.35"/>
<path d="M75.1337 119.18C74.4782 119.18 73.9462 118.648 73.9462 117.993V95.2191C73.9462 94.5636 74.4782 94.0316 75.1337 94.0316C75.7892 94.0316 76.3212 94.5636 76.3212 95.2191V117.993C76.3212 118.648 75.7892 119.18 75.1337 119.18Z" fill="#4671C6"/>
<path d="M75.1337 88.9491C74.4782 88.9491 73.9462 88.4171 73.9462 87.7616V83.4558C73.9462 82.8003 74.4782 82.2682 75.1337 82.2682C75.7892 82.2682 76.3212 82.8003 76.3212 83.4558V87.7616C76.3212 88.4195 75.7892 88.9491 75.1337 88.9491Z" fill="#4671C6"/>
<path d="M75.1337 72.9891C74.4782 72.9891 73.9462 72.4571 73.9462 71.8016V63.4868C73.9462 62.8313 74.4782 62.2993 75.1337 62.2993C75.7892 62.2993 76.3212 62.8313 76.3212 63.4868V71.8016C76.3212 72.4595 75.7892 72.9891 75.1337 72.9891Z" fill="#4671C6"/>
<path d="M87.0087 118.558C86.3532 118.558 85.8212 118.026 85.8212 117.371V102.178C85.8212 101.522 86.3532 100.99 87.0087 100.99C87.6642 100.99 88.1962 101.522 88.1962 102.178V117.371C88.1962 118.026 87.6642 118.558 87.0087 118.558Z" fill="#4671C6"/>
<path d="M87.0087 89.778C86.3532 89.778 85.8212 89.246 85.8212 88.5905V63.4868C85.8212 62.8313 86.3532 62.2993 87.0087 62.2993C87.6642 62.2993 88.1962 62.8313 88.1962 63.4868V88.5905C88.1962 89.246 87.6642 89.778 87.0087 89.778Z" fill="#4671C6"/>
<path d="M98.8837 117.812C98.2282 117.812 97.6962 117.28 97.6962 116.625V95.003C97.6962 94.3475 98.2282 93.8155 98.8837 93.8155C99.5392 93.8155 100.071 94.3475 100.071 95.003V116.625C100.071 117.28 99.5392 117.812 98.8837 117.812Z" fill="#4671C6"/>
<path d="M98.8837 90.044C98.2282 90.044 97.6962 89.512 97.6962 88.8565V79.9764C97.6962 79.3209 98.2282 78.7889 98.8837 78.7889C99.5392 78.7889 100.071 79.3209 100.071 79.9764V88.8565C100.071 89.512 99.5392 90.044 98.8837 90.044Z" fill="#4671C6"/>
<path d="M98.8837 73.6518C98.2282 73.6518 97.6962 73.1198 97.6962 72.4643V63.4868C97.6962 62.8313 98.2282 62.2993 98.8837 62.2993C99.5392 62.2993 100.071 62.8313 100.071 63.4868V72.4643C100.071 73.1221 99.5392 73.6518 98.8837 73.6518Z" fill="#4671C6"/>
<path d="M110.787 118.995C110.132 118.995 109.6 118.466 109.6 117.81L109.571 104.121C109.571 103.465 110.101 102.933 110.756 102.931C110.756 102.931 110.756 102.931 110.759 102.931C111.414 102.931 111.946 103.46 111.946 104.116L111.975 117.805C111.975 118.461 111.445 118.995 110.787 118.995Z" fill="#4671C6"/>
<path d="M110.787 95.2453C110.132 95.2453 109.6 94.7157 109.6 94.0602L109.571 80.3707C109.571 79.7152 110.101 79.1832 110.756 79.1808C110.756 79.1808 110.756 79.1808 110.759 79.1808C111.414 79.1808 111.946 79.7104 111.946 80.3659L111.975 94.0554C111.975 94.7109 111.445 95.2453 110.787 95.2453Z" fill="#4671C6"/>
<path d="M110.759 72.4263C110.103 72.4263 109.571 71.8943 109.571 71.2388V63.4868C109.571 62.8313 110.103 62.2993 110.759 62.2993C111.414 62.2993 111.946 62.8313 111.946 63.4868V71.2388C111.946 71.8943 111.414 72.4263 110.759 72.4263Z" fill="#4671C6"/>
<path d="M122.634 119.18C121.978 119.18 121.446 118.648 121.446 117.993V92.4974C121.446 91.8419 121.978 91.3099 122.634 91.3099C123.289 91.3099 123.821 91.8419 123.821 92.4974V117.993C123.821 118.648 123.289 119.18 122.634 119.18Z" fill="#4671C6"/>
<path d="M122.634 87.859C121.978 87.859 121.446 87.327 121.446 86.6715V68.2368C121.446 67.5813 121.978 67.0493 122.634 67.0493C123.289 67.0493 123.821 67.5813 123.821 68.2368V86.6715C123.821 87.3294 123.289 87.859 122.634 87.859Z" fill="#4671C6"/>
<path d="M134.509 119.18C133.853 119.18 133.321 118.648 133.321 117.993V102.399C133.321 101.743 133.853 101.211 134.509 101.211C135.164 101.211 135.696 101.743 135.696 102.399V117.993C135.696 118.648 135.164 119.18 134.509 119.18Z" fill="#4671C6"/>
<path d="M134.509 95.4305C133.853 95.4305 133.321 94.8985 133.321 94.243V77.7368C133.321 77.0813 133.853 76.5493 134.509 76.5493C135.164 76.5493 135.696 77.0813 135.696 77.7368V94.243C135.696 94.9009 135.164 95.4305 134.509 95.4305Z" fill="#4671C6"/>
<path d="M65.5625 51.3125H53.6875V56.0625H65.5625V51.3125Z" fill="#D4FBFF"/>
<path d="M120.188 60.8125L143.938 79.8125V75.0625L120.188 56.0625H65.5625V60.8125H120.188Z" fill="#D4FBFF"/>
<path d="M146.312 139.188H15.6875C11.7521 139.188 8.5625 142.377 8.5625 146.312V153.438H153.438V146.312C153.438 142.377 150.248 139.188 146.312 139.188Z" fill="#4671C6" fill-opacity="0.35"/>
<path d="M153.438 148.687H8.5625V153.437H153.438V148.687Z" fill="#4671C6"/>
<path d="M13.3125 127.312H53.6875V58.4375H25.1875L8.5625 96.4375V122.562C8.5625 125.187 10.6881 127.312 13.3125 127.312Z" fill="#F8D323"/>
<path d="M25.1875 58.4375L23.1094 63.1875H53.6875V58.4375H25.1875Z" fill="#FFFA96"/>
<path d="M53.6875 128.5H13.3125C10.0397 128.5 7.375 125.835 7.375 122.562V96.4375C7.375 96.2736 7.40825 96.1121 7.47475 95.9625L24.0997 57.9625C24.2897 57.5302 24.7149 57.25 25.1875 57.25H53.6875C54.343 57.25 54.875 57.782 54.875 58.4375V127.312C54.875 127.968 54.343 128.5 53.6875 128.5ZM9.75 96.6845V122.562C9.75 124.527 11.3484 126.125 13.3125 126.125H52.5V59.625H25.9641L9.75 96.6845Z" fill="#3A2C60"/>
<path d="M49.4861 89.3125V63.1875H28.294L16.8655 89.3125H49.4861Z" fill="#D4FBFF"/>
<path d="M28.294 63.1875L26.2159 67.9375H49.4861V63.1875H28.294Z" fill="#BEE6FF"/>
<path d="M22.9099 90.5H16.8655C16.4641 90.5 16.0913 90.2981 15.8728 89.9609C15.6543 89.626 15.6186 89.2032 15.7778 88.8351L27.2063 62.7101C27.3963 62.2802 27.8214 62 28.294 62H36.9129C37.5684 62 38.1004 62.532 38.1004 63.1875C38.1004 63.843 37.5684 64.375 36.9129 64.375H29.0706L18.68 88.125H22.9099C23.5654 88.125 24.0974 88.657 24.0974 89.3125C24.0974 89.968 23.5654 90.5 22.9099 90.5Z" fill="#3A2C60"/>
<path d="M49.4861 90.5H46.7478C46.0923 90.5 45.5603 89.968 45.5603 89.3125C45.5603 88.657 46.0923 88.125 46.7478 88.125H48.2986V64.375H46.1635C45.508 64.375 44.976 63.843 44.976 63.1875C44.976 62.532 45.508 62 46.1635 62H49.4861C50.1416 62 50.6736 62.532 50.6736 63.1875V89.3125C50.6736 89.968 50.1416 90.5 49.4861 90.5Z" fill="#3A2C60"/>
<path d="M40.0526 90.5H32.8207C32.1652 90.5 31.6332 89.968 31.6332 89.3125C31.6332 88.657 32.1652 88.125 32.8207 88.125H40.0526C40.7081 88.125 41.2401 88.657 41.2401 89.3125C41.2401 89.968 40.7081 90.5 40.0526 90.5Z" fill="#3A2C60"/>
<path d="M18.0625 117.812H8.5625V101.188H18.0625C19.3735 101.188 20.4375 102.251 20.4375 103.562V115.437C20.4375 116.748 19.3735 117.812 18.0625 117.812Z" fill="#FA759E"/>
<path d="M8.5625 109.5V117.812H18.0625C19.3735 117.812 20.4375 116.748 20.4375 115.437V109.5H8.5625Z" fill="#D4FBFF"/>
<path d="M18.0625 119H8.5625C7.907 119 7.375 118.468 7.375 117.812V101.187C7.375 100.532 7.907 100 8.5625 100H18.0625C20.0266 100 21.625 101.598 21.625 103.562V115.437C21.625 117.402 20.0266 119 18.0625 119ZM9.75 116.625H18.0625C18.718 116.625 19.25 116.093 19.25 115.437V103.562C19.25 102.907 18.718 102.375 18.0625 102.375H9.75V116.625Z" fill="#3A2C60"/>
<path d="M65.5625 128.5H53.6875C53.032 128.5 52.5 127.968 52.5 127.312V51.3125C52.5 50.657 53.032 50.125 53.6875 50.125H65.5625C66.218 50.125 66.75 50.657 66.75 51.3125V127.312C66.75 127.968 66.218 128.5 65.5625 128.5ZM54.875 126.125H64.375V52.5H54.875V126.125Z" fill="#3A2C60"/>
<path d="M148.688 128.5H65.5625C64.907 128.5 64.375 127.968 64.375 127.312V117.812C64.375 117.157 64.907 116.625 65.5625 116.625C66.218 116.625 66.75 117.157 66.75 117.812V126.125H147.5V119H116.05C115.395 119 114.863 118.468 114.863 117.812C114.863 117.157 115.395 116.625 116.05 116.625H148.688C149.343 116.625 149.875 117.157 149.875 117.812V127.312C149.875 127.968 149.343 128.5 148.688 128.5Z" fill="#3A2C60"/>
<path d="M20.4375 111.26H8.64563C7.99013 111.26 7.45813 110.728 7.45813 110.072C7.45813 109.417 7.99013 108.885 8.64563 108.885H20.4375C21.093 108.885 21.625 109.417 21.625 110.072C21.625 110.728 21.093 111.26 20.4375 111.26Z" fill="#3A2C60"/>
<path d="M102.363 119H95.7986C95.1431 119 94.6111 118.468 94.6111 117.812C94.6111 117.157 95.1431 116.625 95.7986 116.625H102.363C103.019 116.625 103.551 117.157 103.551 117.812C103.551 118.468 103.019 119 102.363 119Z" fill="#3A2C60"/>
<path d="M143.938 119H107.802C107.146 119 106.614 118.468 106.614 117.812C106.614 117.157 107.146 116.625 107.802 116.625H142.75V75.6325L119.772 57.25H66.75V116.625H89.987C90.6425 116.625 91.1745 117.157 91.1745 117.812C91.1745 118.468 90.6425 119 89.987 119H65.5625C64.907 119 64.375 118.468 64.375 117.812V56.0625C64.375 55.407 64.907 54.875 65.5625 54.875H120.188C120.458 54.875 120.72 54.9676 120.929 55.1339L144.679 74.1339C144.961 74.3619 145.125 74.7015 145.125 75.0625V117.812C145.125 118.468 144.593 119 143.938 119Z" fill="#3A2C60"/>
<path d="M143.937 85.75C143.674 85.75 143.408 85.6621 143.187 85.4816L117.387 64.375H108.227C107.571 64.375 107.039 63.843 107.039 63.1875C107.039 62.532 107.571 62 108.227 62H117.812C118.086 62 118.352 62.095 118.563 62.2684L144.688 83.6434C145.196 84.059 145.272 84.8071 144.857 85.3154C144.621 85.6028 144.282 85.75 143.937 85.75Z" fill="#3A2C60"/>
<path d="M99.8527 64.375H94.8842C94.2287 64.375 93.6967 63.843 93.6967 63.1875C93.6967 62.532 94.2287 62 94.8842 62H99.8527C100.508 62 101.04 62.532 101.04 63.1875C101.04 63.843 100.508 64.375 99.8527 64.375Z" fill="#3A2C60"/>
<path d="M88.9705 64.375H65.5625C64.907 64.375 64.375 63.843 64.375 63.1875C64.375 62.532 64.907 62 65.5625 62H88.9705C89.626 62 90.158 62.532 90.158 63.1875C90.158 63.843 89.626 64.375 88.9705 64.375Z" fill="#3A2C60"/>
<path d="M47.3391 98.1736H38.5706C37.9151 98.1736 37.3831 97.6416 37.3831 96.9861C37.3831 96.3306 37.9151 95.7986 38.5706 95.7986H47.3391C47.9946 95.7986 48.5266 96.3306 48.5266 96.9861C48.5266 97.6416 47.997 98.1736 47.3391 98.1736Z" fill="#3A2C60"/>
<path d="M41.0121 139.187C48.2263 139.187 54.0746 133.339 54.0746 126.125C54.0746 118.911 48.2263 113.062 41.0121 113.062C33.7979 113.062 27.9496 118.911 27.9496 126.125C27.9496 133.339 33.7979 139.187 41.0121 139.187Z" fill="#0089EF"/>
<path d="M41.0121 135.138C34.488 135.138 29.0967 130.35 28.123 124.099C28.0209 124.762 27.9496 125.434 27.9496 126.125C27.9496 133.34 33.7969 139.188 41.0121 139.188C48.2274 139.188 54.0746 133.34 54.0746 126.125C54.0746 125.434 54.0057 124.762 53.9012 124.101C52.9275 130.35 47.5362 135.138 41.0121 135.138Z" fill="#0089EF"/>
<path d="M41.0145 140.375C33.1556 140.375 26.7645 133.984 26.7645 126.125C26.7645 118.266 33.1556 111.875 41.0145 111.875C48.8734 111.875 55.2645 118.266 55.2645 126.125C55.2645 133.984 48.871 140.375 41.0145 140.375ZM41.0145 114.25C34.4666 114.25 29.1395 119.577 29.1395 126.125C29.1395 132.673 34.4666 138 41.0145 138C47.5624 138 52.8895 132.673 52.8895 126.125C52.8895 119.577 47.56 114.25 41.0145 114.25Z" fill="#3A2C60"/>
<path d="M41.0121 132.062C44.2913 132.062 46.9496 129.404 46.9496 126.125C46.9496 122.846 44.2913 120.188 41.0121 120.188C37.7329 120.188 35.0746 122.846 35.0746 126.125C35.0746 129.404 37.7329 132.062 41.0121 132.062Z" fill="#0089EF"/>
<path d="M67.1371 139.187C74.3513 139.187 80.1996 133.339 80.1996 126.125C80.1996 118.911 74.3513 113.062 67.1371 113.062C59.9229 113.062 54.0746 118.911 54.0746 126.125C54.0746 133.339 59.9229 139.187 67.1371 139.187Z" fill="#0089EF"/>
<path d="M67.1371 135.138C60.613 135.138 55.2217 130.35 54.248 124.099C54.1459 124.762 54.0746 125.434 54.0746 126.123C54.0746 133.338 59.9219 139.185 67.1371 139.185C74.3524 139.185 80.1996 133.338 80.1996 126.123C80.1996 125.431 80.1307 124.759 80.0262 124.099C79.0525 130.35 73.6612 135.138 67.1371 135.138Z" fill="#0089EF"/>
<path d="M67.1395 140.375C59.2806 140.375 52.8895 133.984 52.8895 126.125C52.8895 118.266 59.2806 111.875 67.1395 111.875C74.9984 111.875 81.3895 118.266 81.3895 126.125C81.3895 133.984 74.996 140.375 67.1395 140.375ZM67.1395 114.25C60.5916 114.25 55.2645 119.577 55.2645 126.125C55.2645 132.673 60.5916 138 67.1395 138C73.6874 138 79.0145 132.673 79.0145 126.125C79.0145 119.577 73.685 114.25 67.1395 114.25Z" fill="#3A2C60"/>
<path d="M67.1371 132.062C70.4163 132.062 73.0746 129.404 73.0746 126.125C73.0746 122.846 70.4163 120.188 67.1371 120.188C63.8579 120.188 61.1996 122.846 61.1996 126.125C61.1996 129.404 63.8579 132.062 67.1371 132.062Z" fill="#0089EF"/>
<path d="M126.512 139.187C133.726 139.187 139.575 133.339 139.575 126.125C139.575 118.911 133.726 113.062 126.512 113.062C119.298 113.062 113.45 118.911 113.45 126.125C113.45 133.339 119.298 139.187 126.512 139.187Z" fill="#0089EF"/>
<path d="M126.512 135.138C119.988 135.138 114.597 130.35 113.623 124.099C113.521 124.762 113.45 125.434 113.45 126.123C113.45 133.338 119.297 139.185 126.512 139.185C133.727 139.185 139.575 133.338 139.575 126.123C139.575 125.431 139.506 124.759 139.401 124.099C138.427 130.35 133.036 135.138 126.512 135.138Z" fill="#0089EF"/>
<path d="M126.514 140.375C118.656 140.375 112.264 133.984 112.264 126.125C112.264 118.266 118.656 111.875 126.514 111.875C134.373 111.875 140.764 118.266 140.764 126.125C140.764 133.984 134.371 140.375 126.514 140.375ZM126.514 114.25C119.967 114.25 114.639 119.577 114.639 126.125C114.639 132.673 119.967 138 126.514 138C133.062 138 138.389 132.673 138.389 126.125C138.389 119.577 133.06 114.25 126.514 114.25Z" fill="#3A2C60"/>
<path d="M126.512 132.062C129.791 132.062 132.45 129.404 132.45 126.125C132.45 122.846 129.791 120.188 126.512 120.188C123.233 120.188 120.575 122.846 120.575 126.125C120.575 129.404 123.233 132.062 126.512 132.062Z" fill="#0089EF"/>
<path d="M140.394 140.375H104.574C103.919 140.375 103.387 139.843 103.387 139.188C103.387 138.532 103.919 138 104.574 138H140.396C141.052 138 141.584 138.532 141.584 139.188C141.584 139.843 141.052 140.375 140.394 140.375Z" fill="#3A2C60"/>
<path d="M153.438 154.625H8.5625C7.907 154.625 7.375 154.093 7.375 153.438V146.312C7.375 141.729 11.1038 138 15.6875 138C16.343 138 16.875 138.532 16.875 139.188C16.875 139.843 16.343 140.375 15.6875 140.375C12.4147 140.375 9.75 143.04 9.75 146.312V152.25H152.25V146.312C152.25 143.04 149.585 140.375 146.312 140.375C145.657 140.375 145.125 139.843 145.125 139.188C145.125 138.532 145.657 138 146.312 138C150.896 138 154.625 141.729 154.625 146.312V153.438C154.625 154.093 154.093 154.625 153.438 154.625Z" fill="#3A2C60"/>
<path d="M83.3322 140.375H26.2539C25.5984 140.375 25.0664 139.843 25.0664 139.188C25.0664 138.532 25.5984 138 26.2539 138H83.3346C83.9901 138 84.5221 138.532 84.5221 139.188C84.5221 139.843 83.9901 140.375 83.3322 140.375Z" fill="#3A2C60"/>
<path d="M38.6134 132.746C38.4543 132.746 38.2904 132.713 38.1336 132.644C37.205 132.236 36.3595 131.616 35.6826 130.856C35.248 130.364 35.2908 129.616 35.7824 129.179C36.2716 128.742 37.0198 128.785 37.4591 129.279C37.908 129.787 38.4756 130.2 39.0931 130.474C39.6916 130.737 39.9648 131.44 39.6988 132.039C39.504 132.483 39.0694 132.746 38.6134 132.746Z" fill="#3A2C60"/>
<path d="M43.6674 132.625C43.2304 132.625 42.8124 132.385 42.6034 131.97C42.3089 131.383 42.5487 130.671 43.133 130.376C44.7551 129.564 45.7621 127.935 45.7621 126.125C45.7621 123.505 43.6317 121.375 41.0121 121.375C38.3925 121.375 36.2621 123.505 36.2621 126.125C36.2621 126.78 35.7301 127.312 35.0746 127.312C34.4191 127.312 33.8871 126.78 33.8871 126.125C33.8871 122.197 37.0839 119 41.0121 119C44.9404 119 48.1371 122.197 48.1371 126.125C48.1371 128.84 46.6266 131.283 44.197 132.502C44.0284 132.585 43.8455 132.625 43.6674 132.625Z" fill="#3A2C60"/>
<path d="M64.7384 132.746C64.5793 132.746 64.4154 132.713 64.2586 132.644C63.33 132.236 62.4845 131.616 61.8076 130.856C61.373 130.364 61.4158 129.616 61.9074 129.179C62.3966 128.742 63.1448 128.785 63.5841 129.279C64.033 129.787 64.6006 130.2 65.2181 130.474C65.8166 130.737 66.0898 131.44 65.8238 132.039C65.629 132.483 65.1944 132.746 64.7384 132.746Z" fill="#3A2C60"/>
<path d="M69.7924 132.625C69.3554 132.625 68.9374 132.385 68.7284 131.97C68.4339 131.383 68.6737 130.671 69.258 130.376C70.8801 129.564 71.8871 127.935 71.8871 126.125C71.8871 123.505 69.7567 121.375 67.1371 121.375C64.5175 121.375 62.3871 123.505 62.3871 126.125C62.3871 126.78 61.8551 127.312 61.1996 127.312C60.5441 127.312 60.0121 126.78 60.0121 126.125C60.0121 122.197 63.2089 119 67.1371 119C71.0654 119 74.2621 122.197 74.2621 126.125C74.2621 128.84 72.7516 131.283 70.322 132.502C70.1534 132.585 69.9705 132.625 69.7924 132.625Z" fill="#3A2C60"/>
<path d="M124.113 132.746C123.954 132.746 123.79 132.713 123.634 132.644C122.705 132.236 121.86 131.616 121.183 130.856C120.748 130.364 120.791 129.616 121.282 129.179C121.772 128.742 122.52 128.785 122.959 129.279C123.408 129.787 123.976 130.2 124.593 130.474C125.192 130.737 125.465 131.44 125.199 132.039C125.004 132.483 124.569 132.746 124.113 132.746Z" fill="#3A2C60"/>
<path d="M129.167 132.625C128.73 132.625 128.312 132.385 128.103 131.97C127.809 131.383 128.049 130.671 128.633 130.376C130.255 129.564 131.262 127.935 131.262 126.125C131.262 123.505 129.132 121.375 126.512 121.375C123.892 121.375 121.762 123.505 121.762 126.125C121.762 126.78 121.23 127.312 120.575 127.312C119.919 127.312 119.387 126.78 119.387 126.125C119.387 122.197 122.584 119 126.512 119C130.44 119 133.637 122.197 133.637 126.125C133.637 128.84 132.127 131.283 129.697 132.502C129.528 132.585 129.345 132.625 129.167 132.625Z" fill="#3A2C60"/>
<path d="M31.125 33.5L34.4832 39.6418L40.625 43L34.4832 46.3582L31.125 52.5L27.7668 46.3582L21.625 43L27.7668 39.6418L31.125 33.5Z" fill="#F8D323"/>
<path d="M27.7668 42.0168L31.125 38.25L34.4832 42.0168L40.625 43L34.4832 39.6418L31.125 33.5L27.7668 39.6418L21.625 43L27.7668 42.0168Z" fill="#FFFA96"/>
<path d="M135.625 26.375L138.983 32.5168L145.125 35.875L138.983 39.2332L135.625 45.375L132.267 39.2332L126.125 35.875L132.267 32.5168L135.625 26.375Z" fill="#F8D323"/>
<path d="M132.267 34.8918L135.625 31.125L138.983 34.8918L145.125 35.875L138.983 32.5168L135.625 26.375L132.267 32.5168L126.125 35.875L132.267 34.8918Z" fill="#FFFA96"/>
<path d="M69.125 9.75L74.1624 18.9626L83.375 24L74.1624 29.0374L69.125 38.25L64.0876 29.0374L54.875 24L64.0876 18.9626L69.125 9.75Z" fill="#F8D323"/>
<path d="M64.0876 23.7126L69.125 14.5L74.1624 23.7126L81.4085 24H83.375L74.1624 18.9626L69.125 9.75L64.0876 18.9626L54.875 24H56.8415L64.0876 23.7126Z" fill="#FFFA96"/>
<path d="M135.625 46.5625C135.19 46.5625 134.791 46.325 134.585 45.945L131.393 40.1096L125.557 36.9176C125.175 36.7086 124.938 36.3096 124.938 35.875C124.938 35.4404 125.175 35.0414 125.555 34.8348L131.39 31.6428L134.582 25.8074C134.998 25.045 136.25 25.045 136.665 25.8074L139.857 31.6428L145.693 34.8348C146.075 35.0414 146.312 35.4404 146.312 35.875C146.312 36.3096 146.075 36.7086 145.695 36.9153L139.86 40.1073L136.668 45.9426C136.459 46.325 136.06 46.5625 135.625 46.5625ZM128.6 35.875L132.837 38.193C133.036 38.3023 133.2 38.4661 133.309 38.6656L135.625 42.9003L137.943 38.6633C138.052 38.4638 138.216 38.2999 138.416 38.1906L142.65 35.875L138.413 33.557C138.214 33.4478 138.05 33.2839 137.941 33.0844L135.625 28.8498L133.307 33.0868C133.198 33.2863 133.034 33.4501 132.834 33.5594L128.6 35.875Z" fill="#3A2C60"/>
<path d="M31.125 53.6875C30.6904 53.6875 30.2914 53.45 30.0848 53.07L26.8928 47.2346L21.055 44.0403C20.675 43.8336 20.4375 43.4346 20.4375 43C20.4375 42.5654 20.675 42.1664 21.055 41.9598L26.8904 38.7678L30.0824 32.9324C30.498 32.17 31.7496 32.17 32.1652 32.9324L35.3572 38.7678L41.1926 41.9598C41.575 42.1664 41.8125 42.5654 41.8125 43C41.8125 43.4346 41.575 43.8336 41.195 44.0403L35.3596 47.2323L32.1676 53.0676C31.9586 53.45 31.5596 53.6875 31.125 53.6875ZM24.0997 43L28.3368 45.318C28.5363 45.4273 28.7001 45.5911 28.8094 45.7906L31.125 50.0253L33.443 45.7883C33.5522 45.5888 33.7161 45.4249 33.9156 45.3156L38.1503 43L33.9132 40.682C33.7137 40.5728 33.5499 40.4089 33.4406 40.2094L31.125 35.9748L28.807 40.2118C28.6978 40.4113 28.5339 40.5751 28.3344 40.6844L24.0997 43Z" fill="#3A2C60"/>
<path d="M69.125 39.4375C68.6904 39.4375 68.2914 39.2 68.0848 38.82L63.2136 29.9138L54.3074 25.0426C53.925 24.8336 53.6875 24.4346 53.6875 24C53.6875 23.5654 53.925 23.1664 54.305 22.9598L63.2113 18.0886L68.0824 9.18238C68.498 8.42 69.7496 8.42 70.1652 9.18238L75.0364 18.0886L83.9426 22.9598C84.325 23.1664 84.5625 23.5654 84.5625 24C84.5625 24.4346 84.325 24.8336 83.945 25.0403L75.0387 29.9114L70.1676 38.8176C69.9586 39.2 69.5596 39.4375 69.125 39.4375ZM57.3497 24L64.6576 27.9971C64.8571 28.1064 65.021 28.2703 65.1303 28.4698L69.125 35.7753L73.1221 28.4674C73.2314 28.2679 73.3952 28.104 73.5947 27.9948L80.9003 24L73.5924 20.0029C73.3929 19.8936 73.229 19.7298 73.1197 19.5303L69.125 12.2248L65.1279 19.5326C65.0186 19.7321 64.8548 19.896 64.6553 20.0053L57.3497 24Z" fill="#3A2C60"/>
</svg>
