<svg width="162" height="162" viewBox="0 0 162 162" fill="none" xmlns="http://www.w3.org/2000/svg">
<path d="M132.882 44.4874C140.271 44.4874 146.262 38.4969 146.262 31.1072C146.262 23.7175 140.271 17.727 132.882 17.727C125.492 17.727 119.502 23.7175 119.502 31.1072C119.502 38.4969 125.492 44.4874 132.882 44.4874Z" fill="#F46275"/>
<path d="M29.1182 44.4874C36.5079 44.4874 42.4984 38.4969 42.4984 31.1072C42.4984 23.7175 36.5079 17.727 29.1182 17.727C21.7286 17.727 15.738 23.7175 15.738 31.1072C15.738 38.4969 21.7286 44.4874 29.1182 44.4874Z" fill="#F46275"/>
<path d="M21.7498 31.1072C21.7513 28.0825 22.7779 25.1477 24.662 22.7815C26.5462 20.4154 29.1766 18.7576 32.1241 18.0788C30.1609 17.6197 28.1194 17.6102 26.152 18.051C24.1847 18.4917 22.3423 19.3714 20.7627 20.6242C19.1831 21.8771 17.907 23.4707 17.0298 25.286C16.1526 27.1013 15.697 29.0914 15.697 31.1075C15.697 33.1236 16.1526 35.1137 17.0298 36.929C17.907 38.7443 19.1831 40.3379 20.7627 41.5907C22.3423 42.8436 24.1847 43.7232 26.152 44.164C28.1194 44.6048 30.1609 44.5953 32.1241 44.1362C29.1765 43.4573 26.546 41.7995 24.6618 39.4332C22.7777 37.0669 21.7512 34.1319 21.7498 31.1072Z" fill="#F43075"/>
<path d="M140.25 31.1072C140.249 28.0825 139.222 25.1477 137.338 22.7815C135.454 20.4154 132.823 18.7576 129.876 18.0788C131.839 17.6197 133.881 17.6102 135.848 18.051C137.815 18.4917 139.658 19.3714 141.237 20.6242C142.817 21.8771 144.093 23.4707 144.97 25.286C145.847 27.1013 146.303 29.0914 146.303 31.1075C146.303 33.1236 145.847 35.1137 144.97 36.929C144.093 38.7443 142.817 40.3379 141.237 41.5907C139.658 42.8436 137.815 43.7232 135.848 44.164C133.881 44.6048 131.839 44.5953 129.876 44.1362C132.824 43.4573 135.454 41.7995 137.338 39.4332C139.222 37.0669 140.249 34.1319 140.25 31.1072Z" fill="#F48875"/>
<path d="M81.0001 44.4874C88.3897 44.4874 94.3802 38.4969 94.3802 31.1072C94.3802 23.7175 88.3897 17.727 81.0001 17.727C73.6104 17.727 67.6199 23.7175 67.6199 31.1072C67.6199 38.4969 73.6104 44.4874 81.0001 44.4874Z" fill="#F8AF23"/>
<path d="M29.1182 90.9086C36.5079 90.9086 42.4984 84.9181 42.4984 77.5284C42.4984 70.1387 36.5079 64.1482 29.1182 64.1482C21.7286 64.1482 15.738 70.1387 15.738 77.5284C15.738 84.9181 21.7286 90.9086 29.1182 90.9086Z" fill="#F8AF23"/>
<path d="M81.0001 90.9086C88.3897 90.9086 94.3802 84.9181 94.3802 77.5284C94.3802 70.1387 88.3897 64.1482 81.0001 64.1482C73.6104 64.1482 67.6199 70.1387 67.6199 77.5284C67.6199 84.9181 73.6104 90.9086 81.0001 90.9086Z" fill="#F8AF23"/>
<path d="M132.882 90.9086C140.271 90.9086 146.262 84.9181 146.262 77.5284C146.262 70.1387 140.271 64.1482 132.882 64.1482C125.492 64.1482 119.502 70.1387 119.502 77.5284C119.502 84.9181 125.492 90.9086 132.882 90.9086Z" fill="#F8AF23"/>
<path d="M29.1182 137.329C36.5079 137.329 42.4984 131.339 42.4984 123.949C42.4984 116.559 36.5079 110.569 29.1182 110.569C21.7286 110.569 15.738 116.559 15.738 123.949C15.738 131.339 21.7286 137.329 29.1182 137.329Z" fill="#63BCE7"/>
<path d="M81.0001 137.329C88.3897 137.329 94.3802 131.339 94.3802 123.949C94.3802 116.559 88.3897 110.569 81.0001 110.569C73.6104 110.569 67.6199 116.559 67.6199 123.949C67.6199 131.339 73.6104 137.329 81.0001 137.329Z" fill="#F8AF23"/>
<path d="M132.882 137.329C140.271 137.329 146.262 131.339 146.262 123.949C146.262 116.559 140.271 110.569 132.882 110.569C125.492 110.569 119.502 116.559 119.502 123.949C119.502 131.339 125.492 137.329 132.882 137.329Z" fill="#63BCE7"/>
<path d="M21.7498 77.5278C21.7513 74.5031 22.7779 71.5683 24.662 69.2021C26.5462 66.836 29.1766 65.1782 32.1241 64.4994C30.1609 64.0403 28.1194 64.0308 26.152 64.4716C24.1847 64.9123 22.3423 65.792 20.7627 67.0448C19.1831 68.2977 17.907 69.8913 17.0298 71.7066C16.1526 73.5219 15.697 75.5119 15.697 77.5281C15.697 79.5442 16.1526 81.5343 17.0298 83.3496C17.907 85.1649 19.1831 86.7585 20.7627 88.0113C22.3423 89.2642 24.1847 90.1438 26.152 90.5846C28.1194 91.0254 30.1609 91.0158 32.1241 90.5567C29.1765 89.8779 26.546 88.2201 24.6618 85.8538C22.7777 83.4875 21.7512 80.5525 21.7498 77.5278Z" fill="#F87023"/>
<path d="M21.7498 123.949C21.7513 120.924 22.7779 117.989 24.662 115.623C26.5462 113.257 29.1766 111.599 32.1241 110.921C30.1609 110.462 28.1194 110.452 26.152 110.893C24.1847 111.334 22.3423 112.213 20.7627 113.466C19.1831 114.719 17.907 116.312 17.0298 118.128C16.1526 119.943 15.697 121.933 15.697 123.949C15.697 125.965 16.1526 127.955 17.0298 129.771C17.907 131.586 19.1831 133.18 20.7627 134.433C22.3423 135.685 24.1847 136.565 26.152 137.006C28.1194 137.447 30.1609 137.437 32.1241 136.978C29.1765 136.299 26.546 134.641 24.6618 132.275C22.7777 129.909 21.7512 126.974 21.7498 123.949Z" fill="#6377E7"/>
<path d="M140.25 77.5278C140.249 74.5031 139.222 71.5683 137.338 69.2021C135.454 66.836 132.823 65.1782 129.876 64.4994C131.839 64.0403 133.881 64.0308 135.848 64.4716C137.815 64.9123 139.658 65.792 141.237 67.0448C142.817 68.2977 144.093 69.8913 144.97 71.7066C145.847 73.5219 146.303 75.5119 146.303 77.5281C146.303 79.5442 145.847 81.5343 144.97 83.3496C144.093 85.1649 142.817 86.7585 141.237 88.0113C139.658 89.2642 137.815 90.1438 135.848 90.5846C133.881 91.0254 131.839 91.0158 129.876 90.5567C132.824 89.8779 135.454 88.2201 137.338 85.8538C139.222 83.4875 140.249 80.5525 140.25 77.5278Z" fill="#F8D323"/>
<path d="M140.25 123.949C140.249 120.924 139.222 117.989 137.338 115.623C135.454 113.257 132.823 111.599 129.876 110.921C131.839 110.462 133.881 110.452 135.848 110.893C137.815 111.334 139.658 112.213 141.237 113.466C142.817 114.719 144.093 116.312 144.97 118.128C145.847 119.943 146.303 121.933 146.303 123.949C146.303 125.965 145.847 127.955 144.97 129.771C144.093 131.586 142.817 133.18 141.237 134.433C139.658 135.685 137.815 136.565 135.848 137.006C133.881 137.447 131.839 137.437 129.876 136.978C132.824 136.299 135.454 134.641 137.338 132.275C139.222 129.909 140.249 126.974 140.25 123.949Z" fill="#63E2E7"/>
<path d="M17.2903 143.323H5.89966C5.64791 143.323 5.40647 143.423 5.22846 143.601C5.05045 143.779 4.95044 144.021 4.95044 144.272C4.95044 144.524 5.05045 144.766 5.22846 144.944C5.40647 145.122 5.64791 145.222 5.89966 145.222H17.2903C17.542 145.222 17.7835 145.122 17.9615 144.944C18.1395 144.766 18.2395 144.524 18.2395 144.272C18.2395 144.021 18.1395 143.779 17.9615 143.601C17.7835 143.423 17.542 143.323 17.2903 143.323Z" fill="#3F3679"/>
<path d="M156.102 143.323H144.712C144.46 143.323 144.218 143.423 144.04 143.601C143.862 143.779 143.762 144.021 143.762 144.272C143.762 144.524 143.862 144.766 144.04 144.944C144.218 145.122 144.46 145.222 144.712 145.222H156.102C156.354 145.222 156.595 145.122 156.773 144.944C156.951 144.766 157.051 144.524 157.051 144.272C157.051 144.021 156.951 143.779 156.773 143.601C156.595 143.423 156.354 143.323 156.102 143.323Z" fill="#3F3679"/>
<path d="M138.256 143.323H23.7438C23.492 143.323 23.2506 143.423 23.0726 143.601C22.8946 143.779 22.7946 144.021 22.7946 144.272C22.7946 144.524 22.8946 144.766 23.0726 144.944C23.2506 145.122 23.492 145.222 23.7438 145.222H138.256C138.508 145.222 138.749 145.122 138.927 144.944C139.105 144.766 139.205 144.524 139.205 144.272C139.205 144.021 139.105 143.779 138.927 143.601C138.749 143.423 138.508 143.323 138.256 143.323Z" fill="#3F3679"/>
<path d="M5.89783 138.278H156.102C156.354 138.278 156.595 138.178 156.773 138C156.951 137.822 157.051 137.581 157.051 137.329C157.051 137.077 156.951 136.836 156.773 136.658C156.595 136.48 156.354 136.38 156.102 136.38H139.996C142.738 134.812 144.886 132.381 146.104 129.465C147.322 126.55 147.542 123.314 146.731 120.261C145.919 117.207 144.121 114.508 141.617 112.582C139.112 110.656 136.041 109.612 132.882 109.612C129.723 109.612 126.652 110.656 124.147 112.582C121.643 114.508 119.845 117.207 119.033 120.261C118.222 123.314 118.442 126.55 119.66 129.465C120.878 132.381 123.026 134.812 125.768 136.38H88.116C89.9012 135.362 91.446 133.971 92.6452 132.302C93.8444 130.633 94.6699 128.726 95.0654 126.709C95.4609 124.692 95.4172 122.614 94.9372 120.616C94.4571 118.618 93.5521 116.746 92.2837 115.13L122.869 87.7635C124.885 89.7384 127.438 91.0743 130.21 91.6037C132.982 92.1331 135.848 91.8324 138.449 90.7394C141.051 89.6463 143.271 87.8096 144.833 85.4594C146.395 83.1093 147.228 80.3504 147.228 77.5287C147.228 74.707 146.395 71.9481 144.833 69.598C143.271 67.2479 141.051 65.4111 138.449 64.3181C135.848 63.2251 132.982 62.9244 130.21 63.4538C127.438 63.9832 124.885 65.3191 122.869 67.2939L92.2811 39.9267C93.9378 37.8116 94.9665 35.2734 95.2498 32.6017C95.5331 29.93 95.0596 27.2325 93.8834 24.817C92.7071 22.4016 90.8755 20.3654 88.5975 18.941C86.3195 17.5166 83.687 16.7613 81.0003 16.7613C78.3137 16.7613 75.6811 17.5166 73.4031 18.941C71.1252 20.3654 69.2935 22.4016 68.1173 24.817C66.941 27.2325 66.4675 29.93 66.7508 32.6017C67.0341 35.2734 68.0628 37.8116 69.7195 39.9267L39.1331 67.2933C37.1177 65.3184 34.5641 63.9825 31.7925 63.4531C29.021 62.9237 26.1547 63.2244 23.5534 64.3175C20.952 65.4105 18.7312 67.2473 17.1695 69.5974C15.6078 71.9475 14.7747 74.7064 14.7747 77.5281C14.7747 80.3498 15.6078 83.1087 17.1695 85.4588C18.7312 87.8089 20.952 89.6457 23.5534 90.7387C26.1547 91.8318 29.021 92.1324 31.7925 91.6031C34.5641 91.0737 37.1177 89.7378 39.1331 87.7629L69.7195 115.129C68.4509 116.746 67.5458 118.617 67.0656 120.615C66.5855 122.614 66.5416 124.692 66.9371 126.709C67.3326 128.725 68.158 130.633 69.3572 132.302C70.5565 133.971 72.1013 135.362 73.8866 136.38H36.2342C38.9768 134.812 41.1241 132.381 42.3422 129.465C43.5602 126.55 43.7806 123.314 42.9692 120.261C42.1577 117.207 40.3599 114.508 37.8553 112.582C35.3507 110.656 32.2799 109.612 29.1205 109.612C25.961 109.612 22.8902 110.656 20.3856 112.582C17.8811 114.508 16.0832 117.207 15.2717 120.261C14.4603 123.314 14.6807 126.55 15.8987 129.465C17.1168 132.381 19.2641 134.812 22.0067 136.38H5.89783C5.64608 136.38 5.40464 136.48 5.22663 136.658C5.04862 136.836 4.94861 137.077 4.94861 137.329C4.94861 137.581 5.04862 137.822 5.22663 138C5.40464 138.178 5.64608 138.278 5.89783 138.278ZM120.451 123.949C120.451 121.49 121.18 119.087 122.546 117.043C123.912 114.998 125.853 113.405 128.125 112.464C130.396 111.523 132.896 111.277 135.307 111.757C137.718 112.237 139.933 113.42 141.672 115.159C143.41 116.897 144.594 119.112 145.074 121.524C145.554 123.935 145.307 126.435 144.366 128.706C143.426 130.978 141.832 132.919 139.788 134.285C137.744 135.651 135.34 136.38 132.882 136.38C129.586 136.376 126.426 135.065 124.096 132.735C121.766 130.404 120.455 127.245 120.451 123.949ZM70.9851 113.716L40.3988 86.3479C42.3738 83.8323 43.4473 80.7264 43.4473 77.5281C43.4473 74.3297 42.3738 71.2239 40.3988 68.7083L70.9851 41.3423C73.424 43.7365 76.6405 45.1769 80.0508 45.4018V63.2344C76.4232 63.4747 73.0228 65.0852 70.5385 67.7395C68.0542 70.3937 66.672 73.8932 66.672 77.5287C66.672 81.1642 68.0542 84.6637 70.5385 87.318C73.0228 89.9723 76.4232 91.5827 80.0508 91.823V109.655C76.6403 109.88 73.4237 111.321 70.9851 113.716ZM81 89.9587C78.5414 89.9587 76.138 89.2297 74.0937 87.8638C72.0495 86.4978 70.4562 84.5564 69.5153 82.2849C68.5744 80.0134 68.3282 77.514 68.8079 75.1026C69.2875 72.6912 70.4715 70.4763 72.21 68.7378C73.9485 66.9993 76.1635 65.8153 78.5748 65.3357C80.9862 64.856 83.4857 65.1022 85.7571 66.0431C88.0286 66.9839 89.97 68.5772 91.336 70.6215C92.7019 72.6658 93.431 75.0692 93.431 77.5278C93.4273 80.8235 92.1164 83.9833 89.7859 86.3137C87.4555 88.6442 84.2958 89.9551 81 89.9587ZM81.9492 91.8224C85.5768 91.5821 88.9772 89.9716 91.4615 87.3174C93.9458 84.6631 95.328 81.1636 95.328 77.5281C95.328 73.8926 93.9458 70.3931 91.4615 67.7388C88.9772 65.0846 85.5768 63.4741 81.9492 63.2338V45.4018C85.3595 45.1769 88.5761 43.7366 91.0149 41.3423L121.601 68.7089C119.626 71.2245 118.552 74.3303 118.552 77.5287C118.552 80.7271 119.626 83.8329 121.601 86.3485L91.0155 113.716C88.5766 111.322 85.3598 109.881 81.9492 109.656V91.8224ZM132.882 65.0974C135.34 65.0974 137.744 65.8265 139.788 67.1924C141.832 68.5584 143.426 70.4998 144.366 72.7713C145.307 75.0427 145.554 77.5422 145.074 79.9536C144.594 82.3649 143.41 84.5799 141.672 86.3184C139.933 88.0569 137.718 89.2409 135.307 89.7205C132.896 90.2002 130.396 89.954 128.125 89.0131C125.853 88.0723 123.912 86.479 122.546 84.4347C121.18 82.3904 120.451 79.987 120.451 77.5284C120.454 74.2326 121.765 71.0729 124.096 68.7425C126.426 66.412 129.586 65.1011 132.882 65.0974ZM81 18.6768C83.4586 18.6768 85.862 19.4059 87.9063 20.7718C89.9505 22.1378 91.5438 24.0792 92.4847 26.3507C93.4256 28.6222 93.6718 31.1216 93.1921 33.533C92.7124 35.9443 91.5285 38.1593 89.79 39.8978C88.0515 41.6363 85.8365 42.8203 83.4252 43.2999C81.0138 43.7796 78.5143 43.5334 76.2429 42.5925C73.9714 41.6517 72.03 40.0584 70.664 38.0141C69.2981 35.9698 68.569 33.5664 68.569 31.1078C68.5727 27.812 69.8836 24.6523 72.2141 22.3219C74.5445 19.9914 77.7042 18.6805 81 18.6768ZM29.1182 89.9587C26.6596 89.9587 24.2562 89.2297 22.212 87.8638C20.1677 86.4978 18.5744 84.5564 17.6335 82.2849C16.6927 80.0134 16.4465 77.514 16.9261 75.1026C17.4058 72.6912 18.5897 70.4763 20.3282 68.7378C22.0667 66.9993 24.2817 65.8153 26.6931 65.3357C29.1045 64.856 31.6039 65.1022 33.8754 66.0431C36.1468 66.9839 38.0883 68.5772 39.4542 70.6215C40.8201 72.6658 41.5492 75.0692 41.5492 77.5278C41.5455 80.8235 40.2347 83.9833 37.9042 86.3137C35.5737 88.6442 32.414 89.9551 29.1182 89.9587ZM68.569 123.949C68.569 121.49 69.2981 119.087 70.664 117.043C72.03 114.998 73.9714 113.405 76.2429 112.464C78.5143 111.523 81.0138 111.277 83.4252 111.757C85.8365 112.237 88.0515 113.42 89.79 115.159C91.5285 116.897 92.7124 119.112 93.1921 121.524C93.6718 123.935 93.4256 126.435 92.4847 128.706C91.5438 130.978 89.9505 132.919 87.9063 134.285C85.862 135.651 83.4586 136.38 81 136.38C77.7043 136.376 74.5447 135.065 72.2142 132.735C69.8838 130.404 68.5729 127.245 68.569 123.949ZM16.6873 123.949C16.6873 121.49 17.4163 119.087 18.7823 117.043C20.1482 114.998 22.0897 113.405 24.3611 112.464C26.6326 111.523 29.132 111.277 31.5434 111.757C33.9548 112.237 36.1698 113.42 37.9083 115.159C39.6468 116.897 40.8307 119.112 41.3104 121.524C41.79 123.935 41.5438 126.435 40.603 128.706C39.6621 130.978 38.0688 132.919 36.0245 134.285C33.9803 135.651 31.5769 136.38 29.1182 136.38C25.8225 136.376 22.6629 135.065 20.3325 132.735C18.0021 130.404 16.6911 127.245 16.6873 123.949Z" fill="#3F3679"/>
<path d="M29.1182 45.4359C31.9523 45.4359 34.7228 44.5955 37.0793 43.0209C39.4358 41.4464 41.2724 39.2084 42.3569 36.59C43.4415 33.9716 43.7252 31.0904 43.1723 28.3108C42.6193 25.5311 41.2545 22.9778 39.2504 20.9739C37.2464 18.9699 34.693 17.6052 31.9134 17.0524C29.1337 16.4995 26.2525 16.7834 23.6342 17.868C21.0158 18.9527 18.7779 20.7894 17.2035 23.146C15.629 25.5025 14.7887 28.273 14.7888 31.1071C14.7933 34.9061 16.3045 38.5481 18.9908 41.2343C21.6772 43.9205 25.3193 45.4316 29.1182 45.4359ZM29.1182 18.6762C31.5768 18.6762 33.9802 19.4052 36.0245 20.7712C38.0688 22.1371 39.6621 24.0786 40.6029 26.35C41.5438 28.6215 41.79 31.1209 41.3103 33.5323C40.8307 35.9437 39.6468 38.1587 37.9083 39.8972C36.1698 41.6357 33.9548 42.8196 31.5434 43.2993C29.132 43.7789 26.6326 43.5327 24.3611 42.5919C22.0896 41.651 20.1482 40.0577 18.7823 38.0134C17.4163 35.9692 16.6873 33.5658 16.6873 31.1071C16.6911 27.8115 18.0021 24.6519 20.3325 22.3216C22.6629 19.9913 25.8226 18.6805 29.1182 18.6768V18.6762Z" fill="#3F3679"/>
<path d="M132.882 45.4359C135.716 45.4359 138.486 44.5955 140.843 43.021C143.199 41.4464 145.036 39.2085 146.12 36.5901C147.205 33.9718 147.489 31.0906 146.936 28.311C146.383 25.5314 145.018 22.9781 143.014 20.9741C141.01 18.9701 138.457 17.6053 135.677 17.0524C132.898 16.4995 130.017 16.7833 127.398 17.8679C124.78 18.9524 122.542 20.7891 120.967 23.1455C119.393 25.502 118.552 28.2724 118.552 31.1065C118.557 34.9056 120.068 38.5478 122.754 41.2341C125.441 43.9205 129.083 45.4316 132.882 45.4359ZM132.882 18.6762C135.34 18.6762 137.744 19.4052 139.788 20.7712C141.832 22.1371 143.426 24.0786 144.367 26.35C145.307 28.6215 145.554 31.1209 145.074 33.5323C144.594 35.9437 143.41 38.1587 141.672 39.8972C139.933 41.6357 137.718 42.8196 135.307 43.2993C132.896 43.7789 130.396 43.5327 128.125 42.5919C125.853 41.651 123.912 40.0577 122.546 38.0134C121.18 35.9692 120.451 33.5658 120.451 31.1071C120.455 27.8115 121.766 24.6519 124.096 22.3216C126.426 19.9913 129.586 18.6805 132.882 18.6768V18.6762Z" fill="#3F3679"/>
</svg>
