<svg width="50" height="50" viewBox="0 0 50 50" fill="none" xmlns="http://www.w3.org/2000/svg">
<path d="M20.8982 15.1435C20.9798 14.7352 21.3913 14.353 21.6055 14.0117C22.3367 12.8473 22.9917 11.6432 23.771 10.5077C24.8815 8.88988 26.1164 7.36451 27.3077 5.80674C27.3363 5.76927 28.6558 3.97208 28.6897 4.00033C29.0221 4.27737 29.0734 6.30518 29.1576 6.68818C29.5727 8.57701 30.2864 10.3275 30.9967 12.1183C31.607 13.6571 31.9968 15.4899 32.8466 16.9063" stroke="#0716A0" stroke-width="3.22785" stroke-linecap="round"/>
<path d="M20.5068 15.1435C19.5484 15.0563 18.4714 14.6302 17.5578 14.3491C16.005 13.8713 14.4401 13.5778 12.8677 13.1847C11.5919 12.8658 10.4426 12.6734 9.14604 12.5971C8.33893 12.5496 11.1233 15.9186 11.4965 16.3622C12.6615 17.747 17.94 20.6602 18.9234 22.1353" stroke="#0716A0" stroke-width="3.22785" stroke-linecap="round"/>
<path d="M32.8469 17.1022C34.4652 17.1874 36.1006 17.3805 37.722 17.494C39.39 17.6106 41.0662 17.6928 42.7278 17.8857C43.3408 17.9569 44.1434 18.007 44.6756 18.3754C45.0065 18.6044 45.1871 18.8608 45.1871 19.2568C45.1871 19.8291 44.6543 19.6587 44.1751 19.7574C40.4357 20.5273 36.7817 21.4057 33.2387 22.5867" stroke="#0716A0" stroke-width="3.22785" stroke-linecap="round"/>
<path d="M18.9395 23.9579C16.2192 26.4308 12.51 31.9079 12.51 31.9079L10.7562 35.0792C10.7562 35.0792 12.8222 34.8923 13.2808 34.8181C15.5868 34.445 17.7128 33.7342 19.81 32.707C21.7627 31.7505 23.8068 30.6472 25.3598 29.0941C25.6585 28.7955 25.8518 28.2388 26.1869 28.0712" stroke="#0716A0" stroke-width="3.22785" stroke-linecap="round"/>
<path d="M27.476 29.3143C28.8708 30.8642 30.7471 32.0513 32.334 33.4115C33.9203 34.7712 35.5535 36.6417 37.5888 37.3201C38.5527 37.6414 38.1516 35.6036 38.1026 35.1675C38.002 34.272 37.7045 33.4499 37.3092 32.6441C36.9067 31.8236 36.6783 31.0155 36.3727 30.1598C35.9702 29.0329 35.6916 27.7854 35.085 26.7455C34.8533 26.3483 34.4906 25.6153 34.3891 25.1586C34.3255 24.8724 33.9995 23.7964 33.7973 23.6953" stroke="#0716A0" stroke-width="3.22785" stroke-linecap="round"/>
<path d="M26.2152 31.9747C26.2152 34.9368 30.4808 43.62 31.113 46.5" stroke="#0716A0" stroke-width="3.22785" stroke-linecap="round"/>
</svg>
