<svg width="28" height="28" viewBox="0 0 28 28" fill="none" xmlns="http://www.w3.org/2000/svg">
<path fill-rule="evenodd" clip-rule="evenodd" d="M14 1.75C7.23451 1.75 1.75 7.23451 1.75 14C1.75 20.7655 7.23451 26.25 14 26.25C20.7655 26.25 26.25 20.7655 26.25 14C26.25 7.23451 20.7655 1.75 14 1.75ZM11.0412 8.48063C11.0412 9.29836 10.3325 9.96126 9.45812 9.96126C8.58379 9.96126 7.875 9.29836 7.875 8.48063C7.875 7.6629 8.58379 7 9.45812 7C10.3325 7 11.0412 7.6629 11.0412 8.48063ZM8.0915 11.0496H10.7977V19.25H8.0915V11.0496ZM12.4485 11.0496H15.1546V12.1017C15.6089 11.5238 16.481 10.8851 17.8879 10.8851C20.257 10.8851 20.9771 12.1585 21 14.922V19.25H18.2938C18.2938 18.7154 18.2901 18.1778 18.2864 17.6405V17.6402V17.6399V17.6398V17.6397C18.2811 16.8774 18.2759 16.1154 18.2812 15.3625C18.2882 14.3802 18.2971 13.1123 16.8054 13.1123C15.4854 13.1123 15.1546 14.0854 15.1546 15.0542V19.25H12.4485V11.0496Z" fill="#10193A"/>
</svg>
