<svg width="28" height="28" viewBox="0 0 28 28" fill="none" xmlns="http://www.w3.org/2000/svg">
<path d="M24.5 5.25H3.5C3.03587 5.25 2.59075 5.43437 2.26256 5.76256C1.93437 6.09075 1.75 6.53587 1.75 7V21C1.75 21.4641 1.93437 21.9092 2.26256 22.2374C2.59075 22.5656 3.03587 22.75 3.5 22.75H24.5C24.9641 22.75 25.4092 22.5656 25.7374 22.2374C26.0656 21.9092 26.25 21.4641 26.25 21V7C26.25 6.53587 26.0656 6.09075 25.7374 5.76256C25.4092 5.43437 24.9641 5.25 24.5 5.25V5.25ZM22.575 7L14 12.9325L5.425 7H22.575ZM3.5 21V7.79625L13.5013 14.7175C13.6477 14.8191 13.8217 14.8736 14 14.8736C14.1783 14.8736 14.3523 14.8191 14.4987 14.7175L24.5 7.79625V21H3.5Z" fill="#10193A"/>
</svg>
