<svg width="28" height="28" viewBox="0 0 28 28" fill="none" xmlns="http://www.w3.org/2000/svg">
<g clip-path="url(#clip0_26_303)">
<path fill-rule="evenodd" clip-rule="evenodd" d="M17.5001 16.6251L18.124 17.2489C17.6331 17.8731 17.0068 18.3776 16.2924 18.7243C15.578 19.071 14.7942 19.251 14.0001 19.2505C12.328 19.2505 10.8378 18.4674 9.87622 17.2489L10.5005 16.6251C10.9077 17.1688 11.436 17.6102 12.0436 17.914C12.6512 18.2179 13.3212 18.3759 14.0005 18.3755C14.6797 18.3759 15.3497 18.2179 15.9572 17.9141C16.5646 17.6103 17.0929 17.1687 17.5001 16.6251ZM17.5001 11.3759C17.0929 10.8322 16.5646 10.3908 15.957 10.087C15.3495 9.78311 14.6794 9.6251 14.0001 9.62549C13.3209 9.62517 12.6509 9.78321 12.0434 10.0871C11.4359 10.3909 10.9077 10.8322 10.5005 11.3759L9.87666 10.7521C10.3676 10.1279 10.9939 9.6234 11.7082 9.27667C12.4226 8.92993 13.2064 8.75001 14.0005 8.75049C15.6718 8.75049 17.1623 9.53361 18.124 10.7521L17.5001 11.3759Z" fill="#10193A"/>
<path fill-rule="evenodd" clip-rule="evenodd" d="M6.5625 8.75049C3.66494 8.75049 1.3125 11.1029 1.3125 14.0005C1.3125 16.8981 3.66494 19.2505 6.5625 19.2505C9.46006 19.2505 11.8125 16.8981 11.8125 14.0005C11.8125 11.1029 9.46006 8.75049 6.5625 8.75049ZM10.2812 11.6962C10.7114 12.3877 10.9388 13.1861 10.9375 14.0005C10.9388 14.8149 10.7114 15.6133 10.2812 16.3048C9.85111 15.6133 9.62374 14.8149 9.625 14.0005C9.625 13.1552 9.86563 12.3656 10.2812 11.6962ZM21.4375 8.75049C18.5404 8.75049 16.1875 11.1029 16.1875 14.0005C16.1875 16.8981 18.5404 19.2505 21.4375 19.2505C24.3355 19.2505 26.6875 16.8981 26.6875 14.0005C26.6875 11.1029 24.3355 8.75049 21.4375 8.75049ZM17.7188 11.6962C18.1489 12.3877 18.3763 13.1861 18.375 14.0005C18.3763 14.8149 18.1489 15.6133 17.7188 16.3048C17.2886 15.6133 17.0612 14.8149 17.0625 14.0005C17.0625 13.1552 17.3031 12.3656 17.7188 11.6962Z" fill="#10193A"/>
</g>
<defs>
<clipPath id="clip0_26_303">
<rect width="28" height="28" fill="white"/>
</clipPath>
</defs>
</svg>
