<svg width="162" height="162" viewBox="0 0 162 162" fill="none" xmlns="http://www.w3.org/2000/svg">
<path d="M151.79 142.501L134.563 127.519V22.3016C134.558 18.5819 133.078 15.0158 130.448 12.3856C127.818 9.7553 124.252 8.27556 120.532 8.27087H26.1162C22.3952 8.27523 18.8278 9.75569 16.1971 12.3873C13.5664 15.019 12.0872 18.5869 12.0842 22.3079V55.1635V55.1813V106.275C12.0844 106.32 12.0869 106.366 12.0918 106.411C12.1328 108.413 12.9552 110.319 14.3833 111.722C15.8113 113.125 17.7316 113.914 19.7337 113.92H37.6271V132.941C37.6271 133.948 38.0271 134.914 38.7391 135.626C39.4512 136.338 40.417 136.738 41.4239 136.738H122.29L138.691 155.596C139.528 156.556 140.553 157.333 141.703 157.882C142.852 158.43 144.102 158.736 145.375 158.783C145.481 158.783 145.589 158.783 145.695 158.783C147.587 158.783 149.434 158.206 150.988 157.128C152.543 156.051 153.731 154.523 154.394 152.752C155.057 150.98 155.163 149.048 154.698 147.214C154.232 145.381 153.218 143.733 151.79 142.492V142.501Z" fill="#E6E7E8"/>
<path d="M128.234 17.2391C128.234 13.8536 126.89 10.6067 124.496 8.21281C122.102 5.81889 118.855 4.474 115.469 4.474H21.0537C22.7313 4.47334 24.3926 4.80319 25.9427 5.44471C27.4928 6.08624 28.9013 7.02687 30.0877 8.21287C31.2742 9.39887 32.2154 10.807 32.8575 12.3568C33.4997 13.9067 33.8302 15.5678 33.8302 17.2454V127.878C33.8302 128.549 34.0969 129.193 34.5716 129.667C35.0463 130.142 35.6901 130.409 36.3614 130.409H125.703C126.374 130.409 127.018 130.142 127.493 129.667C127.968 129.193 128.234 128.549 128.234 127.878V17.2391Z" fill="#D4FBFF"/>
<path d="M37.627 127.877V17.2454C37.627 15.5683 37.2967 13.9075 36.6548 12.358C36.013 10.8085 35.0723 9.4006 33.8863 8.21466C32.7004 7.02872 31.2925 6.08799 29.743 5.44617C28.1935 4.80434 26.5328 4.474 24.8556 4.474H21.0587C22.7359 4.474 24.3966 4.80434 25.9461 5.44617C27.4956 6.08799 28.9035 7.02872 30.0895 8.21466C31.2754 9.4006 32.2161 10.8085 32.858 12.358C33.4998 13.9075 33.8301 15.5683 33.8301 17.2454V127.877C33.8301 128.549 34.0968 129.193 34.5715 129.667C35.0462 130.142 35.6901 130.409 36.3614 130.409H40.1583C39.4869 130.409 38.8431 130.142 38.3684 129.667C37.8937 129.193 37.627 128.549 37.627 127.877Z" fill="white"/>
<path d="M21.0588 4.474C17.6716 4.474 14.4231 5.81956 12.028 8.21466C9.63291 10.6098 8.28735 13.8582 8.28735 17.2454V101.25C8.29771 102.936 8.97452 104.549 10.17 105.738C11.3656 106.926 12.9828 107.594 14.6686 107.595H33.8302V17.2454C33.8302 15.5683 33.4998 13.9075 32.858 12.358C32.2162 10.8085 31.2755 9.4006 30.0895 8.21466C28.9036 7.02873 27.4957 6.08799 25.9462 5.44617C24.3967 4.80434 22.7359 4.474 21.0588 4.474Z" fill="#0089EF"/>
<path d="M14.6686 107.598C15.5072 107.598 16.3377 107.433 17.1125 107.112C17.8874 106.791 18.5914 106.321 19.1844 105.728C19.7774 105.135 20.2478 104.431 20.5688 103.656C20.8897 102.881 21.0549 102.051 21.0549 101.212V29.0423C21.0549 28.371 21.3216 27.7271 21.7963 27.2524C22.271 26.7777 22.9148 26.511 23.5862 26.511H33.8301V107.598H14.6686Z" fill="#D4FBFF"/>
<path d="M145.897 138.392L118.14 114.256L110.446 121.948L134.584 149.707C135.306 150.538 136.191 151.212 137.184 151.687C138.178 152.162 139.258 152.427 140.358 152.465C141.459 152.504 142.555 152.316 143.58 151.913C144.604 151.509 145.534 150.899 146.313 150.121C147.091 149.342 147.701 148.412 148.104 147.388C148.507 146.363 148.695 145.267 148.656 144.166C148.618 143.066 148.352 141.986 147.878 140.992C147.403 139.999 146.729 139.114 145.897 138.392Z" fill="#FA759E"/>
<path d="M118.645 106.644L118.246 106.245C117.49 105.496 116.515 105.008 115.462 104.853C112.119 110.934 107.115 115.939 101.034 119.281C101.19 120.332 101.678 121.304 102.426 122.058L102.824 122.457C103.291 122.923 103.845 123.294 104.455 123.546C105.064 123.799 105.718 123.929 106.378 123.929C107.038 123.929 107.691 123.799 108.301 123.546C108.91 123.294 109.464 122.923 109.931 122.457L118.635 113.754C119.102 113.288 119.474 112.735 119.727 112.125C119.981 111.515 120.112 110.862 120.113 110.201C120.114 109.541 119.985 108.887 119.733 108.277C119.481 107.666 119.111 107.111 118.645 106.644Z" fill="#FFD7E5"/>
<path d="M83.4047 123.809C103.615 123.809 119.999 107.425 119.999 87.2142C119.999 67.0038 103.615 50.6199 83.4047 50.6199C63.1942 50.6199 46.8104 67.0038 46.8104 87.2142C46.8104 107.425 63.1942 123.809 83.4047 123.809Z" fill="#0089EF"/>
<path d="M83.4047 116.655C99.6645 116.655 112.846 103.474 112.846 87.2142C112.846 70.9544 99.6645 57.7733 83.4047 57.7733C67.1449 57.7733 53.9637 70.9544 53.9637 87.2142C53.9637 103.474 67.1449 116.655 83.4047 116.655Z" fill="#D4FBFF"/>
<path d="M54.956 16.2873H49.7948C48.3968 16.2873 47.2635 17.4206 47.2635 18.8186V23.9798C47.2635 25.3778 48.3968 26.511 49.7948 26.511H54.956C56.354 26.511 57.4873 25.3778 57.4873 23.9798V18.8186C57.4873 17.4206 56.354 16.2873 54.956 16.2873Z" fill="#FA759E"/>
<path d="M54.956 35.2717H49.7948C48.3968 35.2717 47.2635 36.405 47.2635 37.8029V42.9642C47.2635 44.3621 48.3968 45.4954 49.7948 45.4954H54.956C56.354 45.4954 57.4873 44.3621 57.4873 42.9642V37.8029C57.4873 36.405 56.354 35.2717 54.956 35.2717Z" fill="#FA759E"/>
<path d="M128.234 49.3594C127.899 49.3594 127.577 49.4927 127.339 49.7301C127.102 49.9674 126.969 50.2893 126.969 50.625V60.1919C126.969 60.5275 127.102 60.8494 127.339 61.0868C127.577 61.3241 127.899 61.4575 128.234 61.4575C128.57 61.4575 128.892 61.3241 129.129 61.0868C129.367 60.8494 129.5 60.5275 129.5 60.1919V50.625C129.5 50.2893 129.367 49.9674 129.129 49.7301C128.892 49.4927 128.57 49.3594 128.234 49.3594Z" fill="#3A2C60"/>
<path d="M146.728 137.438L129.5 122.457V65.4607C129.5 65.125 129.367 64.8031 129.129 64.5657C128.892 64.3284 128.57 64.195 128.234 64.195C127.899 64.195 127.577 64.3284 127.34 64.5657C127.102 64.8031 126.969 65.125 126.969 65.4607V120.256L119.947 114.149C120.941 112.951 121.451 111.425 121.375 109.87C121.3 108.315 120.645 106.845 119.54 105.749L119.141 105.351C118.604 104.821 117.975 104.395 117.283 104.094C121.283 96.0604 122.296 86.8663 120.14 78.1548C117.984 69.4434 112.801 61.7824 105.516 56.5413C98.2317 51.3001 89.3206 48.8203 80.3758 49.5451C71.4309 50.27 63.0353 54.1522 56.6896 60.4979C50.3439 66.8436 46.4617 75.2391 45.7369 84.184C45.012 93.1289 47.4918 102.04 52.733 109.325C57.9742 116.609 65.6352 121.793 74.3466 123.948C83.058 126.104 92.2522 125.091 100.286 121.091C100.586 121.783 101.012 122.413 101.542 122.949L101.94 123.348C103.036 124.453 104.506 125.108 106.061 125.183C107.616 125.259 109.143 124.749 110.341 123.755L115.024 129.143H36.3614C36.0258 129.143 35.7039 129.01 35.4665 128.772C35.2292 128.535 35.0958 128.213 35.0958 127.877V17.2454C35.0942 14.9844 34.546 12.7574 33.4979 10.754C32.4498 8.75059 30.9329 7.03027 29.0765 5.73962H115.469C118.518 5.74431 121.44 6.95736 123.596 9.11292C125.751 11.2685 126.964 14.1907 126.969 17.2391V45.4967C126.969 45.8324 127.102 46.1543 127.34 46.3916C127.577 46.629 127.899 46.7623 128.234 46.7623C128.57 46.7623 128.892 46.629 129.129 46.3916C129.367 46.1543 129.5 45.8324 129.5 45.4967V17.2391C129.495 13.5194 128.016 9.95331 125.385 7.32305C122.755 4.6928 119.189 3.21306 115.469 3.20837H21.0537C17.3327 3.21273 13.7653 4.69319 11.1346 7.32485C8.50392 9.95651 7.02474 13.5244 7.02173 17.2454V50.0985C7.02173 50.1061 7.02173 50.1124 7.02173 50.12V101.212C7.02215 101.264 7.02553 101.315 7.03185 101.366C7.07674 103.365 7.90075 105.267 9.32813 106.667C10.7555 108.067 12.6733 108.853 14.6724 108.859H32.5646V127.872C32.5646 128.879 32.9646 129.845 33.6766 130.557C34.3887 131.269 35.3545 131.669 36.3614 131.669H117.227L133.629 150.527C134.466 151.487 135.491 152.265 136.64 152.813C137.79 153.361 139.04 153.667 140.312 153.713C140.42 153.713 140.526 153.719 140.632 153.719C142.524 153.72 144.371 153.142 145.926 152.065C147.48 150.987 148.669 149.46 149.332 147.688C149.995 145.916 150.1 143.984 149.635 142.15C149.17 140.317 148.155 138.669 146.728 137.428V137.438ZM9.55298 101.25V17.2454C9.55298 14.1939 10.7652 11.2673 12.9229 9.10959C15.0807 6.95184 18.0072 5.73962 21.0588 5.73962C24.1103 5.73962 27.0368 6.95184 29.1946 9.10959C31.3524 11.2673 32.5646 14.1939 32.5646 17.2454V25.2467H23.585C22.578 25.2467 21.6122 25.6467 20.9002 26.3588C20.1881 27.0708 19.7881 28.0366 19.7881 29.0436V101.212C19.7725 102.556 19.2291 103.84 18.2751 104.786C17.3211 105.733 16.0331 106.266 14.6892 106.271C13.3454 106.276 12.0534 105.752 11.0924 104.813C10.1315 103.873 9.5785 102.594 9.55298 101.25ZM22.3193 101.208V29.0436C22.3193 28.7079 22.4527 28.386 22.69 28.1486C22.9274 27.9113 23.2493 27.778 23.585 27.778H32.5646V106.333H20.35C21.6187 104.929 22.3206 103.104 22.3193 101.212V101.208ZM58.4238 112.19C52.6456 106.41 49.0503 98.8049 48.2506 90.671C47.4509 82.5372 49.4961 74.3777 54.0379 67.5827C58.5797 60.7878 65.337 55.7778 73.1585 53.4065C80.98 51.0351 89.3818 51.4491 96.9323 54.5779C104.483 57.7066 110.715 63.3566 114.567 70.5651C118.418 77.7736 119.652 86.0947 118.056 94.1105C116.461 102.126 112.135 109.341 105.817 114.525C99.4983 119.709 91.5778 122.542 83.4047 122.542C78.7635 122.554 74.1658 121.646 69.8778 119.87C65.5898 118.094 61.6967 115.485 58.4238 112.194V112.19ZM103.733 121.556L103.335 121.157C102.976 120.797 102.696 120.366 102.512 119.891C108.13 116.606 112.808 111.929 116.093 106.311C116.567 106.495 116.998 106.775 117.359 107.133L117.758 107.531C118.462 108.236 118.858 109.192 118.858 110.189C118.858 111.186 118.462 112.142 117.758 112.847L109.046 121.558C108.33 122.242 107.379 122.624 106.388 122.624C105.398 122.624 104.447 122.242 103.731 121.558L103.733 121.556ZM145.411 149.217C144.756 149.872 143.973 150.385 143.111 150.725C142.249 151.064 141.327 151.223 140.401 151.191C139.475 151.158 138.565 150.936 137.729 150.537C136.893 150.138 136.148 149.572 135.54 148.873L112.176 122.006L118.199 115.983L145.067 139.345C145.766 139.953 146.333 140.699 146.731 141.535C147.13 142.371 147.353 143.281 147.385 144.206C147.417 145.132 147.259 146.055 146.919 146.917C146.58 147.779 146.066 148.562 145.411 149.217Z" fill="#3A2C60"/>
<path d="M105.118 65.4999C100.823 61.2051 95.3516 58.2803 89.3948 57.0953C83.438 55.9102 77.2636 56.5182 71.6523 58.8424C66.0411 61.1665 61.2451 65.1024 57.8708 70.1524C54.4965 75.2023 52.6954 81.1394 52.6954 87.2129C52.6954 93.2865 54.4965 99.2236 57.8708 104.274C61.2451 109.323 66.0411 113.259 71.6523 115.583C77.2636 117.908 83.438 118.516 89.3948 117.331C95.3516 116.146 100.823 113.221 105.118 108.926C107.993 106.088 110.275 102.707 111.833 98.9797C113.391 95.2523 114.193 91.2527 114.193 87.2129C114.193 83.1731 113.391 79.1735 111.833 75.4462C110.275 71.7189 107.993 68.3381 105.118 65.4999ZM103.328 107.139C99.3877 111.079 94.3673 113.762 88.9019 114.85C83.4364 115.937 77.7714 115.379 72.6231 113.246C67.4748 111.113 63.0745 107.502 59.9786 102.869C56.8827 98.2353 55.2303 92.788 55.2303 87.2155C55.2303 81.643 56.8827 76.1956 59.9786 71.5622C63.0745 66.9289 67.4748 63.3175 72.6231 61.185C77.7714 59.0524 83.4364 58.4944 88.9019 59.5814C94.3673 60.6684 99.3877 63.3517 103.328 67.292C105.966 69.896 108.061 72.9979 109.49 76.4178C110.92 79.8377 111.656 83.5075 111.656 87.2142C111.656 90.9209 110.92 94.5907 109.49 98.0106C108.061 101.431 105.966 104.532 103.328 107.136V107.139Z" fill="#3A2C60"/>
<path d="M58.7528 18.8186C58.7528 17.8116 58.3528 16.8458 57.6407 16.1338C56.9287 15.4217 55.9629 15.0217 54.9559 15.0217H49.7935C48.7865 15.0217 47.8207 15.4217 47.1087 16.1338C46.3966 16.8458 45.9966 17.8116 45.9966 18.8186V23.9811C45.9966 24.988 46.3966 25.9538 47.1087 26.6659C47.8207 27.3779 48.7865 27.7779 49.7935 27.7779H54.9559C55.9629 27.7779 56.9287 27.3779 57.6407 26.6659C58.3528 25.9538 58.7528 24.988 58.7528 23.9811V18.8186ZM56.2216 23.9811C56.2216 24.3167 56.0882 24.6386 55.8509 24.876C55.6135 25.1133 55.2916 25.2467 54.9559 25.2467H49.7935C49.4578 25.2467 49.1359 25.1133 48.8985 24.876C48.6612 24.6386 48.5278 24.3167 48.5278 23.9811V18.8186C48.5278 18.4829 48.6612 18.161 48.8985 17.9236C49.1359 17.6863 49.4578 17.5529 49.7935 17.5529H54.9559C55.2916 17.5529 55.6135 17.6863 55.8509 17.9236C56.0882 18.161 56.2216 18.4829 56.2216 18.8186V23.9811Z" fill="#3A2C60"/>
<path d="M115.079 20.1336H66.6693C66.3336 20.1336 66.0117 20.2669 65.7744 20.5043C65.537 20.7416 65.4037 21.0635 65.4037 21.3992C65.4037 21.7349 65.537 22.0568 65.7744 22.2941C66.0117 22.5315 66.3336 22.6648 66.6693 22.6648H115.079C115.415 22.6648 115.737 22.5315 115.974 22.2941C116.212 22.0568 116.345 21.7349 116.345 21.3992C116.345 21.0635 116.212 20.7416 115.974 20.5043C115.737 20.2669 115.415 20.1336 115.079 20.1336Z" fill="#3A2C60"/>
<path d="M54.9559 34.0074H49.7935C48.7865 34.0074 47.8207 34.4074 47.1087 35.1194C46.3966 35.8315 45.9966 36.7972 45.9966 37.8042V42.9654C45.9966 43.9724 46.3966 44.9382 47.1087 45.6502C47.8207 46.3623 48.7865 46.7623 49.7935 46.7623H54.9559C55.9629 46.7623 56.9287 46.3623 57.6407 45.6502C58.3528 44.9382 58.7528 43.9724 58.7528 42.9654V37.8042C58.7528 37.3056 58.6546 36.8119 58.4638 36.3512C58.273 35.8906 57.9933 35.472 57.6407 35.1194C57.2882 34.7669 56.8696 34.4872 56.4089 34.2964C55.9483 34.1056 55.4546 34.0074 54.9559 34.0074ZM56.2216 42.9654C56.2216 43.3011 56.0882 43.623 55.8509 43.8604C55.6135 44.0977 55.2916 44.2311 54.9559 44.2311H49.7935C49.4578 44.2311 49.1359 44.0977 48.8985 43.8604C48.6612 43.623 48.5278 43.3011 48.5278 42.9654V37.8042C48.5278 37.4686 48.6612 37.1466 48.8985 36.9093C49.1359 36.6719 49.4578 36.5386 49.7935 36.5386H54.9559C55.2916 36.5386 55.6135 36.6719 55.8509 36.9093C56.0882 37.1466 56.2216 37.4686 56.2216 37.8042V42.9654Z" fill="#3A2C60"/>
<path d="M115.079 39.1192H66.6693C66.3336 39.1192 66.0117 39.2525 65.7744 39.4899C65.537 39.7272 65.4037 40.0492 65.4037 40.3848C65.4037 40.7205 65.537 41.0424 65.7744 41.2798C66.0117 41.5171 66.3336 41.6505 66.6693 41.6505H115.079C115.415 41.6505 115.737 41.5171 115.974 41.2798C116.212 41.0424 116.345 40.7205 116.345 40.3848C116.345 40.0492 116.212 39.7272 115.974 39.4899C115.737 39.2525 115.415 39.1192 115.079 39.1192Z" fill="#3A2C60"/>
<path d="M106.28 85H78.7205C78.5294 85 78.3462 85.158 78.211 85.4393C78.0759 85.7206 78 86.1022 78 86.5C78 86.8978 78.0759 87.2794 78.211 87.5607C78.3462 87.842 78.5294 88 78.7205 88H106.28C106.471 88 106.654 87.842 106.789 87.5607C106.924 87.2794 107 86.8978 107 86.5C107 86.1022 106.924 85.7206 106.789 85.4393C106.654 85.158 106.471 85 106.28 85Z" fill="#3A2C60"/>
<path d="M67.3828 92.5915C71.2661 92.5915 74.4141 89.4435 74.4141 85.5602C74.4141 81.677 71.2661 78.529 67.3828 78.529C63.4996 78.529 60.3516 81.677 60.3516 85.5602C60.3516 89.4435 63.4996 92.5915 67.3828 92.5915Z" fill="#FA759E"/>
<path d="M68.6256 85.4382L70.6407 83.4231C70.8008 83.2573 70.8894 83.0353 70.8874 82.8048C70.8854 82.5744 70.793 82.354 70.63 82.191C70.4671 82.028 70.2466 81.9356 70.0162 81.9336C69.7857 81.9316 69.5637 82.0202 69.398 82.1803L67.3828 84.1965L65.3673 82.1814C65.2868 82.0952 65.1898 82.026 65.0821 81.9781C64.9743 81.9302 64.858 81.9044 64.7401 81.9024C64.6222 81.9003 64.5051 81.922 64.3958 81.9662C64.2864 82.0103 64.1871 82.076 64.1036 82.1594C64.0202 82.2427 63.9544 82.342 63.9102 82.4513C63.8659 82.5606 63.8441 82.6777 63.8461 82.7957C63.848 82.9136 63.8737 83.0299 63.9215 83.1377C63.9694 83.2455 64.0384 83.3425 64.1245 83.4231L66.14 85.4382L64.1245 87.4537C63.9644 87.6195 63.8758 87.8415 63.8778 88.072C63.8799 88.3024 63.9723 88.5228 64.1352 88.6858C64.2982 88.8488 64.5186 88.9412 64.7491 88.9432C64.9795 88.9452 65.2015 88.8566 65.3673 88.6965L67.3828 86.681L69.398 88.6965C69.5637 88.8566 69.7857 88.9452 70.0162 88.9432C70.2466 88.9412 70.4671 88.8488 70.63 88.6858C70.793 88.5228 70.8854 88.3024 70.8874 88.072C70.8894 87.8415 70.8008 87.6195 70.6407 87.4537L68.6256 85.4382Z" fill="white"/>
<path d="M67.3828 78.1778C65.9226 78.1778 64.4952 78.6108 63.2811 79.422C62.067 80.2332 61.1208 81.3863 60.562 82.7353C60.0032 84.0843 59.857 85.5688 60.1419 87.0009C60.4267 88.433 61.1299 89.7485 62.1624 90.781C63.1949 91.8135 64.5104 92.5167 65.9425 92.8015C67.3746 93.0864 68.8591 92.9402 70.2081 92.3814C71.5571 91.8226 72.7102 90.8763 73.5214 89.6622C74.3326 88.4482 74.7656 87.0208 74.7656 85.5606C74.7634 83.6032 73.9848 81.7267 72.6008 80.3426C71.2167 78.9585 69.3402 78.18 67.3828 78.1778ZM67.3828 92.2403C66.0617 92.2403 64.7702 91.8485 63.6718 91.1145C62.5733 90.3806 61.7172 89.3373 61.2116 88.1168C60.706 86.8962 60.5737 85.5532 60.8315 84.2574C61.0892 82.9617 61.7254 81.7715 62.6596 80.8373C63.5937 79.9032 64.7839 79.267 66.0797 79.0092C67.3754 78.7515 68.7185 78.8838 69.939 79.3894C71.1596 79.8949 72.2028 80.7511 72.9368 81.8495C73.6707 82.948 74.0625 84.2395 74.0625 85.5606C74.0605 87.3315 73.356 89.0293 72.1038 90.2816C70.8516 91.5338 69.1538 92.2382 67.3828 92.2403Z" fill="#3A2C60"/>
</svg>
