<svg width="163" height="163" viewBox="0 0 163 163" fill="none" xmlns="http://www.w3.org/2000/svg">
<rect x="8" y="32" width="147" height="100" rx="12" fill="white"/>
<path d="M53.5818 132.256C53.1622 132.256 52.7598 132.09 52.4631 131.793C52.1664 131.496 51.9997 131.094 51.9997 130.674V120.296C51.9997 119.877 52.1664 119.474 52.4631 119.177C52.7598 118.881 53.1622 118.714 53.5818 118.714C54.0013 118.714 54.4037 118.881 54.7004 119.177C54.9971 119.474 55.1638 119.877 55.1638 120.296V130.674C55.1638 131.094 54.9971 131.496 54.7004 131.793C54.4037 132.09 54.0013 132.256 53.5818 132.256V132.256Z" fill="#D4FBFF"/>
<path d="M110.272 132.256C109.852 132.256 109.45 132.09 109.153 131.793C108.856 131.496 108.69 131.094 108.69 130.674V109.924C108.69 109.504 108.856 109.102 109.153 108.805C109.45 108.508 109.852 108.342 110.272 108.342C110.691 108.342 111.094 108.508 111.39 108.805C111.687 109.102 111.854 109.504 111.854 109.924V130.68C111.852 131.099 111.685 131.499 111.388 131.795C111.092 132.09 110.69 132.256 110.272 132.256V132.256Z" fill="#D4FBFF"/>
<path d="M53.5818 51.15C53.1622 51.15 52.7598 50.9834 52.4631 50.6867C52.1664 50.39 51.9997 49.9876 51.9997 49.568V33.106C51.9997 32.6864 52.1664 32.284 52.4631 31.9874C52.7598 31.6907 53.1622 31.524 53.5818 31.524C54.0013 31.524 54.4037 31.6907 54.7004 31.9874C54.9971 32.284 55.1638 32.6864 55.1638 33.106V49.568C55.1638 49.9876 54.9971 50.39 54.7004 50.6867C54.4037 50.9834 54.0013 51.15 53.5818 51.15V51.15Z" fill="#D4FBFF"/>
<path d="M110.272 48.2454C109.852 48.2454 109.45 48.0787 109.153 47.7821C108.856 47.4854 108.69 47.083 108.69 46.6634V33.106C108.69 32.6864 108.856 32.284 109.153 31.9874C109.45 31.6907 109.852 31.524 110.272 31.524C110.691 31.524 111.094 31.6907 111.39 31.9874C111.687 32.284 111.854 32.6864 111.854 33.106V46.6634C111.854 47.083 111.687 47.4854 111.39 47.7821C111.094 48.0787 110.691 48.2454 110.272 48.2454V48.2454Z" fill="#D4FBFF"/>
<path d="M126.522 77.275C126.102 77.275 125.7 77.1083 125.403 76.8117C125.106 76.515 124.94 76.1126 124.94 75.693V71.8961C124.94 71.4765 125.106 71.0741 125.403 70.7775C125.7 70.4808 126.102 70.3141 126.522 70.3141C126.941 70.3141 127.344 70.4808 127.64 70.7775C127.937 71.0741 128.104 71.4765 128.104 71.8961V75.693C128.104 76.1126 127.937 76.515 127.64 76.8117C127.344 77.1083 126.941 77.275 126.522 77.275V77.275Z" fill="#F46275"/>
<path d="M105.241 105.907H105.235C103.974 105.907 102.716 105.804 101.472 105.598C101.267 105.565 101.07 105.491 100.894 105.381C100.718 105.271 100.565 105.128 100.444 104.959C100.323 104.79 100.236 104.599 100.189 104.396C100.142 104.194 100.135 103.984 100.169 103.779C100.203 103.574 100.277 103.378 100.387 103.202C100.496 103.025 100.64 102.872 100.809 102.751C100.978 102.63 101.169 102.544 101.371 102.497C101.574 102.45 101.783 102.443 101.988 102.477C103.062 102.654 104.148 102.743 105.236 102.743H105.24C106.432 102.744 107.621 102.638 108.793 102.426C108.998 102.389 109.208 102.392 109.411 102.436C109.614 102.479 109.806 102.563 109.977 102.681C110.148 102.799 110.294 102.949 110.407 103.124C110.52 103.298 110.597 103.493 110.635 103.698C110.672 103.902 110.669 104.112 110.625 104.315C110.581 104.518 110.498 104.711 110.38 104.882C110.262 105.053 110.111 105.199 109.937 105.312C109.762 105.424 109.567 105.502 109.363 105.539C108.003 105.785 106.623 105.908 105.241 105.907ZM94.7994 103.178C94.5274 103.178 94.2602 103.108 94.0235 102.974C91.7145 101.673 89.6488 99.9817 87.9188 97.9744C87.783 97.8171 87.6795 97.6346 87.6143 97.4373C87.549 97.2401 87.5232 97.0319 87.5384 96.8247C87.5536 96.6174 87.6095 96.4152 87.7028 96.2296C87.7961 96.044 87.9251 95.8785 88.0824 95.7427C88.2396 95.6069 88.4221 95.5035 88.6194 95.4382C88.8167 95.3729 89.0248 95.3472 89.2321 95.3623C89.4393 95.3775 89.6415 95.4334 89.8271 95.5267C90.0128 95.6201 90.1782 95.749 90.314 95.9063C91.8054 97.6374 93.5863 99.0962 95.5771 100.218C95.8818 100.389 96.121 100.657 96.2574 100.979C96.3937 101.301 96.4194 101.66 96.3305 101.998C96.2417 102.336 96.0432 102.636 95.7662 102.849C95.4891 103.063 95.1491 103.178 94.7994 103.178V103.178ZM115.966 103.01C115.619 103.01 115.28 102.896 115.004 102.685C114.727 102.474 114.528 102.178 114.437 101.842C114.346 101.506 114.368 101.15 114.5 100.828C114.632 100.506 114.866 100.237 115.166 100.061C117.139 98.9085 118.897 97.4219 120.361 95.6677C120.63 95.3474 121.016 95.1469 121.433 95.1104C121.85 95.0738 122.265 95.204 122.586 95.4726C122.907 95.7412 123.109 96.1261 123.147 96.5431C123.184 96.9601 123.056 97.3751 122.788 97.6972C121.09 99.7316 119.052 101.456 116.764 102.793C116.522 102.934 116.247 103.009 115.967 103.01H115.966ZM85.3439 92.2195C85.0234 92.2196 84.7105 92.1224 84.4465 91.9407C84.1825 91.7589 83.98 91.5014 83.8656 91.202C82.9197 88.7256 82.413 86.1031 82.3684 83.4526C82.3608 83.033 82.5203 82.6276 82.8116 82.3256C83.103 82.0235 83.5024 81.8496 83.922 81.8421C84.3415 81.8345 84.7469 81.9939 85.049 82.2853C85.351 82.5766 85.5249 82.976 85.5325 83.3956C85.5706 85.6792 86.0066 87.9386 86.8209 90.0724C86.9125 90.3119 86.9445 90.5701 86.9141 90.8248C86.8838 91.0794 86.792 91.3229 86.6466 91.5341C86.5013 91.7454 86.3068 91.9182 86.0798 92.0376C85.8529 92.157 85.6003 92.2194 85.3439 92.2195V92.2195ZM125.243 91.8993C124.988 91.8994 124.738 91.8382 124.512 91.7208C124.286 91.6034 124.092 91.4333 123.946 91.2249C123.801 91.0166 123.707 90.7761 123.674 90.524C123.641 90.2718 123.669 90.0153 123.756 89.7763C124.536 87.629 124.936 85.362 124.937 83.0773C124.937 82.6577 125.104 82.2553 125.4 81.9586C125.697 81.662 126.1 81.4953 126.519 81.4953C126.939 81.4953 127.341 81.662 127.638 81.9586C127.934 82.2553 128.101 82.6577 128.101 83.0773C128.099 85.7287 127.635 88.3594 126.73 90.8514C126.62 91.1575 126.419 91.4223 126.153 91.6098C125.887 91.7973 125.57 91.8984 125.245 91.8993H125.243ZM83.9517 77.6206C83.5321 77.6206 83.1297 77.4539 82.833 77.1572C82.5363 76.8605 82.3697 76.4581 82.3697 76.0385V73.5244C82.3712 72.0199 82.2014 70.5202 81.8634 69.0542C81.7686 68.6454 81.84 68.2157 82.062 67.8597C82.284 67.5036 82.6383 67.2503 83.0471 67.1554C83.4558 67.0606 83.8855 67.132 84.2416 67.354C84.5977 67.576 84.851 67.9303 84.9458 68.3391C85.3387 70.0395 85.5367 71.7791 85.5363 73.5244V76.0385C85.5363 76.2465 85.4953 76.4524 85.4156 76.6445C85.3359 76.8366 85.2192 77.0112 85.072 77.1581C84.9248 77.305 84.7501 77.4215 84.5579 77.5009C84.3657 77.5802 84.1597 77.6209 83.9517 77.6206V77.6206ZM41.5817 72.1746C41.3556 72.1748 41.1321 72.1265 40.9262 72.0331C40.7203 71.9396 40.5369 71.8031 40.3882 71.6327C40.2395 71.4623 40.1291 71.2621 40.0644 71.0454C39.9997 70.8288 39.9821 70.6008 40.013 70.3768C40.3726 67.7496 41.1904 65.206 42.4291 62.8615C42.526 62.6777 42.6583 62.5149 42.8182 62.3823C42.9781 62.2496 43.1626 62.1498 43.3611 62.0884C43.5596 62.0271 43.7682 62.0054 43.9751 62.0247C44.1819 62.044 44.383 62.1038 44.5667 62.2008C44.7504 62.2978 44.9133 62.43 45.0459 62.5899C45.1786 62.7498 45.2784 62.9343 45.3398 63.1328C45.4011 63.3313 45.4228 63.54 45.4035 63.7468C45.3842 63.9537 45.3243 64.1547 45.2274 64.3385C44.1604 66.3567 43.4557 68.5466 43.1454 70.8083C43.0933 71.1867 42.9061 71.5334 42.6184 71.7845C42.3306 72.0356 41.9617 72.1742 41.5798 72.1746H41.5817ZM80.525 63.519C80.261 63.5193 80.0011 63.4537 79.769 63.3279C79.5369 63.2021 79.3399 63.0202 79.1961 62.7988C77.951 60.8825 76.3828 59.1968 74.5614 57.8167C74.3932 57.6921 74.2515 57.5354 74.1443 57.3556C74.0372 57.1759 73.9668 56.9767 73.9371 56.7695C73.9075 56.5623 73.9193 56.3514 73.9718 56.1488C74.0243 55.9462 74.1164 55.7561 74.2429 55.5893C74.3694 55.4226 74.5277 55.2827 74.7087 55.1776C74.8896 55.0725 75.0896 55.0043 75.2971 54.977C75.5046 54.9498 75.7155 54.9639 75.9174 55.0187C76.1194 55.0735 76.3085 55.1678 76.4737 55.2962C78.5858 56.8968 80.4043 58.8516 81.8482 61.0738C82.0036 61.3125 82.0917 61.5887 82.1032 61.8733C82.1146 62.1579 82.049 62.4403 81.9133 62.6907C81.7776 62.9411 81.5768 63.1503 81.3321 63.296C81.0875 63.4418 80.8079 63.5188 80.5231 63.519H80.525ZM48.3244 59.3734C48.0053 59.3734 47.6936 59.277 47.4303 59.0967C47.1671 58.9164 46.9645 58.6607 46.8491 58.3632C46.7338 58.0656 46.7112 57.7402 46.7841 57.4296C46.8571 57.1189 47.0223 56.8376 47.2581 56.6226C49.2154 54.8345 51.4695 53.4012 53.919 52.3872C54.3069 52.2265 54.7427 52.2264 55.1306 52.3871C55.5185 52.5477 55.8267 52.8558 55.9874 53.2437C56.1481 53.6315 56.1481 54.0674 55.9875 54.4552C55.8269 54.8431 55.5187 55.1513 55.1309 55.312C53.0202 56.1855 51.0781 57.4204 49.3919 58.9615C49.1002 59.2276 48.7192 59.3747 48.3244 59.3734V59.3734ZM68.985 54.7754C68.8259 54.7754 68.6676 54.7515 68.5155 54.7045C66.3335 54.0289 64.0509 53.7364 61.7691 53.8401C61.3495 53.8591 60.9396 53.7106 60.6295 53.4273C60.3194 53.144 60.1345 52.7492 60.1155 52.3296C60.0966 51.91 60.2451 51.5001 60.5283 51.19C60.8116 50.8799 61.2065 50.695 61.6261 50.676C64.2734 50.5579 66.9213 50.8972 69.4533 51.679C69.8149 51.7911 70.1244 52.0291 70.3255 52.3498C70.5265 52.6705 70.606 53.0527 70.5493 53.427C70.4927 53.8013 70.3037 54.1429 70.0166 54.3897C69.7296 54.6365 69.3636 54.7723 68.985 54.7722V54.7754Z" fill="#F46275"/>
<path d="M41.378 83.4304C40.9584 83.4304 40.556 83.2637 40.2593 82.9671C39.9626 82.6704 39.7959 82.268 39.7959 81.8484V78.0515C39.7959 77.6319 39.9626 77.2295 40.2593 76.9328C40.556 76.6362 40.9584 76.4695 41.378 76.4695C41.7975 76.4695 42.1999 76.6362 42.4966 76.9328C42.7933 77.2295 42.96 77.6319 42.96 78.0515V81.8484C42.96 82.268 42.7933 82.6704 42.4966 82.9671C42.1999 83.2637 41.7975 83.4304 41.378 83.4304V83.4304Z" fill="#F46275"/>
<path d="M125.176 62.9368H125.097C124.876 62.9257 124.66 62.8685 124.463 62.7689C124.265 62.6693 124.091 62.5295 123.951 62.3584L120.198 57.7705C120.062 57.6103 119.96 57.4246 119.896 57.2243C119.833 57.024 119.81 56.8132 119.83 56.604C119.849 56.3948 119.909 56.1916 120.008 56.0061C120.106 55.8206 120.241 55.6565 120.403 55.5235C120.566 55.3905 120.753 55.2912 120.954 55.2314C121.156 55.1715 121.367 55.1524 121.576 55.1751C121.785 55.1977 121.987 55.2618 122.171 55.3634C122.354 55.465 122.516 55.6022 122.646 55.767L125.293 59.002L130.939 53.3566C131.085 53.2055 131.259 53.085 131.452 53.0021C131.645 52.9192 131.853 52.8755 132.063 52.8737C132.273 52.8719 132.481 52.9119 132.676 52.9915C132.87 53.071 133.047 53.1885 133.195 53.337C133.344 53.4856 133.461 53.6622 133.541 53.8566C133.62 54.0511 133.66 54.2594 133.659 54.4694C133.657 54.6795 133.613 54.8871 133.53 55.0801C133.447 55.2731 133.327 55.4477 133.176 55.5936L126.294 62.4736C125.997 62.7701 125.595 62.9367 125.176 62.9368V62.9368Z" fill="#F46275"/>
<path d="M41.378 80.2664C37.4451 80.2664 33.6005 81.4326 30.3305 83.6176C27.0604 85.8026 24.5117 88.9082 23.0067 92.5418C21.5017 96.1753 21.1079 100.173 21.8752 104.031C22.6425 107.888 24.5365 111.431 27.3175 114.212C30.0985 116.993 33.6417 118.887 37.499 119.654C41.3563 120.421 45.3545 120.027 48.988 118.522C52.6215 117.017 55.727 114.468 57.9119 111.198C60.0968 107.928 61.263 104.083 61.2628 100.151C61.2566 94.8788 59.1596 89.8246 55.4318 86.0969C51.704 82.3692 46.6498 80.2724 41.378 80.2664V80.2664ZM35.4454 115.78C35.453 115.73 35.4581 115.679 35.4605 115.628V108.152C35.4614 107.527 35.7099 106.929 36.1515 106.487C36.5932 106.046 37.192 105.797 37.8165 105.797H45.1173C45.7418 105.797 46.3405 106.046 46.7822 106.487C47.2239 106.929 47.4724 107.527 47.4732 108.152V115.628C47.4732 115.657 47.4802 115.684 47.4814 115.713C43.6179 117.234 39.3257 117.258 35.4454 115.78V115.78ZM41.378 101.387C40.6083 101.387 39.856 101.159 39.216 100.732C38.576 100.304 38.0772 99.6965 37.7825 98.9855C37.4879 98.2745 37.4108 97.4921 37.5609 96.7372C37.7109 95.9824 38.0815 95.289 38.6256 94.7447C39.1698 94.2004 39.8631 93.8298 40.618 93.6796C41.3728 93.5294 42.1552 93.6064 42.8663 93.9009C43.5773 94.1954 44.1851 94.6941 44.6127 95.3341C45.0403 95.974 45.2685 96.7263 45.2685 97.4959C45.2672 98.5274 44.8569 99.5163 44.1275 100.246C43.3982 100.975 42.4094 101.386 41.378 101.387ZM50.6373 114.066V108.152C50.635 106.859 50.1794 105.608 49.3498 104.616C48.5202 103.625 47.3691 102.955 46.0968 102.725C47.1588 101.769 47.9056 100.514 48.2385 99.1243C48.5714 97.735 48.4746 96.2773 47.961 94.9442C47.4474 93.6111 46.5412 92.4652 45.3622 91.6583C44.1833 90.8514 42.7871 90.4215 41.3585 90.4253C39.9298 90.4292 38.536 90.8666 37.3614 91.6799C36.1868 92.4931 35.2867 93.6438 34.7803 94.9797C34.2739 96.3155 34.185 97.7737 34.5253 99.1612C34.8657 100.549 35.6192 101.8 36.6863 102.75C35.4463 103.011 34.3335 103.69 33.5344 104.673C32.7352 105.657 32.2982 106.885 32.2965 108.152V114.179C29.2751 112.224 26.9653 109.346 25.7104 105.973C24.4556 102.6 24.3226 98.9121 25.3313 95.4574C26.34 92.0028 28.4365 88.9659 31.3092 86.798C34.1819 84.6302 37.6774 83.4471 41.2762 83.4248C44.875 83.4024 48.385 84.542 51.2844 86.674C54.1838 88.806 56.3179 91.8166 57.3694 95.2585C58.4209 98.7003 58.3338 102.39 57.1209 105.778C55.908 109.166 53.6341 112.073 50.6373 114.066V114.066Z" fill="#3A2C60"/>
<path d="M126.522 41.8002C123.389 41.8 120.326 42.7289 117.722 44.4693C115.117 46.2097 113.086 48.6835 111.888 51.5777C110.689 54.472 110.375 57.6568 110.986 60.7294C111.597 63.802 113.106 66.6243 115.321 68.8395C117.536 71.0547 120.358 72.5633 123.431 73.1744C126.504 73.7856 129.688 73.4719 132.583 72.2729C135.477 71.074 137.951 69.0438 139.691 66.4389C141.432 63.8341 142.36 60.7716 142.36 57.6388C142.356 53.4396 140.685 49.4137 137.716 46.4444C134.747 43.4751 130.721 41.8049 126.522 41.8002ZM126.522 70.3141C124.015 70.3142 121.564 69.5709 119.479 68.1782C117.395 66.7855 115.77 64.806 114.811 62.4899C113.851 60.1738 113.6 57.6252 114.089 55.1664C114.578 52.7076 115.785 50.449 117.558 48.6763C119.331 46.9036 121.589 45.6963 124.048 45.2072C126.507 44.7181 129.055 44.969 131.371 45.9284C133.688 46.8877 135.667 48.5123 137.06 50.5968C138.453 52.6812 139.196 55.1319 139.196 57.6388C139.193 60.9993 137.856 64.221 135.48 66.5973C133.104 68.9735 129.882 70.3102 126.522 70.3141V70.3141Z" fill="#3A2C60"/>
<path d="M147.528 31.3177H16.3249C14.2277 31.32 12.2171 32.1542 10.7342 33.6371C9.25125 35.12 8.41711 37.1307 8.41476 39.2278V124.552C8.41711 126.65 9.25125 128.66 10.7342 130.143C12.2171 131.626 14.2277 132.46 16.3249 132.463H147.528C149.626 132.46 151.636 131.626 153.119 130.143C154.602 128.66 155.436 126.65 155.439 124.552V39.2278C155.436 37.1307 154.602 35.12 153.119 33.6371C151.636 32.1542 149.626 31.32 147.528 31.3177V31.3177ZM152.275 124.552C152.273 125.811 151.773 127.017 150.883 127.907C149.993 128.797 148.787 129.297 147.528 129.299H16.3249C15.0666 129.297 13.8603 128.797 12.9706 127.907C12.0808 127.017 11.5803 125.811 11.5788 124.552V39.2278C11.5803 37.9696 12.0808 36.7633 12.9706 35.8735C13.8603 34.9838 15.0666 34.4833 16.3249 34.4818H147.528C148.787 34.4833 149.993 34.9838 150.883 35.8735C151.773 36.7633 152.273 37.9696 152.275 39.2278V124.552Z" fill="#3A2C60"/>
<path d="M110.272 97.7104C109.852 97.7104 109.45 97.5438 109.153 97.2471C108.856 96.9504 108.69 96.548 108.69 96.1284V73.98C108.69 73.5604 108.856 73.158 109.153 72.8613C109.45 72.5646 109.852 72.3979 110.272 72.3979C110.691 72.3979 111.094 72.5646 111.39 72.8613C111.687 73.158 111.854 73.5604 111.854 73.98V96.1284C111.854 96.548 111.687 96.9504 111.39 97.2471C111.094 97.5438 110.691 97.7104 110.272 97.7104Z" fill="#D4FBFF"/>
<path d="M53.5818 79.8651C53.1622 79.8651 52.7598 79.6985 52.4631 79.4018C52.1664 79.1051 51.9997 78.7027 51.9997 78.2831V61.3547C51.9997 60.9352 52.1664 60.5328 52.4631 60.2361C52.7598 59.9394 53.1622 59.7727 53.5818 59.7727C54.0013 59.7727 54.4037 59.9394 54.7004 60.2361C54.9971 60.5328 55.1638 60.9352 55.1638 61.3547V78.2831C55.1638 78.7027 54.9971 79.1051 54.7004 79.4018C54.4037 79.6985 54.0013 79.8651 53.5818 79.8651V79.8651Z" fill="#D4FBFF"/>
</svg>
