<svg width="32" height="32" viewBox="0 0 32 32" fill="none" xmlns="http://www.w3.org/2000/svg">
<g clip-path="url(#clip0_316_707)">
<path fill-rule="evenodd" clip-rule="evenodd" d="M20 19L20.713 19.713C20.152 20.4263 19.4362 21.0029 18.6198 21.3991C17.8033 21.7954 16.9075 22.001 16 22.0005C14.089 22.0005 12.386 21.1055 11.287 19.713L12.0005 19C12.4658 19.6214 13.0697 20.1258 13.764 20.4731C14.4584 20.8204 15.2241 21.0009 16.0005 21.0005C16.7767 21.0009 17.5424 20.8204 18.2366 20.4732C18.9309 20.126 19.5347 19.6218 20 19.0005V19ZM20 13.001C19.5347 12.3795 18.9308 11.8752 18.2365 11.5279C17.5421 11.1806 16.7764 11 16 11.0005C15.2237 11.0001 14.4581 11.1807 13.7638 11.528C13.0695 11.8753 12.4658 12.3796 12.0005 13.001L11.2875 12.288C11.8485 11.5747 12.5643 10.9981 13.3807 10.6018C14.1972 10.2056 15.093 9.99994 16.0005 10.0005C17.9105 10.0005 19.614 10.8955 20.713 12.288L20 13.001V13.001Z" fill="black"/>
<path fill-rule="evenodd" clip-rule="evenodd" d="M7.5 10.0005C4.1885 10.0005 1.5 12.689 1.5 16.0005C1.5 19.312 4.1885 22.0005 7.5 22.0005C10.8115 22.0005 13.5 19.312 13.5 16.0005C13.5 12.689 10.8115 10.0005 7.5 10.0005V10.0005ZM11.75 13.367C12.2416 14.1573 12.5014 15.0698 12.5 16.0005C12.5014 16.9312 12.2416 17.8437 11.75 18.634C11.2584 17.8437 10.9986 16.9312 11 16.0005C11 15.0345 11.275 14.132 11.75 13.367V13.367ZM24.5 10.0005C21.189 10.0005 18.5 12.689 18.5 16.0005C18.5 19.312 21.189 22.0005 24.5 22.0005C27.812 22.0005 30.5 19.312 30.5 16.0005C30.5 12.689 27.812 10.0005 24.5 10.0005V10.0005ZM20.25 13.367C20.7416 14.1573 21.0014 15.0698 21 16.0005C21.0014 16.9312 20.7416 17.8437 20.25 18.634C19.7584 17.8437 19.4986 16.9312 19.5 16.0005C19.5 15.0345 19.775 14.132 20.25 13.367V13.367Z" fill="black"/>
</g>
<defs>
<clipPath id="clip0_316_707">
<rect width="32" height="32" fill="white"/>
</clipPath>
</defs>
</svg>
