<svg width="162" height="162" viewBox="0 0 162 162" fill="none" xmlns="http://www.w3.org/2000/svg">
<path d="M144.938 147.048H136.975C136.4 143.076 132.982 140.012 128.852 140.012H82.8783C84.7677 137.582 87.5753 133.039 87.6249 127.435C87.6687 122.443 85.5122 117.732 81.2145 113.435C69.8696 102.089 78.4566 90.1081 80.7407 87.3312C83.091 89.5361 88.4864 93.744 95.464 93.7428C97.8272 93.7428 100.374 93.2595 103.042 92.0507C113.515 87.3064 118.427 74.8601 120.052 69.7295C120.569 68.0952 119.776 66.3452 118.205 65.6563C113.277 63.4951 100.687 58.9777 90.2104 63.722C76.9417 69.733 79.1644 85.2787 79.1892 85.4347C79.1927 85.4548 79.2022 85.4725 79.2069 85.4926C78.8902 85.8707 78.3561 86.5442 77.7263 87.4671C77.1331 83.6338 74.9613 76.5499 67.0277 74.1701C59.1793 71.8186 50.8002 75.5455 46.5085 77.9785C44.6191 79.0467 43.9136 81.3994 44.9015 83.3313C47.1466 87.7271 52.0847 95.4515 59.9379 97.8076C61.4492 98.2614 62.879 98.4564 64.2237 98.4564C68.5095 98.4564 71.9091 96.4665 74.2322 94.4896C72.3664 100.217 72.2612 107.821 79.5461 115.106C83.3722 118.932 85.2959 123.066 85.264 127.394C85.2156 133.863 80.7951 138.929 79.7765 140.011H36.9927C34.8067 140.011 32.7483 140.867 31.1956 142.419C29.9194 143.696 29.1218 145.308 28.869 147.047H20.907C20.2536 147.047 19.7254 147.575 19.7254 148.228C19.7254 148.882 20.2536 149.41 20.907 149.41H29.9549H135.887H144.936C145.589 149.41 146.117 148.882 146.117 148.228C146.117 147.575 145.592 147.048 144.938 147.048Z" fill="#E6E7E8"/>
<path d="M131.163 143.504H25.2307C25.2307 141.567 26.0307 139.804 27.3056 138.529C28.5806 137.254 30.3307 136.467 32.2674 136.467H124.127C127.989 136.467 131.163 139.63 131.163 143.504Z" fill="#4671C6"/>
<path d="M61.962 70.5767C54.429 68.3162 46.2225 72.0927 42.3621 74.2811C41.0257 75.0386 40.527 76.7 41.2253 78.0683C43.2436 82.0197 48.0151 89.6898 55.548 91.9503C65.8413 95.0391 72.039 85.2503 72.039 85.2503C72.039 85.2503 72.2553 73.6655 61.962 70.5767Z" fill="#BED38E"/>
<path d="M113.005 62.0133C108.518 60.0447 96.102 55.486 85.9718 60.0743C73.3649 65.7851 75.6301 80.532 75.6301 80.532C75.6301 80.532 85.2215 91.9597 97.8284 86.2488C107.957 81.6605 112.718 69.3206 114.199 64.6484C114.533 63.592 114.02 62.4588 113.005 62.0133Z" fill="#BED38E"/>
<path d="M85.972 63.6192C96.101 59.0309 108.517 63.5897 113.006 65.5583C113.286 65.6812 113.523 65.8596 113.719 66.0711C113.902 65.55 114.068 65.0608 114.199 64.6484C114.533 63.5908 114.021 62.4588 113.006 62.0133C108.518 60.0447 96.1022 55.486 85.972 60.0743C75.2273 64.9415 75.2864 76.3656 75.5369 79.6364C75.8784 74.8188 77.7985 67.3213 85.972 63.6192Z" fill="white"/>
<path d="M100.966 135.286C100.312 135.286 99.7841 135.814 99.7841 136.467C99.7841 137.121 100.312 137.649 100.966 137.649H109.385C110.038 137.649 110.567 137.121 110.567 136.467C110.567 135.814 110.038 135.286 109.385 135.286H100.966Z" fill="#3A2C60"/>
<path d="M140.212 142.321H132.248C131.673 138.35 128.256 135.286 124.126 135.286H114.258C113.605 135.286 113.076 135.814 113.076 136.467C113.076 137.121 113.605 137.649 114.258 137.649H124.126C126.95 137.649 129.312 139.658 129.86 142.321H26.5328C26.7621 141.214 27.3127 140.192 28.1399 139.365C29.2471 138.258 30.7123 137.649 32.2662 137.649H96.0678C96.7212 137.649 97.2494 137.121 97.2494 136.467C97.2494 135.814 96.7212 135.286 96.0678 135.286H78.1517C80.0412 132.855 82.8487 128.313 82.8984 122.708C82.9421 117.716 80.7856 113.006 76.488 108.708C65.143 97.3622 73.73 85.3815 76.0141 82.6046C78.3644 84.8096 83.7598 89.0174 90.7374 89.0162C93.1007 89.0162 95.6471 88.5329 98.3153 87.3241C108.788 82.5798 113.7 70.1336 115.325 65.0029C115.843 63.3687 115.05 61.6187 113.478 60.9298C108.551 58.7685 95.9602 54.2511 85.4838 58.9954C72.2151 65.0064 74.4378 80.5521 74.4626 80.7081C74.4662 80.7282 74.4756 80.7459 74.4803 80.766C74.1637 81.1441 73.6296 81.8177 72.9997 82.7405C72.4066 78.9073 70.2347 71.8233 62.3011 69.4435C54.4527 67.092 46.0737 70.8189 41.7819 73.2519C39.8925 74.3201 39.187 76.6728 40.1749 78.6048C42.42 83.0005 47.3581 90.7249 55.2113 93.0811C56.7226 93.5348 58.1524 93.7298 59.4971 93.7298C63.7829 93.7298 67.1825 91.7399 69.5056 89.763C67.6398 95.4904 67.5346 103.094 74.8195 110.379C78.6456 114.205 80.5693 118.34 80.5374 122.667C80.489 129.137 76.0685 134.202 75.0499 135.285H32.2662C30.0801 135.285 28.0217 136.14 26.469 137.693C25.1928 138.969 24.3952 140.582 24.1424 142.32H16.1816C15.5282 142.32 15 142.848 15 143.502C15 144.155 15.5282 144.683 16.1816 144.683H140.212C140.865 144.683 141.393 144.155 141.393 143.502C141.393 142.848 140.865 142.321 140.212 142.321ZM86.461 61.1507C96.063 56.8011 107.892 61.0609 112.532 63.0957C112.992 63.2978 113.225 63.8106 113.074 64.2915C111.544 69.1197 106.948 80.8204 97.3416 85.1723C87.9463 89.4322 80.3826 83.557 77.6365 80.9208L95.6672 72.7545C96.2627 72.4839 96.5262 71.7855 96.2568 71.19C95.9874 70.5956 95.2879 70.3309 94.6935 70.6015L76.677 78.7619C76.5388 74.9618 77.1709 65.3574 86.461 61.1507ZM55.8884 90.8182C48.8777 88.7149 44.352 81.5896 42.2782 77.5307C41.8682 76.7283 42.1601 75.7523 42.9447 75.3092C46.9091 73.0617 54.6039 69.603 61.6217 71.7087C68.8297 73.8711 70.4119 80.5403 70.7582 83.6315L56.4166 79.3291C55.7903 79.1448 55.1321 79.4969 54.9454 80.122C54.7587 80.7459 55.1132 81.4053 55.7383 81.5932L70.0657 85.892C68.0569 88.2659 63.0219 92.957 55.8884 90.8182Z" fill="#3A2C60"/>
<path d="M29.7503 26.1638C26.1108 26.1638 23.1603 29.1143 23.1603 32.7538C23.1603 36.3933 26.1108 39.3426 29.7503 39.3426C33.3898 39.3426 36.3403 36.3921 36.3403 32.7538C36.3403 29.1155 33.3898 26.1638 29.7503 26.1638Z" fill="#FA759E"/>
<path d="M19.1805 33.9343H22.0779C22.2716 35.1951 22.7667 36.3543 23.4911 37.3398L21.4398 39.3911C20.9777 39.8531 20.9777 40.5999 21.4398 41.0619C21.6702 41.2923 21.9727 41.4081 22.2752 41.4081C22.5777 41.4081 22.8802 41.2923 23.1106 41.0619L25.1619 39.0106C26.1474 39.7349 27.3066 40.23 28.5674 40.4238V43.3212C28.5674 43.9747 29.0956 44.5029 29.7491 44.5029C30.4025 44.5029 30.9307 43.9747 30.9307 43.3212V40.4238C32.1915 40.23 33.3507 39.7349 34.3362 39.0106L36.3875 41.0619C36.618 41.2923 36.9205 41.4081 37.223 41.4081C37.5255 41.4081 37.828 41.2923 38.0584 41.0619C38.5204 40.5999 38.5204 39.8531 38.0584 39.3911L36.0071 37.3398C36.7314 36.3543 37.2265 35.1939 37.4203 33.9331H40.3177C40.9711 33.9331 41.4993 33.4049 41.4993 32.7514C41.4993 32.098 40.9711 31.5698 40.3177 31.5698H37.4203C37.2265 30.309 36.7314 29.1498 36.0071 28.1643L38.0584 26.113C38.5204 25.6509 38.5204 24.9041 38.0584 24.4421C37.5964 23.9801 36.8496 23.9801 36.3875 24.4421L34.3362 26.4935C33.3507 25.7691 32.1915 25.274 30.9307 25.0802V22.1816C30.9307 21.5282 30.4025 21 29.7491 21C29.0956 21 28.5674 21.5282 28.5674 22.1816V25.0802C27.3066 25.274 26.1474 25.7691 25.1631 26.4935L23.1118 24.4421C22.6498 23.9801 21.903 23.9801 21.4409 24.4421C20.9789 24.9041 20.9789 25.6509 21.4409 26.113L23.4923 28.1643C22.7679 29.1498 22.2728 30.309 22.079 31.5698H19.1816C18.5282 31.5698 18 32.098 18 32.7514C18 33.4049 18.527 33.9343 19.1805 33.9343ZM35.1586 32.7526C35.1586 35.7339 32.7315 38.1598 29.7503 38.1598C26.769 38.1598 24.3431 35.7339 24.3431 32.7526C24.3431 29.7713 26.769 27.3454 29.7503 27.3454C32.7315 27.3454 35.1586 29.7713 35.1586 32.7526Z" fill="#3A2C60"/>
</svg>
