<svg width="162" height="162" viewBox="0 0 162 162" fill="none" xmlns="http://www.w3.org/2000/svg">
<path d="M62.6484 38.9648H72.1406C72.8392 38.9648 73.4062 38.3978 73.4062 37.6992C73.4062 27.9285 81.3544 19.9804 91.125 19.9804C100.896 19.9804 108.844 27.9285 108.844 37.6992C108.844 45.6485 103.6 52.5475 96.0078 54.7142L92.0198 50.7262C91.6591 50.3643 91.1149 50.2567 90.6403 50.4516C90.1682 50.6478 89.8594 51.1097 89.8594 51.621V67.4413C89.8594 68.14 90.4264 68.707 91.125 68.707H106.945C107.457 68.707 107.92 68.3982 108.115 67.9261C108.311 67.4527 108.202 66.9085 107.84 66.5466L105.195 63.9014C114.772 58.7478 120.867 48.6519 120.867 37.6992C120.867 21.2992 107.525 7.95697 91.125 7.95697C74.725 7.95697 61.3828 21.2992 61.3828 37.6992C61.3828 38.399 61.9498 38.9648 62.6484 38.9648Z" fill="#E6E7E8"/>
<path d="M77.2031 113.004V97.1836C77.2031 96.6722 76.8943 96.2103 76.4222 96.0141C75.9476 95.8167 75.4034 95.9255 75.0427 96.2888L71.0547 100.277C63.4622 98.11 58.2188 91.2123 58.2188 83.2617C58.2188 73.4911 66.1669 65.5429 75.9375 65.5429C78.9687 65.5429 81.9796 66.3441 84.6463 67.859C85.0386 68.0818 85.5183 68.078 85.9081 67.8527C86.2979 67.6261 86.5371 67.2098 86.5371 66.7592V56.3836C86.5371 55.8444 86.1954 55.3648 85.6879 55.1888C82.5036 54.0814 79.2243 53.5208 75.9375 53.5208C59.5375 53.5208 46.1953 66.863 46.1953 83.2629C46.1953 94.2144 52.2906 104.31 61.8675 109.465L59.2224 112.11C58.8604 112.472 58.7516 113.017 58.9478 113.49C59.1439 113.963 59.6059 114.271 60.1172 114.271H75.9375C76.6361 114.269 77.2031 113.704 77.2031 113.004Z" fill="#E6E7E8"/>
<path d="M91.125 99.6097C87.861 99.6097 84.6361 100.144 81.5417 101.197C81.0291 101.371 80.6836 101.854 80.6836 102.395V112.737C80.6836 113.185 80.9203 113.6 81.3063 113.826C81.6936 114.054 82.1694 114.062 82.5618 113.844C85.174 112.398 88.1343 111.633 91.125 111.633C100.896 111.633 108.844 119.581 108.844 129.352C108.844 139.123 100.896 147.071 91.125 147.071C81.3544 147.071 73.4062 139.123 73.4062 129.352C73.4062 129.271 73.4113 129.19 73.4151 129.109L73.4265 128.861C73.4366 128.519 73.3075 128.189 73.0683 127.943C72.8304 127.699 72.5026 127.56 72.1609 127.56H62.6611C61.9726 127.56 61.4107 128.11 61.3955 128.799L61.3904 128.984C61.3866 129.106 61.3828 129.228 61.3828 129.352C61.3828 145.752 74.725 159.094 91.125 159.094C107.525 159.094 120.867 145.752 120.867 129.352C120.867 112.952 107.525 99.6097 91.125 99.6097Z" fill="#E6E7E8"/>
<path d="M100.722 37.6992C100.722 37.0005 100.156 36.4335 99.4566 36.4335H83.1617C82.4631 36.4335 81.8961 37.0005 81.8961 37.6992C81.8961 38.3978 82.4631 38.9648 83.1617 38.9648H99.4566C100.156 38.9648 100.722 38.399 100.722 37.6992Z" fill="#E6E7E8"/>
<path d="M99.4566 130.09C100.156 130.09 100.722 129.523 100.722 128.824C100.722 128.126 100.156 127.559 99.4566 127.559H83.1617C82.4631 127.559 81.8961 128.126 81.8961 128.824C81.8961 129.523 82.4631 130.09 83.1617 130.09H99.4566Z" fill="#E6E7E8"/>
<path d="M65.4429 80.7305C64.7443 80.7305 64.1773 81.2975 64.1773 81.9961C64.1773 82.6947 64.7443 83.2617 65.4429 83.2617H81.7379C82.4365 83.2617 83.0035 82.6947 83.0035 81.9961C83.0035 81.2975 82.4365 80.7305 81.7379 80.7305H65.4429V80.7305Z" fill="#E6E7E8"/>
<path d="M114.539 32.6367C114.539 16.91 101.789 4.1601 86.0625 4.1601C70.3358 4.1601 57.5859 16.91 57.5859 32.6367H67.0781C67.0781 22.1522 75.5781 13.6523 86.0625 13.6523C96.5469 13.6523 105.047 22.1522 105.047 32.6367C105.047 41.5669 98.8719 49.0366 90.5656 51.0616L86.0625 46.5585V51.621V61.1132V62.3788H101.883L97.9961 58.4921C107.76 53.9776 114.539 44.102 114.539 32.6367Z" fill="#0089EF"/>
<path d="M70.875 49.7226C55.1483 49.7226 42.3984 62.4725 42.3984 78.1992C42.3984 89.6645 49.1771 99.5401 58.9414 104.055L55.0547 107.941H70.875V106.676V97.1835V92.121L66.3719 96.6241C58.0656 94.6004 51.8906 87.1307 51.8906 78.1992C51.8906 67.7147 60.3906 59.2148 70.875 59.2148C74.2745 59.2148 77.4512 60.1286 80.209 61.6954V51.3211C77.2816 50.3035 74.1492 49.7226 70.875 49.7226Z" fill="#D4FBFF"/>
<path d="M86.0625 95.8129C82.8503 95.8129 79.7673 96.352 76.8867 97.3329V107.673C79.6078 106.167 82.7326 105.305 86.0625 105.305C96.5469 105.305 105.047 113.805 105.047 124.289C105.047 134.774 96.5469 143.274 86.0625 143.274C75.5781 143.274 67.0781 134.774 67.0781 124.289C67.0781 124.112 67.0946 123.939 67.0996 123.762H57.5999C57.5961 123.938 57.5859 124.112 57.5859 124.289C57.5859 140.016 70.3358 152.766 86.0625 152.766C101.789 152.766 114.539 140.016 114.539 124.289C114.539 108.563 101.789 95.8129 86.0625 95.8129Z" fill="white"/>
<path d="M84.1641 152.696C99.0048 151.718 110.742 139.378 110.742 124.289C110.742 109.227 99.0466 96.9051 84.2438 95.8888C81.686 96.0521 79.218 96.5393 76.8867 97.3329V106.092C78.5928 105.587 80.395 105.306 82.2656 105.306C82.9237 105.306 83.5743 105.34 84.2147 105.405C84.8235 105.346 85.4385 105.306 86.0625 105.306C96.5469 105.306 105.047 113.806 105.047 124.291C105.047 134.775 96.5469 143.275 86.0625 143.275C75.5781 143.275 67.0781 134.775 67.0781 124.291C67.0781 124.113 67.0946 123.94 67.0996 123.763H57.5999C57.5961 123.939 57.5859 124.113 57.5859 124.291C57.5859 139.378 69.3233 151.718 84.1641 152.696Z" fill="#F46275"/>
<path d="M91.3047 5.93074C94.9535 6.64329 98.3619 8.07344 101.437 10.182C101.656 10.3326 101.904 10.4035 102.151 10.4035C102.554 10.4035 102.951 10.2111 103.195 9.85418C103.591 9.27705 103.445 8.48983 102.867 8.09369C99.5072 5.78772 95.7787 4.22341 91.7882 3.44505C91.1035 3.30963 90.4365 3.75893 90.3036 4.4449C90.1707 5.13213 90.6188 5.79658 91.3047 5.93074Z" fill="#3A2C60"/>
<path d="M57.5859 33.9036H67.0781C67.7767 33.9036 68.3438 33.3366 68.3438 32.6379C68.3438 22.8673 76.2919 14.9192 86.0625 14.9192C95.8331 14.9192 103.781 22.8673 103.781 32.6379C103.781 40.5873 98.5378 47.4863 90.9453 49.653L86.9573 45.665C86.5953 45.3031 86.0524 45.1955 85.5778 45.3904C85.1044 45.5866 84.7969 46.0472 84.7969 46.5598V62.3801C84.7969 63.0788 85.3626 63.6458 86.0625 63.6458H101.883C102.394 63.6458 102.857 63.3369 103.052 62.8649C103.248 62.3915 103.14 61.8473 102.778 61.4853L100.132 58.8389C109.709 53.6853 115.805 43.5894 115.805 32.6379C115.805 24.9341 112.871 17.6276 107.543 12.0665C107.058 11.5615 106.257 11.545 105.754 12.0285C105.249 12.512 105.232 13.3131 105.716 13.8181C110.59 18.9059 113.275 25.5897 113.275 32.6392C113.275 43.2084 107.069 52.9057 97.4658 57.3455C97.0912 57.5189 96.8241 57.8656 96.752 58.2719C96.6798 58.6782 96.8102 59.0958 97.1025 59.3882L98.8289 61.1158H87.3281V49.6163L89.6708 51.959C89.9821 52.2716 90.4378 52.3956 90.8643 52.2944C99.9591 50.0757 106.312 41.9934 106.312 32.6379C106.312 21.4726 97.2278 12.3879 86.0625 12.3879C75.3224 12.3879 66.5073 20.7942 65.8517 31.3723H58.8807C59.5185 17.1189 70.894 5.83327 85.3006 5.43713C85.9992 5.41815 86.5498 4.83596 86.532 4.13734C86.5118 3.4501 85.9499 2.90588 85.2677 2.90588C85.255 2.90588 85.2424 2.90588 85.2323 2.90588C69.0196 3.35265 56.3203 16.4114 56.3203 32.6379C56.3203 33.3366 56.8873 33.9036 57.5859 33.9036Z" fill="#3A2C60"/>
<path d="M72.1406 107.943V92.1223C72.1406 91.611 71.8318 91.149 71.3597 90.9529C70.8851 90.7567 70.3422 90.8643 69.9802 91.2275L65.9922 95.2155C58.3997 93.0488 53.1562 86.1498 53.1562 78.2004C53.1562 68.4298 61.1044 60.4817 70.875 60.4817C73.9074 60.4817 76.9184 61.2828 79.5838 62.7978C79.9761 63.0205 80.457 63.0167 80.8456 62.7915C81.2354 62.5649 81.4746 62.1485 81.4746 61.698V51.3211C81.4746 50.7819 81.1329 50.3023 80.6254 50.1263C77.4436 49.0189 74.1631 48.4583 70.875 48.4583C54.475 48.4583 41.1328 61.8005 41.1328 78.2004C41.1328 89.1519 47.2281 99.2478 56.805 104.401L54.1599 107.048C53.7979 107.41 53.6891 107.954 53.8853 108.427C54.0814 108.901 54.5434 109.208 55.0547 109.208H70.875C71.5736 109.208 72.1406 108.641 72.1406 107.943ZM69.6094 106.677H58.1099L59.8362 104.949C60.1286 104.657 60.2602 104.239 60.1868 103.833C60.1147 103.426 59.8476 103.08 59.4717 102.907C49.8694 98.4656 43.6641 88.7684 43.6641 78.2004C43.6641 63.1965 55.871 50.9895 70.875 50.9895C73.5872 50.9895 76.2969 51.4084 78.9434 52.2361V59.6476C76.3957 58.5326 73.6429 57.9504 70.875 57.9504C59.7097 57.9504 50.625 67.0351 50.625 78.2004C50.625 87.5559 56.9772 95.6382 66.0732 97.8543C66.5023 97.9568 66.9554 97.8316 67.268 97.5189L69.6094 95.1775V106.677Z" fill="#3A2C60"/>
<path d="M86.0625 94.5472C82.7985 94.5472 79.5736 95.0813 76.4792 96.1343C75.9666 96.309 75.6211 96.7912 75.6211 97.3329V107.673C75.6211 108.121 75.8578 108.536 76.2438 108.763C76.6298 108.989 77.1069 108.997 77.4993 108.78C80.1115 107.335 83.0718 106.571 86.0625 106.571C95.8331 106.571 103.781 114.519 103.781 124.289C103.781 134.06 95.8331 142.008 86.0625 142.008C76.2919 142.008 68.3438 134.06 68.3438 124.289C68.3438 124.207 68.3488 124.126 68.3526 124.046L68.364 123.798C68.3741 123.457 68.245 123.126 68.0058 122.881C67.7679 122.637 67.4401 122.497 67.0984 122.497H57.5986C56.9101 122.497 56.3482 123.048 56.333 123.736L56.3279 123.921C56.3241 124.044 56.3203 124.167 56.3203 124.291C56.3203 140.691 69.6625 154.033 86.0625 154.033C102.462 154.033 115.805 140.691 115.805 124.291C115.805 107.891 102.462 94.5472 86.0625 94.5472ZM86.0625 151.5C71.3053 151.5 59.254 139.691 58.8617 125.027H65.8252C66.2162 135.852 75.144 144.539 86.0625 144.539C97.2278 144.539 106.312 135.455 106.312 124.289C106.312 113.124 97.2278 104.039 86.0625 104.039C83.3439 104.039 80.6456 104.593 78.1523 105.651V98.2543C80.7203 97.4734 83.3768 97.0785 86.0625 97.0785C101.066 97.0785 113.273 109.285 113.273 124.289C113.273 139.293 101.066 151.5 86.0625 151.5Z" fill="#3A2C60"/>
<path d="M95.6597 32.6379C95.6597 31.9393 95.094 31.3723 94.3941 31.3723H78.0992C77.4006 31.3723 76.8336 31.9393 76.8336 32.6379C76.8336 33.3366 77.4006 33.9036 78.0992 33.9036H94.3941C95.094 33.9036 95.6597 33.3366 95.6597 32.6379Z" fill="#3A2C60"/>
<path d="M94.3941 125.029C95.094 125.029 95.6597 124.462 95.6597 123.763C95.6597 123.064 95.094 122.497 94.3941 122.497H78.0992C77.4006 122.497 76.8336 123.064 76.8336 123.763C76.8336 124.462 77.4006 125.029 78.0992 125.029H94.3941Z" fill="#3A2C60"/>
<path d="M60.3804 75.6692C59.6818 75.6692 59.1148 76.2362 59.1148 76.9348C59.1148 77.6334 59.6818 78.2004 60.3804 78.2004H76.6754C77.374 78.2004 77.941 77.6334 77.941 76.9348C77.941 76.2362 77.374 75.6692 76.6754 75.6692H60.3804Z" fill="#3A2C60"/>
</svg>
