<svg width="162" height="162" viewBox="0 0 162 162" fill="none" xmlns="http://www.w3.org/2000/svg">
<path d="M116.279 146.18H21.9902C19.1945 146.18 16.9277 143.913 16.9277 141.117V10.125C16.9277 7.32923 19.1945 5.0625 21.9902 5.0625H116.279C119.075 5.0625 121.342 7.32923 121.342 10.125V141.117C121.342 143.913 119.075 146.18 116.279 146.18Z" fill="#D4FBFF"/>
<path d="M61.0417 88.7513H34.4636C32.3665 88.7513 30.6667 87.0516 30.6667 84.9545V58.3763C30.6667 56.2792 32.3665 54.5795 34.4636 54.5795H61.0417C63.1389 54.5795 64.8386 56.2792 64.8386 58.3763V84.9545C64.8386 87.051 63.1382 88.7513 61.0417 88.7513Z" fill="#0089EF"/>
<path d="M103.806 37.3315H34.4636C32.3665 37.3315 30.6667 35.6318 30.6667 33.5347V21.7713C30.6667 19.6742 32.3665 17.9744 34.4636 17.9744H103.807C105.904 17.9744 107.603 19.6742 107.603 21.7713V33.5347C107.603 35.6318 105.903 37.3315 103.806 37.3315Z" fill="#ADBDDA"/>
<path d="M104.663 60.4937H72.0748C70.451 60.4937 69.1348 59.1775 69.1348 57.5537C69.1348 55.9299 70.451 54.6136 72.0748 54.6136H104.663C106.287 54.6136 107.603 55.9299 107.603 57.5537C107.603 59.1775 106.287 60.4937 104.663 60.4937Z" fill="#3A2C60"/>
<path d="M116.279 147.445H21.9902C18.5009 147.445 15.6621 144.607 15.6621 141.117V10.125C15.6621 6.63567 18.5009 3.79688 21.9902 3.79688H116.279C119.769 3.79688 122.607 6.63567 122.607 10.125V141.117C122.607 144.607 119.769 147.445 116.279 147.445ZM21.9902 6.32812C19.8963 6.32812 18.1934 8.03102 18.1934 10.125V141.117C18.1934 143.211 19.8963 144.914 21.9902 144.914H116.279C118.373 144.914 120.076 143.211 120.076 141.117V10.125C120.076 8.03102 118.373 6.32812 116.279 6.32812H21.9902Z" fill="#3A2C60" stroke="#3A2C60"/>
<path d="M104.663 74.6054H72.0748C70.451 74.6054 69.1348 73.2892 69.1348 71.6654C69.1348 70.0416 70.451 68.7253 72.0748 68.7253H104.663C106.287 68.7253 107.603 70.0416 107.603 71.6654C107.603 73.2892 106.287 74.6054 104.663 74.6054Z" fill="#3A2C60"/>
<path d="M104.663 88.7171H72.0748C70.451 88.7171 69.1348 87.4009 69.1348 85.7771C69.1348 84.1533 70.451 82.837 72.0748 82.837H104.663C106.287 82.837 107.603 84.1533 107.603 85.7771C107.603 87.4009 106.287 88.7171 104.663 88.7171Z" fill="#3A2C60"/>
<path d="M104.761 102.829H33.5087C31.9387 102.829 30.6667 101.556 30.6667 99.987V99.7914C30.6667 98.2214 31.9393 96.9495 33.5087 96.9495H104.761C106.331 96.9495 107.603 98.2221 107.603 99.7914V99.987C107.603 101.556 106.331 102.829 104.761 102.829Z" fill="#3A2C60"/>
<path d="M104.761 116.941H33.5087C31.9387 116.941 30.6667 115.668 30.6667 114.099V113.903C30.6667 112.333 31.9393 111.061 33.5087 111.061H104.761C106.331 111.061 107.603 112.334 107.603 113.903V114.099C107.603 115.668 106.331 116.941 104.761 116.941Z" fill="#3A2C60"/>
<path d="M104.761 131.052H33.5087C31.9387 131.052 30.6667 129.78 30.6667 128.21V128.015C30.6667 126.445 31.9393 125.173 33.5087 125.173H104.761C106.331 125.173 107.603 126.445 107.603 128.015V128.21C107.603 129.78 106.331 131.052 104.761 131.052Z" fill="#3A2C60"/>
<path d="M114.893 156.938C131.56 156.938 145.072 143.426 145.072 126.758C145.072 110.09 131.56 96.5786 114.893 96.5786C98.2252 96.5786 84.7133 110.09 84.7133 126.758C84.7133 143.426 98.2252 156.938 114.893 156.938Z" fill="white"/>
<path d="M114.893 148.89C127.116 148.89 137.025 138.981 137.025 126.758C137.025 114.535 127.116 104.626 114.893 104.626C102.67 104.626 92.7608 114.535 92.7608 126.758C92.7608 138.981 102.67 148.89 114.893 148.89Z" fill="#ADBDDA"/>
<path d="M114.893 158.203C97.5538 158.203 83.4477 144.097 83.4477 126.758C83.4477 109.419 97.5538 95.313 114.893 95.313C132.232 95.313 146.338 109.419 146.338 126.758C146.338 144.097 132.232 158.203 114.893 158.203ZM114.893 97.8436C98.9497 97.8436 85.979 110.814 85.979 126.757C85.979 142.701 98.9491 155.672 114.893 155.672C130.837 155.672 143.807 142.701 143.807 126.758C143.807 110.815 130.836 97.8436 114.893 97.8436Z" fill="#3A2C60"/>
<path d="M109.887 140.441C109.831 140.441 109.776 140.441 109.72 140.439C108.087 140.389 106.574 139.622 105.571 138.332L98.1631 128.817C97.0253 127.356 97.2873 125.249 98.7491 124.112C100.21 122.973 102.319 123.236 103.455 124.698L109.942 133.03L126.458 114.244C127.681 112.853 129.799 112.717 131.191 113.94C132.581 115.162 132.718 117.281 131.495 118.672L113.989 138.585C112.946 139.77 111.459 140.441 109.887 140.441Z" fill="#0089EF"/>
<path d="M46.4029 82.6207C43.4312 82.172 41.2784 80.3318 41.0341 77.3247C41.0088 77.0114 41.2626 76.7444 41.5771 76.7444H43.9286C44.1969 76.7444 44.4197 76.9418 44.4646 77.2069C44.6424 78.253 45.1664 79.0712 46.0764 79.5028C46.4396 79.6749 46.8604 79.4161 46.8604 79.0143V73.3354C46.8604 73.0918 46.6984 72.8791 46.4643 72.8127C43.7925 72.0571 41.0113 71.0706 41.0113 66.8972C41.0113 63.5724 43.199 61.2405 46.4067 60.7418C46.6687 60.7013 46.861 60.4729 46.861 60.2077V58.6801C46.861 58.3801 47.104 58.1371 47.404 58.1371H48.1286C48.4285 58.1371 48.6715 58.3801 48.6715 58.6801V60.1748C48.6715 60.44 48.8633 60.6697 49.1252 60.7095C51.8925 61.1272 53.8055 62.851 54.2327 65.8144C54.2795 66.1403 54.0219 66.432 53.6929 66.432H51.3641C51.104 66.432 50.8883 66.246 50.8313 65.9922C50.6573 65.2114 50.2111 64.5032 49.5214 64.0508C49.1563 63.8116 48.6709 64.0634 48.6709 64.5001V69.9612C48.6709 70.2068 48.836 70.4213 49.0727 70.4858C51.7407 71.2117 54.4934 72.1717 54.4934 76.3425C54.4934 79.2326 52.5975 82.0366 49.1252 82.5903C48.8633 82.6321 48.6715 82.8592 48.6715 83.1244V84.6533C48.6715 84.9532 48.4285 85.1962 48.1286 85.1962H47.404C47.104 85.1962 46.861 84.9532 46.861 84.6533V83.1573C46.8604 82.8883 46.6668 82.6605 46.4029 82.6207ZM46.8604 69.0367V64.2609C46.8604 63.8932 46.4991 63.6211 46.1529 63.7426C45.005 64.1457 44.2425 65.1228 44.2425 66.7105C44.2425 68.1799 44.9835 68.9886 46.0732 69.5233C46.4358 69.7005 46.8604 69.4404 46.8604 69.0367ZM48.6715 74.2599V79.0295C48.6715 79.4237 49.0778 79.6831 49.4391 79.5256C50.6294 79.0079 51.2901 77.8758 51.2901 76.5267C51.2901 75.0807 50.5472 74.2979 49.4556 73.7714C49.093 73.5974 48.6715 73.8575 48.6715 74.2599Z" fill="#D4FBFF"/>
</svg>
