<svg width="163" height="163" viewBox="0 0 163 163" fill="none" xmlns="http://www.w3.org/2000/svg">
<path d="M61.7007 109.713H57.431C57.4219 109.712 57.4128 109.711 57.4037 109.711L57.4021 109.713H29.3134C21.8931 109.713 15.8778 115.728 15.8778 123.149V129.889V131.802V135.347H75.1363V131.802V129.889V123.149C75.1363 115.729 69.121 109.713 61.7007 109.713Z" fill="#E0EBFC"/>
<path d="M45.5037 124.8C53.9299 124.8 60.8114 118.076 61.0758 109.713H57.431C57.4219 109.713 57.4128 109.711 57.4037 109.711L57.4021 109.713H29.9316C30.1961 118.076 37.0767 124.8 45.5037 124.8Z" fill="#3A2C60"/>
<path d="M72.0179 71.4527C71.9617 71.4527 71.9072 71.4601 71.8518 71.4609V68.9938C71.8518 54.5747 60.0568 42.8863 45.5071 42.8863C30.9573 42.8863 19.1623 54.5747 19.1623 68.9938V71.4609C19.1061 71.4601 19.0524 71.4527 18.9962 71.4527C14.5571 71.4527 10.9585 75.019 10.9585 79.4177C10.9585 83.8163 14.5571 87.3827 18.9962 87.3827C19.288 87.3827 19.5748 87.3653 19.8583 87.3356C22.5766 98.8851 33.0244 107.492 45.5071 107.492C57.9897 107.492 68.4375 98.8859 71.1559 87.3356C71.4394 87.3653 71.727 87.3827 72.0179 87.3827C76.4571 87.3827 80.0556 83.8163 80.0556 79.4177C80.0556 75.019 76.4571 71.4527 72.0179 71.4527Z" fill="#EDC2AA"/>
<path d="M45.507 109.145C32.8863 109.145 22.0071 100.94 18.592 89.0282C13.4355 88.8174 9.30627 84.5874 9.30627 79.4184C9.30627 74.6165 12.8701 70.6253 17.5101 69.9137V68.9954C17.5101 53.6878 30.0696 41.2349 45.5078 41.2349C60.9461 41.2349 73.5056 53.6878 73.5056 68.9954V69.9137C78.1455 70.6261 81.7102 74.6173 81.7102 79.4184C81.7102 84.5874 77.5802 88.8174 72.4237 89.0282C69.0061 100.94 58.1269 109.145 45.507 109.145ZM19.8599 85.6825C20.6178 85.6825 21.2897 86.2032 21.4674 86.957C24.0833 98.0742 33.9691 105.839 45.507 105.839C57.045 105.839 66.9307 98.0742 69.5466 86.957C69.7375 86.1453 70.5062 85.5998 71.3319 85.6916C71.5567 85.7156 71.7864 85.7296 72.0179 85.7296C75.5388 85.7296 78.4034 82.898 78.4034 79.4176C78.4034 75.9455 75.5528 73.1189 72.0435 73.1056C71.9988 73.1081 71.9063 73.1131 71.8881 73.1139C71.4393 73.1172 71.0128 72.9535 70.6963 72.6428C70.3781 72.332 70.1987 71.9056 70.1987 71.4609V68.9938C70.1987 55.5094 59.122 44.5393 45.507 44.5393C31.8921 44.5393 20.8153 55.5102 20.8153 68.9946V71.4617C20.8153 71.9064 20.6359 72.332 20.3177 72.6436C19.9995 72.9544 19.559 73.1172 19.1259 73.1147C19.0987 73.1147 18.9962 73.1089 18.9689 73.1065C15.4753 73.1065 12.6123 75.938 12.6123 79.4184C12.6123 82.8988 15.4761 85.7304 18.997 85.7304C19.2284 85.7304 19.4582 85.7164 19.683 85.6924C19.7417 85.6858 19.8004 85.6825 19.8599 85.6825Z" fill="#3A2C60"/>
<path d="M39.9984 66.9829H12.6982C11.737 66.9829 10.9576 66.2035 10.9576 65.2423V58.2766C10.9576 45.1509 21.598 34.5105 34.7237 34.5105H47.3948C50.9991 34.5105 53.9216 37.4322 53.9216 41.0374V53.0597C53.9216 60.7495 47.6882 66.9829 39.9984 66.9829Z" fill="#4671C6"/>
<path d="M78.315 66.9829H67.8449C60.1551 66.9829 53.9216 60.7495 53.9216 53.0597V41.0374C53.9216 37.433 56.8433 34.5105 60.4485 34.5105C71.2773 34.5105 80.0556 43.2888 80.0556 54.1176V65.2431C80.0556 66.2044 79.2762 66.9829 78.315 66.9829Z" fill="#4671C6"/>
<path d="M45.507 107.492C41.2018 107.492 37.1395 106.468 33.5525 104.653V109.215C33.5525 115.816 38.9033 121.167 45.5037 121.167C52.1041 121.167 57.4549 115.816 57.4549 109.215V104.657C53.8687 106.469 49.8089 107.492 45.507 107.492Z" fill="#EDC2AA"/>
<path d="M75.1354 137H15.8777C14.9653 137 14.2247 136.259 14.2247 135.347V123.149C14.2247 114.829 20.993 108.06 29.3133 108.06H31.8995V104.652C31.8995 104.078 32.197 103.545 32.6863 103.244C33.1747 102.942 33.7847 102.917 34.2988 103.177C37.7883 104.943 41.5588 105.838 45.507 105.838C49.451 105.838 53.2207 104.944 56.7094 103.181C57.221 102.922 57.8318 102.946 58.321 103.248C58.8103 103.549 59.1079 104.082 59.1079 104.657V108.06H61.7006C70.0202 108.06 76.7892 114.828 76.7892 123.149V135.347C76.7884 136.259 76.0487 137 75.1354 137ZM17.5307 133.694H73.4824V123.149C73.4824 116.652 68.1961 111.366 61.6998 111.366H57.4416C56.9904 111.366 56.5598 111.182 56.2473 110.856C55.9358 110.53 55.7705 110.091 55.7903 109.64C55.7969 109.5 55.8019 109.358 55.8019 109.215V107.208C52.5372 108.494 49.0849 109.144 45.507 109.144C41.9257 109.144 38.4718 108.493 35.2055 107.205V109.215C35.2055 109.358 35.2104 109.5 35.217 109.64C35.2369 110.091 35.0716 110.53 34.76 110.856C34.4476 111.182 34.017 111.366 33.5657 111.366H29.3133C22.817 111.366 17.5307 116.652 17.5307 123.149V133.694Z" fill="#3A2C60"/>
<path d="M39.9984 68.6368H12.6991C10.8279 68.6368 9.30627 67.1144 9.30627 65.2432V58.2774C9.30627 44.2616 20.7095 32.8584 34.7253 32.8584H47.3964C51.9066 32.8584 55.5755 36.5272 55.5755 41.0374V53.0606C55.5746 61.6487 48.5874 68.6368 39.9984 68.6368ZM34.7245 36.1636C22.5311 36.1636 12.6115 46.0832 12.6115 58.2766V65.2424C12.6115 65.2911 12.6503 65.33 12.6982 65.33H39.9976C46.7641 65.33 52.2686 59.8255 52.2686 53.0597V41.0374C52.2686 38.3505 50.0817 36.1644 47.3956 36.1644H34.7245V36.1636Z" fill="#3A2C60"/>
<path d="M78.315 68.6368H67.8457C59.2559 68.6368 52.2687 61.6487 52.2687 53.0606V41.0374C52.2687 36.5272 55.9375 32.8584 60.4477 32.8584C72.1708 32.8584 81.7086 42.3954 81.7086 54.1185V65.244C81.7095 67.1144 80.187 68.6368 78.315 68.6368ZM60.4486 36.1636C57.7616 36.1636 55.5755 38.3497 55.5755 41.0366V53.0597C55.5755 59.8255 61.08 65.33 67.8466 65.33H78.3159C78.3646 65.33 78.4035 65.2911 78.4035 65.2424V54.1168C78.4035 44.2178 70.3484 36.1636 60.4486 36.1636Z" fill="#3A2C60"/>
<path d="M77.7505 62.3603H83.5541V61.6024C83.5541 42.3309 67.9341 26.653 48.7345 26.653H42.2869C23.0873 26.653 7.46729 42.3317 7.46729 61.6024V62.3603H13.271V61.6024C13.271 45.4311 26.2875 32.2741 42.2869 32.2741H48.7345C64.7339 32.2741 77.7513 45.4303 77.7513 61.6024V62.3603H77.7505Z" fill="#E0EBFC"/>
<path d="M83.5534 64.0133H77.7505C76.838 64.0133 76.0975 63.2728 76.0975 62.3603V61.6024C76.0975 46.3427 63.8223 33.927 48.7345 33.927H42.2862C27.1976 33.927 14.9232 46.3419 14.9232 61.6024V62.3603C14.9232 63.2728 14.1827 64.0133 13.2702 64.0133H7.46733C6.55488 64.0133 5.81433 63.2728 5.81433 62.3603V61.6024C5.81433 41.4201 22.1757 25 42.287 25H48.7354C68.8466 25 85.208 41.4201 85.208 61.6024V62.3603C85.2064 63.2728 84.4666 64.0133 83.5534 64.0133ZM79.3903 60.7073H81.888C81.4144 42.7599 66.7233 28.3052 48.7337 28.3052H42.2853C24.2949 28.3052 9.60467 42.759 9.13108 60.7073H11.6288C12.0982 44.0368 25.6702 30.621 42.2853 30.621H48.7337C65.3489 30.621 78.9208 44.036 79.3903 60.7073Z" fill="#3A2C60"/>
<path d="M76.7397 89.3555H84.4452C85.6907 89.3555 86.7007 88.3455 86.7007 87.1V66.0713C86.7007 64.8258 85.6907 63.8158 84.4452 63.8158H76.7397V89.3555Z" fill="#FF6363"/>
<path d="M76.6711 63.8158H84.1874V58.0187C84.1874 57.4955 83.7634 57.0715 83.2402 57.0715H77.6183C77.0951 57.0715 76.6711 57.4955 76.6711 58.0187V63.8158Z" fill="#FF6363"/>
<path d="M84.4451 91.0085H76.7397C75.8272 91.0085 75.0867 90.268 75.0867 89.3555V63.8158C75.0867 62.9034 75.8272 62.1628 76.7397 62.1628H84.4451C86.5998 62.1628 88.3537 63.9166 88.3537 66.0713V87.1C88.3537 89.2547 86.6006 91.0085 84.4451 91.0085ZM78.3927 87.7025H84.4451C84.7766 87.7025 85.0477 87.4322 85.0477 87.1V66.0713C85.0477 65.7391 84.7774 65.4688 84.4451 65.4688H78.3927V87.7025Z" fill="#3A2C60"/>
<path d="M13.6132 89.3555H5.90774C4.66221 89.3555 3.65222 88.3455 3.65222 87.1V66.0713C3.65222 64.8258 4.66221 63.8158 5.90774 63.8158H13.6132V89.3555Z" fill="#FF6363"/>
<path d="M13.9248 63.8158H6.40857V58.0187C6.40857 57.4955 6.83256 57.0715 7.35574 57.0715H12.9776C13.5008 57.0715 13.9248 57.4955 13.9248 58.0187V63.8158Z" fill="#FF6363"/>
<path d="M13.6132 91.0085H5.90852C3.75384 91.0085 2 89.2547 2 87.1V66.0713C2 63.9166 3.75384 62.1628 5.90852 62.1628H13.6132C14.5256 62.1628 15.2662 62.9034 15.2662 63.8158V89.3555C15.2662 90.268 14.5256 91.0085 13.6132 91.0085ZM5.90852 65.4688C5.57627 65.4688 5.30601 65.7391 5.30601 66.0713V87.1C5.30601 87.4322 5.57627 87.7025 5.90852 87.7025H11.9602V65.4688H5.90852Z" fill="#3A2C60"/>
<path d="M16.8861 89.3555H13.6132V63.8158H16.8861C18.4556 63.8158 19.7284 65.0886 19.7284 66.6581V86.5132C19.7284 88.0827 18.4565 89.3555 16.8861 89.3555Z" fill="#E0EBFC"/>
<path d="M76.7398 89.3555H73.4668C71.8973 89.3555 70.6245 88.0827 70.6245 86.5132V66.6581C70.6245 65.0886 71.8973 63.8158 73.4668 63.8158H76.7398V89.3555Z" fill="#E0EBFC"/>
<path d="M16.8862 91.0085H13.6132C12.7008 91.0085 11.9602 90.268 11.9602 89.3555V63.8158C11.9602 62.9034 12.7008 62.1628 13.6132 62.1628H16.8862C19.3648 62.1628 21.3815 64.1795 21.3815 66.6581V86.5132C21.3815 88.9919 19.3648 91.0085 16.8862 91.0085ZM15.2662 87.7025H16.8862C17.5424 87.7025 18.0755 87.1686 18.0755 86.5132V66.6581C18.0755 66.0027 17.5416 65.4688 16.8862 65.4688H15.2662V87.7025Z" fill="#3A2C60"/>
<path d="M76.7397 91.0085H73.4668C70.9881 91.0085 68.9714 88.9919 68.9714 86.5132V66.6581C68.9714 64.1795 70.9881 62.1628 73.4668 62.1628H76.7397C77.6522 62.1628 78.3927 62.9034 78.3927 63.8158V89.3555C78.3927 90.268 77.6522 91.0085 76.7397 91.0085ZM73.4668 65.4688C72.8105 65.4688 72.2774 66.0027 72.2774 66.6581V86.5132C72.2774 87.1686 72.8114 87.7025 73.4668 87.7025H75.0867V65.4688H73.4668Z" fill="#3A2C60"/>
<path d="M84.1874 65.4688H76.6712C75.7587 65.4688 75.0182 64.7283 75.0182 63.8158V58.0188C75.0182 56.5848 76.1844 55.4186 77.6184 55.4186H83.2394C84.6734 55.4186 85.8396 56.5856 85.8396 58.0188V63.8158C85.8404 64.7283 85.0999 65.4688 84.1874 65.4688ZM78.3242 62.1628H82.5344V58.7238H78.3242V62.1628Z" fill="#3A2C60"/>
<path d="M13.9256 65.4688H6.40862C5.49616 65.4688 4.75562 64.7283 4.75562 63.8158V58.0188C4.75562 56.5848 5.92181 55.4186 7.35578 55.4186H12.9776C14.4116 55.4186 15.5778 56.5856 15.5778 58.0188V63.8158C15.5786 64.7283 14.8381 65.4688 13.9256 65.4688ZM8.06162 62.1628H12.2726V58.7238H8.06162V62.1628Z" fill="#3A2C60"/>
<path d="M137.429 68.7293H95.6286C92.8895 68.7293 90.6696 66.5093 90.6696 63.7703V35.6684C90.6696 32.9294 92.8895 30.7094 95.6286 30.7094H137.429C140.168 30.7094 142.388 32.9294 142.388 35.6684V63.7703C142.388 66.5085 140.168 68.7293 137.429 68.7293Z" fill="#E0EBFC"/>
<path d="M142.388 41.7755V49.0975V56.4195L155.951 62.9835C156.683 63.3381 157.516 62.7711 157.516 61.9182V49.0983V36.2768C157.516 35.4238 156.683 34.8569 155.951 35.2114L142.388 41.7755Z" fill="#FF6363"/>
<path d="M137.429 70.3815H95.6286C91.9829 70.3815 89.0166 67.4152 89.0166 63.7695V35.6685C89.0166 32.0228 91.9829 29.0565 95.6286 29.0565H137.429C141.075 29.0565 144.041 32.0228 144.041 35.6685V63.7695C144.041 67.416 141.075 70.3815 137.429 70.3815ZM95.6278 32.3625C93.8045 32.3625 92.3218 33.8452 92.3218 35.6685V63.7695C92.3218 65.5928 93.8045 67.0755 95.6278 67.0755H137.428C139.251 67.0755 140.734 65.5928 140.734 63.7695V35.6685C140.734 33.8452 139.251 32.3625 137.428 32.3625H95.6278Z" fill="#3A2C60"/>
<path d="M156.411 64.7432C156.01 64.7432 155.607 64.6531 155.231 64.4712L141.667 57.9072C141.097 57.6311 140.734 57.0534 140.734 56.4195V41.7763C140.734 41.1424 141.096 40.5647 141.667 40.2886L155.23 33.7246C156.076 33.3163 157.056 33.3708 157.851 33.8692C158.677 34.3866 159.169 35.2867 159.169 36.2785V61.9182C159.169 62.9092 158.677 63.8092 157.852 64.3266C157.41 64.6027 156.912 64.7432 156.411 64.7432ZM144.041 55.3822L155.864 61.1041V37.0901L144.041 42.812V55.3822Z" fill="#3A2C60"/>
<path d="M102.261 54.3689H97.6874V46.6758C97.6874 46.132 97.5411 45.7113 97.2535 45.4261C96.9658 45.1418 96.5923 44.998 96.1418 44.998C95.6939 44.998 95.3244 45.1451 95.0426 45.4344C94.7624 45.7212 94.6202 46.1394 94.6202 46.6766V55.1615C94.6202 55.7343 94.7715 56.1657 95.069 56.4434C95.3649 56.7203 95.8087 56.8542 96.4261 56.8542H102.261C102.732 56.8542 103.106 56.7451 103.37 56.5294C103.651 56.3012 103.799 55.9863 103.799 55.6194C103.799 55.2599 103.651 54.945 103.37 54.7086C103.101 54.4829 102.728 54.3689 102.261 54.3689Z" fill="#FF6363"/>
<path d="M107.005 44.9972C106.564 44.9972 106.195 45.1435 105.911 45.4319C105.628 45.7196 105.484 46.1378 105.484 46.675V55.3549C105.484 55.8921 105.629 56.312 105.915 56.6021C106.203 56.893 106.57 57.041 107.005 57.041C107.457 57.041 107.831 56.8955 108.119 56.6071C108.405 56.3194 108.551 55.8979 108.551 55.3549V46.675C108.551 46.1312 108.405 45.7105 108.117 45.4253C107.829 45.1418 107.456 44.9972 107.005 44.9972Z" fill="#FF6363"/>
<path d="M120.82 45.179C120.597 45.0584 120.352 44.9972 120.092 44.9972C119.739 44.9972 119.448 45.0815 119.228 45.2468C119.023 45.4022 118.871 45.5824 118.78 45.7832C118.705 45.9435 118.598 46.2188 118.452 46.6237L116.046 53.2258L113.652 46.68C113.461 46.1336 113.274 45.741 113.083 45.479C112.848 45.1592 112.465 44.9964 111.945 44.9964C111.525 44.9964 111.168 45.1327 110.883 45.4014C110.595 45.6749 110.448 45.989 110.448 46.337C110.448 46.4651 110.468 46.6105 110.51 46.7816C110.549 46.9436 110.598 47.0965 110.655 47.2345C110.706 47.3569 110.754 47.4808 110.804 47.6147L113.641 54.7474C113.746 55.0276 113.85 55.2921 113.955 55.5409C114.067 55.8078 114.202 56.0508 114.354 56.2624C114.522 56.4963 114.743 56.6864 115.013 56.8269C115.284 56.9682 115.612 57.0401 115.989 57.0401C116.368 57.0401 116.698 56.9666 116.969 56.8211C117.237 56.6781 117.456 56.4897 117.621 56.2624C117.771 56.0541 117.904 55.8128 118.015 55.5433C118.119 55.2921 118.223 55.0268 118.326 54.754L121.218 47.547C121.266 47.4188 121.314 47.294 121.362 47.1742C121.415 47.0387 121.461 46.899 121.496 46.7585C121.535 46.6056 121.556 46.4576 121.556 46.3204C121.556 46.0981 121.488 45.8782 121.354 45.6683C121.225 45.4658 121.045 45.3005 120.82 45.179Z" fill="#FF6363"/>
<path d="M132.814 54.7499C132.562 54.5367 132.203 54.4284 131.746 54.4284H126.44V51.9456H131.128C131.582 51.9456 131.933 51.8381 132.173 51.6274C132.421 51.4092 132.552 51.1125 132.552 50.7711C132.552 50.4265 132.417 50.1306 132.163 49.9165C131.922 49.714 131.574 49.6107 131.128 49.6107H126.44V47.556H131.559C132.021 47.556 132.381 47.4503 132.628 47.2428C132.886 47.0238 133.024 46.7213 133.024 46.3667C133.024 46.0171 132.886 45.7171 132.627 45.4981C132.38 45.2898 132.021 45.1848 131.558 45.1848H125.178C124.793 45.1848 124.468 45.2402 124.209 45.3493C123.917 45.4724 123.699 45.6733 123.561 45.9452C123.434 46.1931 123.371 46.5072 123.371 46.8783V55.1599C123.371 55.7326 123.522 56.164 123.82 56.4426C124.116 56.7186 124.559 56.8534 125.178 56.8534H131.745C132.202 56.8534 132.562 56.7451 132.814 56.5318C133.078 56.3087 133.218 56.0029 133.218 55.6483C133.219 55.2847 133.079 54.9739 132.814 54.7499Z" fill="#FF6363"/>
<path d="M136.848 45.9658C137.83 45.9658 138.626 45.1669 138.626 44.1814C138.626 43.1959 137.83 42.397 136.848 42.397C135.866 42.397 135.069 43.1959 135.069 44.1814C135.069 45.1669 135.866 45.9658 136.848 45.9658Z" fill="#FF6363"/>
</svg>
