<svg width="161" height="162" viewBox="0 0 161 162" fill="none" xmlns="http://www.w3.org/2000/svg">
<path d="M146.672 147.941H13.6158C8.87512 147.941 5.03125 144.074 5.03125 139.304V22.6965C5.03125 17.9263 8.8745 14.0586 13.6158 14.0586H146.672C151.413 14.0586 155.257 17.9257 155.257 22.6965V139.304C155.256 144.074 151.413 147.941 146.672 147.941Z" fill="#F9CFCF"/>
<path d="M5.03125 22.6965V49.4733H155.256V22.6965C155.256 17.9257 151.413 14.0586 146.672 14.0586H13.6158C8.8745 14.0586 5.03125 17.9257 5.03125 22.6965Z" fill="#4671C6"/>
<path d="M29.3327 39.6982H18.7652C17.4156 39.6982 16.3213 38.5971 16.3213 37.2391V26.6066C16.3213 25.2486 17.4156 24.1475 18.7652 24.1475H29.3321C30.6817 24.1475 31.776 25.2486 31.776 26.6066V37.2391C31.7767 38.5971 30.6824 39.6982 29.3327 39.6982Z" fill="#A4C9FF"/>
<path d="M41.5965 24.1475H52.1634C53.513 24.1475 54.6073 25.2486 54.6073 26.6066V37.2391C54.6073 38.5971 53.513 39.6982 52.1634 39.6982H41.5965C40.2469 39.6982 39.1526 38.5971 39.1526 37.2391V26.6066C39.1532 25.2486 40.2469 24.1475 41.5965 24.1475Z" fill="#A4C9FF"/>
<path d="M89.316 96.3856V91.1864C89.316 87.5971 86.4243 84.6874 82.8571 84.6874H60.8976C57.3304 84.6874 54.4387 87.5971 54.4387 91.1864V96.3856C54.4387 99.9749 57.3304 102.885 60.8976 102.885H82.8577C86.4243 102.885 89.316 99.9749 89.316 96.3856ZM84.4074 95.0858C84.4074 96.6653 83.1351 97.9455 81.5653 97.9455H62.1887C60.619 97.9455 59.3467 96.6653 59.3467 95.0858V92.4862C59.3467 90.9067 60.619 89.6265 62.1887 89.6265H81.5653C83.1351 89.6265 84.4074 90.9067 84.4074 92.4862V95.0858Z" fill="#E0EBFC"/>
<path d="M81.0687 142.511C77.4185 142.447 73.7953 141.936 70.2986 140.993C52.2232 136.12 39.1458 120.377 37.7565 101.819L37.7232 101.369C37.259 101.369 36.8257 101.369 36.8251 101.369C36.6559 101.366 36.4981 101.344 36.3433 101.303C35.6968 101.129 35.1962 100.641 35.0013 99.9952C34.8082 99.3611 34.9535 98.6795 35.3893 98.1739L40.6947 92.0401C41.0683 91.606 41.6092 91.3611 42.1777 91.3712C42.3381 91.3737 42.4991 91.3971 42.6557 91.4395C43.0248 91.5389 43.3557 91.7464 43.6091 92.0394L48.912 98.1726C49.4114 98.7498 49.5259 99.5402 49.2114 100.235C48.9001 100.923 48.2108 101.368 47.4561 101.369H46.2637L46.3147 101.902C47.7133 116.525 58.245 128.935 72.5206 132.784C75.3437 133.544 78.2713 133.957 81.2202 134.009C81.768 134.018 82.324 134.016 82.8724 134.001C102.033 133.469 117.268 118.122 117.557 99.0624C117.804 82.8156 106.963 68.4988 91.1934 64.2463C88.3703 63.485 85.4433 63.0731 82.4938 63.0212C82.2812 63.0174 82.0686 63.0155 81.856 63.0155C73.369 63.0155 65.1385 66.0403 58.6796 71.5325C57.8758 72.216 56.8558 72.5817 55.8074 72.5634C55.4577 72.557 55.1087 72.5077 54.7709 72.4172C54.0615 72.2261 53.41 71.8496 52.8848 71.3288C52.0471 70.496 51.5931 69.3411 51.639 68.1596C51.6843 66.9712 52.232 65.8461 53.1408 65.0734C61.1424 58.2631 71.3401 54.5124 81.856 54.5124C82.1177 54.5118 82.3812 54.5143 82.6434 54.5194C86.293 54.5833 89.9174 55.094 93.4141 56.0368C113.433 61.4347 126.853 79.6186 126.047 100.257C125.147 123.345 106.251 141.902 83.0277 142.503C82.3768 142.52 81.7164 142.522 81.0687 142.511Z" fill="#6BDDDD"/>
<path d="M82.8577 104.15H60.8976C56.6424 104.15 53.1809 100.667 53.1809 96.3856V91.1864C53.1809 86.9048 56.6424 83.4218 60.8976 83.4218H82.8577C87.1129 83.4218 90.5744 86.9048 90.5744 91.1864V96.3856C90.5744 100.667 87.1129 104.15 82.8577 104.15ZM60.8976 85.953C58.0298 85.953 55.6965 88.3008 55.6965 91.1864V96.3856C55.6965 99.2712 58.0298 101.619 60.8976 101.619H82.8577C85.7255 101.619 88.0588 99.2712 88.0588 96.3856V91.1864C88.0588 88.3008 85.7255 85.953 82.8577 85.953H60.8976ZM81.5653 99.2111H62.1887C59.9284 99.2111 58.0889 97.3607 58.0889 95.0858V92.4862C58.0889 90.2119 59.9278 88.3609 62.1887 88.3609H81.5653C83.8263 88.3609 85.6652 90.2112 85.6652 92.4862V95.0858C85.6652 97.3607 83.8263 99.2111 81.5653 99.2111ZM62.1894 90.8921C61.3158 90.8921 60.6051 91.6072 60.6051 92.4862V95.0858C60.6051 95.9648 61.3158 96.6798 62.1894 96.6798H81.566C82.4395 96.6798 83.1502 95.9648 83.1502 95.0858V92.4862C83.1502 91.6072 82.4395 90.8921 81.566 90.8921H62.1894Z" fill="#3A2C60"/>
<path d="M146.672 149.207H13.6152C8.18899 149.207 3.77344 144.764 3.77344 139.304V22.6965C3.77344 17.2359 8.18899 12.7936 13.6152 12.7936H146.672C152.098 12.7936 156.513 17.2366 156.513 22.6965V139.304C156.514 144.764 152.099 149.207 146.672 149.207ZM13.6152 15.3242C9.57573 15.3242 6.28906 18.6313 6.28906 22.6965V139.304C6.28906 143.369 9.57573 146.676 13.6152 146.676H146.672C150.712 146.676 153.998 143.369 153.998 139.304V22.6965C153.998 18.6319 150.711 15.3248 146.672 15.3248H13.6152V15.3242Z" fill="#3A2C60"/>
<path d="M155.256 50.7383H5.03125C4.33694 50.7383 3.77344 50.1713 3.77344 49.4727V22.6965C3.77344 17.2359 8.18899 12.7936 13.6152 12.7936H146.672C152.098 12.7936 156.513 17.2366 156.513 22.6965V49.4727C156.514 50.1719 155.951 50.7383 155.256 50.7383ZM6.28906 48.207H153.998V22.6965C153.998 18.6319 150.712 15.3248 146.672 15.3248H13.6152C9.57573 15.3242 6.28906 18.6313 6.28906 22.6965V48.207Z" fill="#3A2C60"/>
<path d="M81.8552 143.783C81.5842 143.783 81.3144 143.781 81.0458 143.776C77.2938 143.71 73.5681 143.186 69.972 142.216C51.6118 137.266 38.2645 121.406 36.5601 102.621C36.3715 102.605 36.196 102.573 36.0212 102.527C34.9495 102.238 34.12 101.43 33.7974 100.364C33.4772 99.3111 33.7169 98.1821 34.4395 97.3449L39.7456 91.2098C40.3619 90.4935 41.2656 90.0922 42.1989 90.1062C42.4618 90.1106 42.7259 90.1486 42.9832 90.2182C43.5919 90.3814 44.1372 90.7238 44.5567 91.2079L49.8609 97.3424C50.6873 98.2986 50.8772 99.6079 50.3558 100.76C49.8684 101.836 48.8244 102.552 47.6584 102.628C49.325 116.358 59.3511 127.923 72.8455 131.562C75.5706 132.296 78.395 132.693 81.242 132.744C81.7709 132.753 82.3068 132.751 82.8369 132.736C101.322 132.222 116.02 117.423 116.298 99.0427C116.537 83.3768 106.079 69.5708 90.8668 65.4683C88.1424 64.7342 85.318 64.3361 82.4703 64.2862C74.0769 64.1457 65.8791 67.0661 59.4901 72.4988C58.4524 73.3803 57.1367 73.8593 55.7839 73.8283C55.3317 73.8207 54.8814 73.7568 54.445 73.6398C53.5249 73.3923 52.6796 72.9044 52.0004 72.2292C50.9118 71.1471 50.3219 69.6461 50.3816 68.1109C50.4407 66.5681 51.1501 65.1088 52.3281 64.1071C60.5554 57.1044 71.0418 53.2474 81.854 53.2474C81.8747 53.2524 81.8848 53.2474 81.8999 53.2474C82.1533 53.2474 82.4099 53.2499 82.6646 53.2543C86.4173 53.3201 90.1436 53.8448 93.7384 54.8142C114.329 60.3659 128.132 79.0724 127.303 100.306C126.377 124.058 106.943 143.15 83.0589 143.768C82.6608 143.778 82.2571 143.783 81.8552 143.783ZM42.1442 92.6362C41.9536 92.6362 41.7725 92.7203 41.6455 92.8678L36.3381 99.0048C36.1866 99.1801 36.1375 99.4066 36.2042 99.6249C36.2734 99.854 36.4425 100.019 36.6683 100.08C36.7218 100.094 36.7796 100.102 36.8482 100.103H37.7242C38.3821 100.103 38.9286 100.615 38.9777 101.275L39.011 101.725C40.36 119.746 53.0639 135.037 70.6242 139.772C74.0222 140.688 77.5434 141.184 81.0911 141.246C81.7219 141.257 82.3634 141.255 82.9967 141.238C105.559 140.654 123.918 122.631 124.793 100.207C125.574 80.1641 112.538 62.5029 93.09 57.2594C89.6926 56.3437 86.1708 55.8476 82.6225 55.785C82.3684 55.7805 82.12 55.7761 81.8584 55.7786C71.6386 55.7786 61.729 59.4224 53.9538 66.0403C53.3136 66.5845 52.9287 67.3749 52.8966 68.209C52.8645 69.0367 53.1828 69.8454 53.7695 70.4289C54.1387 70.7959 54.5978 71.061 55.0965 71.1946C55.3349 71.2591 55.5814 71.2933 55.8298 71.2984C56.565 71.3047 57.2971 71.0509 57.8687 70.5656C64.5534 64.881 73.0732 61.7498 81.8565 61.7498C82.0779 61.7498 82.2967 61.7517 82.5162 61.7555C85.5683 61.8087 88.5971 62.2358 91.519 63.0237C107.847 67.4268 119.071 82.2536 118.814 99.0813C118.515 118.821 102.742 134.716 82.9061 135.266C82.3395 135.281 81.7659 135.285 81.198 135.274C78.1466 135.221 75.1177 134.794 72.1946 134.007C57.4147 130.021 46.5113 117.169 45.0623 102.024L45.0108 101.491C44.9768 101.136 45.0931 100.783 45.3315 100.518C45.5699 100.255 45.9082 100.103 46.2629 100.103H47.4553C47.7182 100.103 47.9584 99.9489 48.0666 99.7104C48.1773 99.4655 48.1396 99.2079 47.9628 99.0035L42.6593 92.8703C42.5712 92.769 42.4574 92.6969 42.3304 92.6627C42.2694 92.6463 42.2115 92.6374 42.1549 92.6362C42.1517 92.6362 42.148 92.6362 42.1442 92.6362Z" fill="#3A2C60"/>
<path d="M102.492 109.644H80.5321C76.965 109.644 74.0732 106.734 74.0732 103.145V97.9455C74.0732 94.3561 76.965 91.4465 80.5321 91.4465H84.2106C84.3357 91.7692 84.4074 92.1192 84.4074 92.4862V95.0858C84.4074 95.5541 84.293 95.9951 84.0949 96.3856H81.8239C80.2541 96.3856 78.9819 97.6658 78.9819 99.2453V101.845C78.9819 103.424 80.2541 104.705 81.8239 104.705H101.2C102.77 104.705 104.043 103.424 104.043 101.845V99.2453C104.043 97.6658 102.77 96.3856 101.2 96.3856H89.316V91.4465H102.492C106.059 91.4465 108.951 94.3561 108.951 97.9455V103.145C108.951 106.734 106.059 109.644 102.492 109.644Z" fill="#E0EBFC"/>
<path d="M102.492 110.909H80.5326C76.2774 110.909 72.8159 107.426 72.8159 103.145V97.9455C72.8159 93.6639 76.2774 90.1809 80.5326 90.1809H84.2111C84.7287 90.1809 85.1941 90.5004 85.3827 90.9858C85.5701 91.4693 85.6651 91.9743 85.6651 92.4862V95.0858C85.6651 95.7427 85.5135 96.3736 85.2142 96.9615C84.9991 97.3842 84.567 97.6506 84.0947 97.6506H81.8244C80.9508 97.6506 80.2402 98.3657 80.2402 99.2446V101.844C80.2402 102.723 80.9508 103.438 81.8244 103.438H101.201C102.075 103.438 102.785 102.723 102.785 101.844V99.2446C102.785 98.3657 102.075 97.6506 101.201 97.6506H89.3172C88.6229 97.6506 88.0594 97.0836 88.0594 96.385V91.4459C88.0594 90.7472 88.6229 90.1802 89.3172 90.1802H102.493C106.748 90.1802 110.21 93.6632 110.21 97.9448V103.144C110.209 107.426 106.747 110.909 102.492 110.909ZM80.532 92.7121C77.6642 92.7121 75.3309 95.0599 75.3309 97.9455V103.145C75.3309 106.03 77.6635 108.378 80.532 108.378H102.491C105.36 108.378 107.693 106.03 107.693 103.145V97.9455C107.693 95.0599 105.36 92.7121 102.491 92.7121H90.5737V95.12H101.2C103.461 95.12 105.3 96.9703 105.3 99.2453V101.845C105.3 104.119 103.461 105.97 101.2 105.97H81.8231C79.5622 105.97 77.7233 104.12 77.7233 101.845V99.2453C77.7233 96.9709 79.5622 95.12 81.8231 95.12H83.1476C83.1482 95.1086 83.1482 95.0972 83.1482 95.0858V92.7121H80.532Z" fill="#3A2C60"/>
<path d="M29.3327 40.9639H18.7652C16.7238 40.9639 15.0635 39.2932 15.0635 37.2391V26.6066C15.0635 24.5525 16.7238 22.8819 18.7652 22.8819H29.3321C31.3735 22.8819 33.0338 24.5531 33.0338 26.6066V37.2391C33.0345 39.2932 31.3735 40.9639 29.3327 40.9639ZM18.7652 25.4131C18.1112 25.4131 17.5791 25.9485 17.5791 26.6066V37.2391C17.5791 37.8972 18.1112 38.4326 18.7652 38.4326H29.3321C29.9862 38.4326 30.5182 37.8972 30.5182 37.2391V26.6066C30.5182 25.9485 29.9862 25.4131 29.3321 25.4131H18.7652Z" fill="#3A2C60"/>
<path d="M52.164 40.9639H41.5965C39.5551 40.9639 37.8948 39.2932 37.8948 37.2391V26.6066C37.8948 24.5525 39.5551 22.8819 41.5965 22.8819H52.164C54.2055 22.8819 55.8658 24.5531 55.8658 26.6066V37.2391C55.8658 39.2932 54.2048 40.9639 52.164 40.9639ZM41.5965 25.4131C40.9425 25.4131 40.4104 25.9485 40.4104 26.6066V37.2391C40.4104 37.8972 40.9425 38.4326 41.5965 38.4326H52.164C52.8181 38.4326 53.3501 37.8972 53.3501 37.2391V26.6066C53.3501 25.9485 52.8181 25.4131 52.164 25.4131H41.5965Z" fill="#3A2C60"/>
</svg>
